<svg width="248" height="29" viewBox="0 0 248 29" fill="none" xmlns="http://www.w3.org/2000/svg">
<path fill-rule="evenodd" clip-rule="evenodd" d="M6.1976 19.6068C11.4669 19.8785 25.1999 18.9506 62.4785 16.4091C120.69 12.4364 166.933 9.90824 179.843 10.0299C180.869 10.0541 99.3298 16.4573 90.9155 16.5334C77.7957 16.6184 15.4665 21.6789 2.98122 23.5115C-0.569061 24.0156 0.83137 24.8137 3.17038 24.8422C6.82446 24.9068 16.5709 24.1936 43.2954 22.2617C62.0895 20.9161 211.682 11.1964 228.117 11.3596C237.343 11.4508 242.965 11.7298 245.503 11.3924C247.628 11.1159 247.634 10.7315 245.712 9.80985C244.421 9.19614 245.794 8.6842 246.672 8.4308C248.02 8.01662 247.371 6.97402 245.59 6.2345C243.182 5.21885 239.17 5.53126 241.164 6.57585C241.596 6.80165 241.736 7.43184 240.262 7.40689C235.966 7.32315 205.614 6.82069 197.395 6.94715C109.638 8.21703 24.5692 17.7147 6.42325 17.7991C-0.0114128 17.8008 3.04878 19.4429 6.1976 19.6068Z" fill="#00AEEF"/>
</svg>
