<svg width="195" height="56" viewBox="0 0 195 56" fill="none" xmlns="http://www.w3.org/2000/svg">
<g clip-path="url(#clip0_568_862)">
<path d="M64.7979 35.388H76.7499V31.788H69.0459V18.228H64.7979V35.388Z" fill="#340E0E"/>
<path d="M83.8313 32.9879C82.1273 32.9879 81.2393 31.4999 81.2393 29.2679C81.2393 27.0359 82.1273 25.5239 83.8313 25.5239C85.5353 25.5239 86.4473 27.0359 86.4473 29.2679C86.4473 31.4999 85.5353 32.9879 83.8313 32.9879ZM83.8553 35.7719C87.8153 35.7719 90.4073 32.9639 90.4073 29.2679C90.4073 25.5719 87.8153 22.7639 83.8553 22.7639C79.9193 22.7639 77.2793 25.5719 77.2793 29.2679C77.2793 32.9639 79.9193 35.7719 83.8553 35.7719Z" fill="#340E0E"/>
<path d="M97.2616 39.636C99.0856 39.636 100.694 39.228 101.774 38.268C102.758 37.38 103.406 36.036 103.406 34.188V23.1H99.6616V24.42H99.6136C98.8936 23.388 97.7896 22.74 96.1576 22.74C93.1096 22.74 90.9976 25.284 90.9976 28.884C90.9976 32.652 93.5656 34.716 96.3256 34.716C97.8136 34.716 98.7496 34.116 99.4696 33.3H99.5656V34.524C99.5656 36.012 98.8696 36.876 97.2136 36.876C95.9176 36.876 95.2696 36.324 95.0536 35.676H91.2616C91.6456 38.244 93.8776 39.636 97.2616 39.636ZM97.2376 31.812C95.7736 31.812 94.8136 30.612 94.8136 28.764C94.8136 26.892 95.7736 25.692 97.2376 25.692C98.8696 25.692 99.7336 27.084 99.7336 28.74C99.7336 30.468 98.9416 31.812 97.2376 31.812Z" fill="#340E0E"/>
<path d="M111.104 32.9879C109.4 32.9879 108.512 31.4999 108.512 29.2679C108.512 27.0359 109.4 25.5239 111.104 25.5239C112.808 25.5239 113.72 27.0359 113.72 29.2679C113.72 31.4999 112.808 32.9879 111.104 32.9879ZM111.128 35.7719C115.088 35.7719 117.68 32.9639 117.68 29.2679C117.68 25.5719 115.088 22.7639 111.128 22.7639C107.192 22.7639 104.552 25.5719 104.552 29.2679C104.552 32.9639 107.192 35.7719 111.128 35.7719Z" fill="#340E0E"/>
<path d="M118.822 35.388H122.734V23.1H118.822V35.388ZM118.822 21.396H122.734V18.228H118.822V21.396Z" fill="#340E0E"/>
<path d="M124.432 39.444H128.344V34.116H128.392C129.16 35.148 130.288 35.772 131.872 35.772C135.088 35.772 137.224 33.228 137.224 29.244C137.224 25.548 135.232 22.74 131.968 22.74C130.288 22.74 129.088 23.484 128.248 24.588H128.176V23.1H124.432V39.444ZM130.864 32.748C129.184 32.748 128.224 31.38 128.224 29.388C128.224 27.396 129.088 25.884 130.792 25.884C132.472 25.884 133.264 27.276 133.264 29.388C133.264 31.476 132.352 32.748 130.864 32.748Z" fill="#340E0E"/>
<path d="M143.593 35.772C146.809 35.772 149.185 34.38 149.185 31.692C149.185 28.548 146.641 27.996 144.481 27.636C142.921 27.348 141.529 27.228 141.529 26.364C141.529 25.596 142.273 25.236 143.233 25.236C144.313 25.236 145.057 25.572 145.201 26.676H148.801C148.609 24.252 146.737 22.74 143.257 22.74C140.353 22.74 137.953 24.084 137.953 26.676C137.953 29.556 140.233 30.132 142.369 30.492C144.001 30.78 145.489 30.9 145.489 32.004C145.489 32.796 144.745 33.228 143.569 33.228C142.273 33.228 141.457 32.628 141.313 31.404H137.617C137.737 34.116 139.993 35.772 143.593 35.772Z" fill="#340E0E"/>
<path d="M154.499 35.7481C156.203 35.7481 157.283 35.0761 158.171 33.8761H158.243V35.3881H161.987V23.1001H158.075V29.9641C158.075 31.4281 157.259 32.4361 155.915 32.4361C154.667 32.4361 154.067 31.6921 154.067 30.3481V23.1001H150.179V31.1641C150.179 33.9001 151.667 35.7481 154.499 35.7481Z" fill="#340E0E"/>
<path d="M163.688 35.388H167.6V28.5C167.6 27.036 168.32 26.004 169.544 26.004C170.72 26.004 171.272 26.772 171.272 28.092V35.388H175.184V28.5C175.184 27.036 175.88 26.004 177.128 26.004C178.304 26.004 178.856 26.772 178.856 28.092V35.388H182.768V27.396C182.768 24.636 181.376 22.74 178.592 22.74C177.008 22.74 175.688 23.412 174.728 24.9H174.68C174.056 23.58 172.832 22.74 171.224 22.74C169.448 22.74 168.272 23.58 167.504 24.852H167.432V23.1H163.688V35.388Z" fill="#340E0E"/>
<path fill-rule="evenodd" clip-rule="evenodd" d="M33.6221 47.3879C44.6678 47.3879 53.6221 38.4336 53.6221 27.3879C53.6221 16.3422 44.6678 7.38794 33.6221 7.38794C22.5764 7.38794 13.6221 16.3422 13.6221 27.3879C13.6221 38.4336 22.5764 47.3879 33.6221 47.3879ZM39.8614 16.7048C40.1651 15.626 39.1182 14.9881 38.1621 15.6692L24.8152 25.1775C23.7783 25.9162 23.9414 27.3879 25.0602 27.3879H28.5748V27.3607H35.4246L29.8433 29.33L27.3828 38.0711C27.0791 39.1499 28.1259 39.7878 29.0821 39.1066L42.429 29.5984C43.4659 28.8597 43.3027 27.3879 42.184 27.3879H36.8542L39.8614 16.7048Z" fill="#F15757"/>
</g>
<defs>
<clipPath id="clip0_568_862">
<rect width="170" height="41" fill="white" transform="translate(12.938 7.25)"/>
</clipPath>
</defs>
</svg>
