<svg width="227" height="57" viewBox="0 0 227 57" fill="none" xmlns="http://www.w3.org/2000/svg">
<g clip-path="url(#clip0_568_1111)">
<path fill-rule="evenodd" clip-rule="evenodd" d="M38.4937 20.4353C36.8492 19.3365 34.9158 18.75 32.938 18.75V8.75C36.8936 8.75 40.7604 9.92298 44.0494 12.1206C47.3384 14.3182 49.9018 17.4418 51.4156 21.0963C52.9293 24.7508 53.3254 28.7722 52.5537 32.6518C51.782 36.5314 49.8772 40.0951 47.0801 42.8921C44.2831 45.6892 40.7194 47.594 36.8398 48.3657C32.9602 49.1374 28.9388 48.7413 25.2843 47.2276C21.6298 45.7138 18.5062 43.1504 16.3086 39.8614C14.111 36.5724 12.938 32.7056 12.938 28.75H22.938C22.938 30.7278 23.5245 32.6612 24.6233 34.3057C25.7221 35.9502 27.2839 37.2319 29.1112 37.9888C30.9384 38.7457 32.9491 38.9437 34.8889 38.5578C36.8287 38.172 38.6105 37.2196 40.0091 35.8211C41.4076 34.4225 42.36 32.6407 42.7458 30.7009C43.1317 28.7611 42.9337 26.7504 42.1768 24.9232C41.4199 23.0959 40.1382 21.5341 38.4937 20.4353Z" fill="#007DFC"/>
<path fill-rule="evenodd" clip-rule="evenodd" d="M22.938 8.75001C22.938 10.0632 22.6793 11.3636 22.1768 12.5768C21.6742 13.7901 20.9376 14.8925 20.0091 15.8211C19.0805 16.7497 17.9781 17.4863 16.7648 17.9888C15.5516 18.4913 14.2512 18.75 12.938 18.75L12.938 28.75C15.5644 28.75 18.1651 28.2327 20.5917 27.2276C23.0182 26.2225 25.223 24.7493 27.0801 22.8921C28.9373 21.035 30.4105 18.8302 31.4156 16.4037C32.4207 13.9772 32.938 11.3764 32.938 8.75L22.938 8.75001Z" fill="#007DFC"/>
<path d="M138.557 23.2024H133.705V38.6147H138.557V23.2024Z" fill="#007DFC"/>
<path d="M134.245 20.3166C134.752 20.824 135.386 21.0777 136.147 21.0777C136.908 21.0777 137.532 20.824 138.018 20.3166C138.505 19.7881 138.748 19.1538 138.748 18.4138C138.748 17.6528 138.505 17.0185 138.018 16.5111C137.532 16.0037 136.908 15.75 136.147 15.75C135.386 15.75 134.752 16.0037 134.245 16.5111C133.758 17.0185 133.515 17.6528 133.515 18.4138C133.515 19.1538 133.758 19.7881 134.245 20.3166Z" fill="#007DFC"/>
<path d="M64.0942 38.6147V16.2256H69.0731V34.2384H78.9992V38.6147H64.0942Z" fill="#007DFC"/>
<path fill-rule="evenodd" clip-rule="evenodd" d="M87.9653 38.9635C86.3797 38.9635 84.9421 38.6147 83.6524 37.917C82.3839 37.1982 81.3797 36.2257 80.6397 34.9994C79.8998 33.7732 79.5298 32.399 79.5298 30.8768C79.5298 29.3546 79.8998 27.991 80.6397 26.7859C81.3797 25.5808 82.3839 24.6294 83.6524 23.9318C84.9209 23.2129 86.3586 22.8535 87.9653 22.8535C89.5721 22.8535 91.0097 23.2024 92.2782 23.9C93.5467 24.5977 94.551 25.5597 95.2909 26.7859C96.0309 27.991 96.4009 29.3546 96.4009 30.8768C96.4009 32.399 96.0309 33.7732 95.2909 34.9994C94.551 36.2257 93.5467 37.1982 92.2782 37.917C91.0097 38.6147 89.5721 38.9635 87.9653 38.9635ZM87.9653 34.5555C88.663 34.5555 89.2761 34.4075 89.8047 34.1115C90.3332 33.7944 90.7349 33.361 91.0097 32.8113C91.3057 32.2405 91.4537 31.5956 91.4537 30.8768C91.4537 30.158 91.3057 29.5343 91.0097 29.0058C90.7137 28.4561 90.3015 28.0333 89.7729 27.7373C89.2655 27.4201 88.663 27.2616 87.9653 27.2616C87.2888 27.2616 86.6863 27.4201 86.1577 27.7373C85.6292 28.0333 85.2169 28.4561 84.9209 29.0058C84.6249 29.5555 84.477 30.1897 84.477 30.9085C84.477 31.6062 84.6249 32.2405 84.9209 32.8113C85.2169 33.361 85.6292 33.7944 86.1577 34.1115C86.6863 34.4075 87.2888 34.5555 87.9653 34.5555Z" fill="#007DFC"/>
<path fill-rule="evenodd" clip-rule="evenodd" d="M100.244 44.6402C101.533 45.2321 103.024 45.5281 104.715 45.5281C106.364 45.5281 107.833 45.2004 109.123 44.545C110.413 43.8896 111.427 42.9806 112.167 41.8178C112.907 40.655 113.278 39.2808 113.278 37.6951V23.2025H108.52V24.238C108.167 23.9402 107.765 23.6902 107.315 23.4879C106.491 23.0862 105.55 22.8853 104.493 22.8853C103.077 22.8853 101.819 23.2236 100.719 23.9001C99.6198 24.5555 98.7531 25.4646 98.1188 26.6274C97.4845 27.7691 97.1675 29.0587 97.1675 30.4964C97.1675 31.9129 97.4845 33.2025 98.1188 34.3653C98.7531 35.5281 99.6198 36.4478 100.719 37.1243C101.819 37.8008 103.077 38.1391 104.493 38.1391C105.529 38.1391 106.47 37.9383 107.315 37.5366C107.725 37.342 108.095 37.1127 108.425 36.8486V37.822C108.425 38.9002 108.077 39.7353 107.379 40.3273C106.702 40.9193 105.762 41.2152 104.556 41.2152C103.584 41.2152 102.749 41.0461 102.051 40.7078C101.375 40.3696 100.761 39.8727 100.212 39.2173L97.2309 42.1983C97.9708 43.2554 98.9751 44.0694 100.244 44.6402ZM107.157 33.3822C106.671 33.6782 106.089 33.8262 105.413 33.8262C104.736 33.8262 104.144 33.6782 103.637 33.3822C103.15 33.0862 102.77 32.6845 102.495 32.1771C102.22 31.6486 102.083 31.0883 102.083 30.4964C102.083 29.8621 102.22 29.2913 102.495 28.7839C102.77 28.2765 103.161 27.8748 103.668 27.5788C104.176 27.2828 104.757 27.1348 105.413 27.1348C106.089 27.1348 106.671 27.2828 107.157 27.5788C107.664 27.8748 108.045 28.2765 108.299 28.7839C108.573 29.2913 108.711 29.8621 108.711 30.4964C108.711 31.1306 108.573 31.7014 108.299 32.2088C108.045 32.6951 107.664 33.0862 107.157 33.3822Z" fill="#007DFC"/>
<path fill-rule="evenodd" clip-rule="evenodd" d="M123.489 38.9635C121.903 38.9635 120.465 38.6147 119.176 37.917C117.907 37.1982 116.903 36.2257 116.163 34.9994C115.423 33.7732 115.053 32.399 115.053 30.8768C115.053 29.3546 115.423 27.991 116.163 26.7859C116.903 25.5808 117.907 24.6294 119.176 23.9318C120.444 23.2129 121.882 22.8535 123.489 22.8535C125.095 22.8535 126.533 23.2024 127.801 23.9C129.07 24.5977 130.074 25.5597 130.814 26.7859C131.554 27.991 131.924 29.3546 131.924 30.8768C131.924 32.399 131.554 33.7732 130.814 34.9994C130.074 36.2257 129.07 37.1982 127.801 37.917C126.533 38.6147 125.095 38.9635 123.489 38.9635ZM123.489 34.5555C124.186 34.5555 124.799 34.4075 125.328 34.1115C125.856 33.7944 126.258 33.361 126.533 32.8113C126.829 32.2405 126.977 31.5956 126.977 30.8768C126.977 30.158 126.829 29.5343 126.533 29.0058C126.237 28.4561 125.825 28.0333 125.296 27.7373C124.789 27.4201 124.186 27.2616 123.489 27.2616C122.812 27.2616 122.209 27.4201 121.681 27.7373C121.152 28.0333 120.74 28.4561 120.444 29.0058C120.148 29.5555 120 30.1897 120 30.9085C120 31.6062 120.148 32.2405 120.444 32.8113C120.74 33.361 121.152 33.7944 121.681 34.1115C122.209 34.4075 122.812 34.5555 123.489 34.5555Z" fill="#007DFC"/>
<path fill-rule="evenodd" clip-rule="evenodd" d="M150.219 38.9319C149.184 38.9319 148.232 38.7311 147.365 38.3294C146.909 38.118 146.497 37.8656 146.129 37.5722V45.1159H141.34V23.2025H146.192V24.2662C146.544 23.9783 146.935 23.7294 147.365 23.5196C148.232 23.0967 149.184 22.8853 150.219 22.8853C151.678 22.8853 152.968 23.2342 154.088 23.9319C155.23 24.6295 156.118 25.5809 156.752 26.786C157.408 27.9911 157.735 29.3653 157.735 30.9086C157.735 32.452 157.408 33.8262 156.752 35.0313C156.118 36.2364 155.23 37.1877 154.088 37.8854C152.968 38.5831 151.678 38.9319 150.219 38.9319ZM149.332 34.5556C150.029 34.5556 150.632 34.397 151.139 34.0799C151.668 33.7628 152.08 33.3293 152.376 32.7797C152.672 32.23 152.82 31.6063 152.82 30.9086C152.82 30.1898 152.672 29.5556 152.376 29.0059C152.08 28.4562 151.668 28.0334 151.139 27.7374C150.632 27.4202 150.04 27.2617 149.363 27.2617C148.687 27.2617 148.084 27.4202 147.556 27.7374C147.048 28.0334 146.647 28.4562 146.351 29.0059C146.055 29.5556 145.907 30.1898 145.907 30.9086C145.907 31.6063 146.044 32.23 146.319 32.7797C146.615 33.3293 147.027 33.7628 147.556 34.0799C148.084 34.397 148.676 34.5556 149.332 34.5556Z" fill="#007DFC"/>
<path d="M162.484 38.6465C163.372 38.8791 164.27 38.9953 165.179 38.9953C167.103 38.9953 168.625 38.5514 169.746 37.6634C170.887 36.7755 171.458 35.581 171.458 34.0799C171.458 33.1074 171.279 32.3251 170.919 31.7332C170.56 31.1201 170.095 30.6338 169.524 30.2744C168.953 29.915 168.35 29.6295 167.716 29.4181C167.082 29.2067 166.479 29.027 165.909 28.879C165.338 28.731 164.873 28.5619 164.513 28.3716C164.154 28.1813 163.974 27.9276 163.974 27.6105C163.974 27.3145 164.112 27.0925 164.386 26.9445C164.661 26.7754 165.073 26.6909 165.623 26.6909C166.194 26.6909 166.775 26.8071 167.367 27.0397C167.98 27.2722 168.53 27.674 169.016 28.2448L171.775 25.4541C171.078 24.5661 170.169 23.9001 169.048 23.4562C167.949 22.9911 166.744 22.7585 165.433 22.7585C164.186 22.7585 163.097 22.9699 162.167 23.3927C161.236 23.8156 160.517 24.397 160.01 25.1369C159.503 25.8557 159.249 26.712 159.249 27.7057C159.249 28.6359 159.429 29.4076 159.788 30.0207C160.147 30.6126 160.613 31.0778 161.183 31.416C161.754 31.7543 162.357 32.0186 162.991 32.2088C163.625 32.3991 164.228 32.5788 164.799 32.748C165.369 32.896 165.835 33.0757 166.194 33.2871C166.575 33.4774 166.765 33.7628 166.765 34.1433C166.765 34.4393 166.606 34.6718 166.289 34.841C165.993 35.0101 165.56 35.0947 164.989 35.0947C164.164 35.0947 163.403 34.9467 162.706 34.6507C162.008 34.3336 161.405 33.9002 160.898 33.3505L158.139 36.1412C158.668 36.712 159.302 37.2195 160.042 37.6634C160.803 38.0862 161.617 38.4139 162.484 38.6465Z" fill="#007DFC"/>
<path d="M180.306 38.9635C178.89 38.9635 177.632 38.6781 176.533 38.1073C175.454 37.5153 174.609 36.7119 173.996 35.6971C173.382 34.6612 173.076 33.4773 173.076 32.1453V23.2024H177.928V32.0819C177.928 32.6104 178.012 33.065 178.182 33.4455C178.372 33.8261 178.647 34.1221 179.006 34.3335C179.366 34.5449 179.799 34.6506 180.306 34.6506C181.025 34.6506 181.596 34.4286 182.019 33.9846C182.442 33.5195 182.653 32.8853 182.653 32.0819V23.2024H187.505V32.1136C187.505 33.4667 187.199 34.6612 186.585 35.6971C185.972 36.7119 185.127 37.5153 184.048 38.1073C182.97 38.6781 181.723 38.9635 180.306 38.9635Z" fill="#007DFC"/>
<path d="M194.769 23.2025H189.917V38.6148H194.769V29.6084C194.769 29.0799 194.875 28.6359 195.086 28.2765C195.319 27.9171 195.626 27.6422 196.006 27.452C196.387 27.2405 196.82 27.1348 197.306 27.1348C198.004 27.1348 198.585 27.3568 199.05 27.8008C199.537 28.2236 199.78 28.8262 199.78 29.6084V38.6148H204.632V29.6084C204.632 29.0799 204.738 28.6359 204.949 28.2765C205.182 27.9171 205.488 27.6422 205.869 27.452C206.249 27.2405 206.683 27.1348 207.169 27.1348C207.867 27.1348 208.448 27.3568 208.913 27.8008C209.399 28.2236 209.642 28.8262 209.642 29.6084V38.6148H214.495V29.0693C214.495 27.7797 214.22 26.6803 213.67 25.7712C213.141 24.8409 212.412 24.1327 211.482 23.6465C210.573 23.139 209.526 22.8853 208.342 22.8853C207.137 22.8853 206.048 23.1496 205.076 23.6782C204.444 24.0149 203.892 24.4495 203.419 24.9819C202.978 24.425 202.442 23.9693 201.809 23.6147C200.964 23.1285 200.002 22.8853 198.924 22.8853C197.782 22.8853 196.757 23.1285 195.848 23.6147C195.452 23.817 195.093 24.0593 194.769 24.3416V23.2025Z" fill="#007DFC"/>
</g>
<defs>
<clipPath id="clip0_568_1111">
<rect width="202" height="40" fill="white" transform="translate(12.938 8.75)"/>
</clipPath>
</defs>
</svg>
