<svg width="196" height="56" viewBox="0 0 196 56" fill="none" xmlns="http://www.w3.org/2000/svg">
<g clip-path="url(#clip0_568_845)">
<path d="M80.5201 18.0339H76.938V34.1972H86.8544V31.0301H80.5201V18.0339Z" fill="#4845D2"/>
<path d="M87.1963 28.7149C87.1963 32.166 89.5116 34.4594 93.0063 34.4594C96.4792 34.4594 98.7945 32.166 98.7945 28.7149C98.7945 25.2638 96.4792 22.9485 93.0063 22.9485C89.5116 22.9485 87.1963 25.2638 87.1963 28.7149ZM90.5818 28.693C90.5818 27.0549 91.5429 25.9628 93.0063 25.9628C94.4479 25.9628 95.409 27.0549 95.409 28.693C95.409 30.3531 94.4479 31.4452 93.0063 31.4452C91.5429 31.4452 90.5818 30.3531 90.5818 28.693Z" fill="#4845D2"/>
<path d="M99.3357 28.5401C99.3357 31.8382 101.476 34.0661 104.512 34.0661C105.976 34.0661 107.243 33.5419 107.876 32.6901V34.1972C107.876 35.7043 106.937 36.709 105.277 36.709C103.791 36.709 102.765 36.0101 102.699 34.7651H99.292C99.5978 37.7575 101.913 39.7669 105.08 39.7669C108.815 39.7669 111.174 37.3425 111.174 33.4982V23.2761H108.138L107.963 24.39C107.352 23.4945 106.063 22.9048 104.578 22.9048C101.52 22.9048 99.3357 25.1982 99.3357 28.5401ZM102.743 28.4527C102.743 26.88 103.791 25.8316 105.124 25.8316C106.675 25.8316 107.81 26.8582 107.81 28.4527C107.81 30.0472 106.696 31.1393 105.146 31.1393C103.813 31.1393 102.743 30.0472 102.743 28.4527Z" fill="#4845D2"/>
<path d="M112.155 28.7149C112.155 32.166 114.47 34.4594 117.965 34.4594C121.438 34.4594 123.753 32.166 123.753 28.7149C123.753 25.2638 121.438 22.9485 117.965 22.9485C114.47 22.9485 112.155 25.2638 112.155 28.7149ZM115.54 28.693C115.54 27.0549 116.501 25.9628 117.965 25.9628C119.406 25.9628 120.367 27.0549 120.367 28.693C120.367 30.3531 119.406 31.4452 117.965 31.4452C116.501 31.4452 115.54 30.3531 115.54 28.693Z" fill="#4845D2"/>
<path d="M126.653 21.5724C127.701 21.5724 128.553 20.7205 128.553 19.6503C128.553 18.58 127.701 17.75 126.653 17.75C125.583 17.75 124.731 18.58 124.731 19.6503C124.731 20.7205 125.583 21.5724 126.653 21.5724ZM124.949 34.1972H128.335V23.2761H124.949V34.1972Z" fill="#4845D2"/>
<path d="M130.306 39.4392H133.626V33.105C134.259 33.935 135.701 34.5029 137.208 34.5029C140.462 34.5029 142.428 32.0129 142.341 28.5618C142.253 25.0452 140.222 22.9265 137.186 22.9265C135.635 22.9265 134.172 23.6036 133.56 24.6084L133.385 23.276H130.306V39.4392ZM133.691 28.7365C133.691 27.0984 134.783 26.0063 136.356 26.0063C137.95 26.0063 138.955 27.1202 138.955 28.7365C138.955 30.3529 137.95 31.4668 136.356 31.4668C134.783 31.4668 133.691 30.3747 133.691 28.7365Z" fill="#4845D2"/>
<path d="M142.699 30.746C142.786 32.9521 144.534 34.481 147.286 34.481C149.929 34.481 151.764 33.0831 151.764 30.8334C151.764 29.2171 150.803 28.1468 149.011 27.7099L147.068 27.2294C146.369 27.0547 145.932 26.8799 145.932 26.312C145.932 25.7441 146.39 25.3728 147.068 25.3728C147.832 25.3728 148.334 25.8752 148.313 26.6178H151.349C151.261 24.3462 149.536 22.9265 147.133 22.9265C144.709 22.9265 142.896 24.3681 142.896 26.5523C142.896 28.0157 143.704 29.2171 145.866 29.785L147.788 30.2873C148.356 30.4402 148.596 30.7023 148.596 31.0736C148.596 31.6197 148.094 31.9692 147.242 31.9692C146.259 31.9692 145.735 31.5105 145.735 30.746H142.699Z" fill="#4845D2"/>
<path d="M156.912 34.4811C158.245 34.4811 159.577 33.8695 160.254 32.974L160.473 34.1972H163.64V23.2761H160.276V28.9551C160.276 30.5932 159.796 31.4887 158.245 31.4887C157.043 31.4887 156.257 30.9427 156.257 28.9114V23.2761H152.893V30.1345C152.893 32.7338 154.335 34.4811 156.912 34.4811Z" fill="#4845D2"/>
<path d="M168.974 34.1972V28.2343C168.974 26.3995 169.957 25.8753 170.918 25.8753C171.988 25.8753 172.687 26.5306 172.687 27.8848V34.1972H176.007V28.2343C176.007 26.3777 176.968 25.8535 177.929 25.8535C178.999 25.8535 179.72 26.5087 179.72 27.8848V34.1972H182.997V27.0548C182.997 24.5648 181.686 22.9048 178.868 22.9048C177.296 22.9048 176.007 23.6692 175.439 24.8487C174.784 23.6692 173.648 22.9048 171.835 22.9048C170.634 22.9048 169.52 23.4508 168.865 24.3245L168.734 23.2761H165.588V34.1972H168.974Z" fill="#4845D2"/>
<path d="M12.938 27.75C12.938 18.9134 20.1014 11.75 28.938 11.75H49.938C58.7746 11.75 65.938 18.9134 65.938 27.75V43.75H28.938C20.1014 43.75 12.938 36.5866 12.938 27.75Z" fill="#4845D2"/>
<path d="M49.938 17.75H28.938C23.4151 17.75 18.938 22.2272 18.938 27.75C18.938 33.2728 23.4151 37.75 28.938 37.75H49.938C55.4608 37.75 59.938 33.2728 59.938 27.75C59.938 22.2272 55.4608 17.75 49.938 17.75Z" fill="#A5B4FC"/>
<path d="M28.938 32.75C31.6994 32.75 33.938 30.5114 33.938 27.75C33.938 24.9886 31.6994 22.75 28.938 22.75C26.1766 22.75 23.938 24.9886 23.938 27.75C23.938 30.5114 26.1766 32.75 28.938 32.75Z" fill="black"/>
<path d="M26.938 26.75C27.4903 26.75 27.938 26.3023 27.938 25.75C27.938 25.1977 27.4903 24.75 26.938 24.75C26.3857 24.75 25.938 25.1977 25.938 25.75C25.938 26.3023 26.3857 26.75 26.938 26.75Z" fill="white"/>
<path d="M50.938 32.75C53.6994 32.75 55.938 30.5114 55.938 27.75C55.938 24.9886 53.6994 22.75 50.938 22.75C48.1766 22.75 45.938 24.9886 45.938 27.75C45.938 30.5114 48.1766 32.75 50.938 32.75Z" fill="black"/>
<path d="M48.938 26.75C49.4903 26.75 49.938 26.3023 49.938 25.75C49.938 25.1977 49.4903 24.75 48.938 24.75C48.3857 24.75 47.938 25.1977 47.938 25.75C47.938 26.3023 48.3857 26.75 48.938 26.75Z" fill="white"/>
</g>
<defs>
<clipPath id="clip0_568_845">
<rect width="171" height="32" fill="white" transform="translate(12.938 11.75)"/>
</clipPath>
</defs>
</svg>
