<svg width="195" height="56" viewBox="0 0 195 56" fill="none" xmlns="http://www.w3.org/2000/svg">
<g clip-path="url(#clip0_568_874)">
<path d="M64.2156 36.5731H76.1676V32.9731H68.4636V19.4131H64.2156V36.5731Z" fill="#2F234F"/>
<path d="M83.2485 34.1732C81.5445 34.1732 80.6565 32.6852 80.6565 30.4532C80.6565 28.2212 81.5445 26.7092 83.2485 26.7092C84.9525 26.7092 85.8645 28.2212 85.8645 30.4532C85.8645 32.6852 84.9525 34.1732 83.2485 34.1732ZM83.2725 36.9572C87.2325 36.9572 89.8245 34.1492 89.8245 30.4532C89.8245 26.7572 87.2325 23.9492 83.2725 23.9492C79.3365 23.9492 76.6965 26.7572 76.6965 30.4532C76.6965 34.1492 79.3365 36.9572 83.2725 36.9572Z" fill="#2F234F"/>
<path d="M96.679 40.8213C98.503 40.8213 100.111 40.4133 101.191 39.4533C102.175 38.5653 102.823 37.2213 102.823 35.3733V24.2853H99.079V25.6053H99.031C98.311 24.5733 97.207 23.9253 95.575 23.9253C92.527 23.9253 90.415 26.4693 90.415 30.0693C90.415 33.8373 92.983 35.9013 95.743 35.9013C97.231 35.9013 98.167 35.3013 98.887 34.4853H98.983V35.7093C98.983 37.1973 98.287 38.0613 96.631 38.0613C95.335 38.0613 94.687 37.5093 94.471 36.8613H90.679C91.063 39.4293 93.295 40.8213 96.679 40.8213ZM96.655 32.9973C95.191 32.9973 94.231 31.7973 94.231 29.9493C94.231 28.0773 95.191 26.8773 96.655 26.8773C98.287 26.8773 99.151 28.2693 99.151 29.9253C99.151 31.6533 98.359 32.9973 96.655 32.9973Z" fill="#2F234F"/>
<path d="M110.521 34.1732C108.817 34.1732 107.929 32.6852 107.929 30.4532C107.929 28.2212 108.817 26.7092 110.521 26.7092C112.225 26.7092 113.137 28.2212 113.137 30.4532C113.137 32.6852 112.225 34.1732 110.521 34.1732ZM110.545 36.9572C114.505 36.9572 117.097 34.1492 117.097 30.4532C117.097 26.7572 114.505 23.9492 110.545 23.9492C106.609 23.9492 103.969 26.7572 103.969 30.4532C103.969 34.1492 106.609 36.9572 110.545 36.9572Z" fill="#2F234F"/>
<path d="M118.24 36.5731H122.152V24.2851H118.24V36.5731ZM118.24 22.5811H122.152V19.4131H118.24V22.5811Z" fill="#2F234F"/>
<path d="M123.849 40.6293H127.761V35.3013H127.809C128.577 36.3333 129.705 36.9573 131.289 36.9573C134.505 36.9573 136.641 34.4133 136.641 30.4293C136.641 26.7333 134.649 23.9253 131.385 23.9253C129.705 23.9253 128.505 24.6693 127.665 25.7733H127.593V24.2853H123.849V40.6293ZM130.281 33.9333C128.601 33.9333 127.641 32.5653 127.641 30.5733C127.641 28.5813 128.505 27.0693 130.209 27.0693C131.889 27.0693 132.681 28.4613 132.681 30.5733C132.681 32.6613 131.769 33.9333 130.281 33.9333Z" fill="#2F234F"/>
<path d="M143.01 36.9573C146.226 36.9573 148.602 35.5653 148.602 32.8773C148.602 29.7333 146.058 29.1813 143.898 28.8213C142.338 28.5333 140.946 28.4133 140.946 27.5493C140.946 26.7813 141.69 26.4213 142.65 26.4213C143.73 26.4213 144.474 26.7573 144.618 27.8613H148.218C148.026 25.4373 146.154 23.9253 142.674 23.9253C139.77 23.9253 137.37 25.2693 137.37 27.8613C137.37 30.7413 139.65 31.3173 141.786 31.6773C143.418 31.9653 144.906 32.0853 144.906 33.1893C144.906 33.9813 144.162 34.4133 142.986 34.4133C141.69 34.4133 140.874 33.8133 140.73 32.5893H137.034C137.154 35.3013 139.41 36.9573 143.01 36.9573Z" fill="#2F234F"/>
<path d="M153.916 36.9332C155.62 36.9332 156.7 36.2612 157.588 35.0612H157.66V36.5732H161.404V24.2852H157.492V31.1492C157.492 32.6132 156.676 33.6212 155.332 33.6212C154.084 33.6212 153.484 32.8772 153.484 31.5332V24.2852H149.596V32.3492C149.596 35.0852 151.084 36.9332 153.916 36.9332Z" fill="#2F234F"/>
<path d="M163.106 36.5733H167.018V29.6853C167.018 28.2213 167.738 27.1893 168.962 27.1893C170.138 27.1893 170.69 27.9573 170.69 29.2773V36.5733H174.602V29.6853C174.602 28.2213 175.298 27.1893 176.546 27.1893C177.722 27.1893 178.274 27.9573 178.274 29.2773V36.5733H182.186V28.5813C182.186 25.8213 180.794 23.9253 178.01 23.9253C176.426 23.9253 175.106 24.5973 174.146 26.0853H174.098C173.474 24.7653 172.25 23.9253 170.642 23.9253C168.866 23.9253 167.69 24.7653 166.922 26.0373H166.85V24.2853H163.106V36.5733Z" fill="#2F234F"/>
<path fill-rule="evenodd" clip-rule="evenodd" d="M33.0393 47.5732C44.0851 47.5732 53.0393 38.6189 53.0393 27.5732C53.0393 16.5275 44.0851 7.57324 33.0393 7.57324C21.9936 7.57324 13.0393 16.5275 13.0393 27.5732C13.0393 38.6189 21.9936 47.5732 33.0393 47.5732ZM36.1263 23.0258C37.8311 21.3209 37.8311 18.5568 36.1263 16.8519C34.4214 15.147 31.6573 15.147 29.9524 16.8519C28.2476 18.5568 28.2476 21.3209 29.9524 23.0258L33.0393 26.1127L36.1263 23.0258ZM37.5868 30.6602C39.2917 32.3651 42.0558 32.3651 43.7607 30.6602C45.4655 28.9553 45.4655 26.1912 43.7607 24.4863C42.0558 22.7815 39.2917 22.7815 37.5868 24.4863L34.4999 27.5733L37.5868 30.6602ZM36.1263 38.2946C37.8311 36.5897 37.8311 33.8256 36.1263 32.1207L33.0393 29.0338L29.9524 32.1207C28.2476 33.8256 28.2476 36.5897 29.9524 38.2946C31.6573 39.9995 34.4214 39.9995 36.1263 38.2946ZM22.3179 30.6602C20.6131 28.9553 20.6131 26.1912 22.3179 24.4863C24.0229 22.7815 26.787 22.7815 28.4919 24.4863L31.5788 27.5733L28.4919 30.6602C26.787 32.3651 24.0229 32.3651 22.3179 30.6602Z" fill="#7F57F1"/>
</g>
<defs>
<clipPath id="clip0_568_874">
<rect width="170" height="41" fill="white" transform="translate(12.938 7.25)"/>
</clipPath>
</defs>
</svg>
