<svg width="186" height="57" viewBox="0 0 186 57" fill="none" xmlns="http://www.w3.org/2000/svg">
<path d="M67.134 35.7499H70.653V19.1899H67.134V35.7499Z" fill="#55AE36"/>
<path d="M77.8718 36.1181C81.5518 36.1181 83.9668 33.7491 83.9668 29.5631C83.9668 25.5151 81.6208 22.9851 77.8718 22.9851C74.1918 22.9851 71.7998 25.3541 71.7998 29.5631C71.7998 33.6341 74.1228 36.1181 77.8718 36.1181ZM77.8718 33.2661C76.2848 33.2661 75.4108 31.9551 75.4108 29.5631C75.4108 27.1481 76.2618 25.8371 77.8718 25.8371C79.4818 25.8371 80.3558 27.1711 80.3558 29.5631C80.3558 31.9781 79.5048 33.2661 77.8718 33.2661Z" fill="#55AE36"/>
<path d="M89.6919 35.7731C91.0259 35.7731 92.1299 35.2211 92.9119 34.1401V36.2101C92.9119 37.9351 92.0609 38.5101 90.7959 38.5101C89.5769 38.5101 88.6339 37.9121 88.4959 36.8081H84.9769C85.4139 39.8211 87.6909 41.2011 90.8419 41.2011C94.0849 41.2011 96.4309 39.4761 96.4309 36.1641V23.3761H92.9119V24.5261C92.1529 23.5141 91.0719 22.9851 89.6919 22.9851C86.6099 22.9851 84.6089 25.2851 84.6089 29.4021C84.6089 33.3351 86.5639 35.7731 89.6919 35.7731ZM90.5429 32.9211C89.0249 32.9211 88.2199 31.6561 88.2199 29.4021C88.2199 27.0791 89.0249 25.8371 90.5429 25.8371C92.0839 25.8371 92.9119 27.1021 92.9119 29.3791C92.9119 31.6791 92.1069 32.9211 90.5429 32.9211Z" fill="#55AE36"/>
<path d="M103.669 36.1181C107.349 36.1181 109.764 33.7491 109.764 29.5631C109.764 25.5151 107.418 22.9851 103.669 22.9851C99.9894 22.9851 97.5974 25.3541 97.5974 29.5631C97.5974 33.6341 99.9204 36.1181 103.669 36.1181ZM103.669 33.2661C102.082 33.2661 101.208 31.9551 101.208 29.5631C101.208 27.1481 102.059 25.8371 103.669 25.8371C105.279 25.8371 106.153 27.1711 106.153 29.5631C106.153 31.9781 105.302 33.2661 103.669 33.2661Z" fill="#55AE36"/>
<path d="M110.936 22.1339H114.455V19.1899H110.936V22.1339ZM110.936 35.7499H114.455V23.3759H110.936V35.7499Z" fill="#55AE36"/>
<path d="M119.649 40.8331V34.5081C120.385 35.5661 121.443 36.1181 122.754 36.1181C125.905 36.1181 127.952 33.7491 127.952 29.5401C127.952 25.4921 125.951 22.9851 122.754 22.9851C121.466 22.9851 120.408 23.5831 119.649 24.6641V23.3761H116.13V40.8331H119.649ZM122.018 25.8371C123.513 25.8371 124.341 27.1481 124.341 29.5401C124.341 31.9551 123.536 33.2661 122.018 33.2661C120.477 33.2661 119.649 31.9321 119.649 29.5401C119.649 27.1481 120.454 25.8371 122.018 25.8371Z" fill="#55AE36"/>
<path d="M132.178 26.8031C132.178 26.1361 132.776 25.6761 133.696 25.6761C134.938 25.6761 135.674 26.2051 135.881 27.4701H139.377C139.032 24.3421 136.778 22.9851 133.811 22.9851C130.499 22.9851 128.82 24.9171 128.82 26.9871C128.82 31.9551 136.318 29.8161 136.318 32.2081C136.318 32.9671 135.697 33.4501 134.455 33.4501C133.144 33.4501 132.201 32.8291 132.04 31.6791H128.521C128.981 34.7381 131.235 36.1181 134.363 36.1181C137.583 36.1181 139.837 34.4391 139.837 32.0011C139.837 27.1021 132.178 29.2411 132.178 26.8031Z" fill="#55AE36"/>
<path d="M148.507 30.483C148.507 32.07 147.633 33.266 146.276 33.266C145.034 33.266 144.436 32.484 144.436 30.897V23.376H140.917V31.61C140.917 34.692 142.642 36.118 144.988 36.118C146.483 36.118 147.702 35.474 148.507 34.094V35.75H152.026V23.376H148.507V30.483Z" fill="#55AE36"/>
<path d="M153.726 35.7501H157.245V28.6431C157.245 27.0561 158.05 25.8371 159.269 25.8371C160.396 25.8371 160.948 26.6421 160.948 28.2061V35.7501H164.444V28.6431C164.444 27.0561 165.272 25.8371 166.491 25.8371C167.618 25.8371 168.147 26.6421 168.147 28.2061V35.7501H171.666V27.4931C171.666 24.4341 169.964 22.9851 167.664 22.9851C166.123 22.9851 164.812 23.6291 163.961 25.0321C163.34 23.6521 162.098 22.9851 160.626 22.9851C159.2 22.9851 158.027 23.6061 157.245 24.9401V23.3761H153.726V35.7501Z" fill="#55AE36"/>
<path d="M53.7884 40.8026C57.6004 37.3986 59.938 32.8048 59.938 27.75C59.938 17.2566 49.8644 8.75 37.438 8.75C25.0116 8.75 14.938 17.2566 14.938 27.75C14.938 38.2434 25.0116 46.75 37.438 46.75C40.9633 46.75 44.2993 46.0654 47.2696 44.8449C50.7588 46.9986 55.0337 48.5467 59.7549 48.2202C57.2607 47.5862 55.1153 45.0179 53.7884 40.8026Z" fill="#B6EFA2"/>
<path d="M53.938 27.75C53.938 35.482 46.5507 41.75 37.438 41.75C28.3253 41.75 20.938 35.482 20.938 27.75C20.938 20.018 28.3253 13.75 37.438 13.75C46.5507 13.75 53.938 20.018 53.938 27.75Z" fill="#88E169"/>
<path d="M47.938 27.75C47.938 32.7206 43.237 36.75 37.438 36.75C31.639 36.75 26.938 32.7206 26.938 27.75C26.938 22.7794 31.639 18.75 37.438 18.75C43.237 18.75 47.938 22.7794 47.938 27.75Z" fill="#55AE36"/>
</svg>
