<svg width="193" height="56" viewBox="0 0 193 56" fill="none" xmlns="http://www.w3.org/2000/svg">
<g clip-path="url(#clip0_568_886)">
<path d="M62.2156 36.2025H74.1676V32.6025H66.4636V19.0425H62.2156V36.2025Z" fill="#3C2B1F"/>
<path d="M81.2488 33.8024C79.5448 33.8024 78.6568 32.3144 78.6568 30.0824C78.6568 27.8504 79.5448 26.3384 81.2488 26.3384C82.9528 26.3384 83.8648 27.8504 83.8648 30.0824C83.8648 32.3144 82.9528 33.8024 81.2488 33.8024ZM81.2728 36.5864C85.2328 36.5864 87.8248 33.7784 87.8248 30.0824C87.8248 26.3864 85.2328 23.5784 81.2728 23.5784C77.3368 23.5784 74.6968 26.3864 74.6968 30.0824C74.6968 33.7784 77.3368 36.5864 81.2728 36.5864Z" fill="#3C2B1F"/>
<path d="M94.679 40.4504C96.503 40.4504 98.111 40.0424 99.191 39.0824C100.175 38.1944 100.823 36.8504 100.823 35.0024V23.9144H97.079V25.2344H97.031C96.311 24.2024 95.207 23.5544 93.575 23.5544C90.527 23.5544 88.415 26.0984 88.415 29.6984C88.415 33.4664 90.983 35.5304 93.743 35.5304C95.231 35.5304 96.167 34.9304 96.887 34.1144H96.983V35.3384C96.983 36.8264 96.287 37.6904 94.631 37.6904C93.335 37.6904 92.687 37.1384 92.471 36.4904H88.679C89.063 39.0584 91.295 40.4504 94.679 40.4504ZM94.655 32.6264C93.191 32.6264 92.231 31.4264 92.231 29.5784C92.231 27.7064 93.191 26.5064 94.655 26.5064C96.287 26.5064 97.151 27.8984 97.151 29.5544C97.151 31.2824 96.359 32.6264 94.655 32.6264Z" fill="#3C2B1F"/>
<path d="M108.521 33.8024C106.817 33.8024 105.929 32.3144 105.929 30.0824C105.929 27.8504 106.817 26.3384 108.521 26.3384C110.225 26.3384 111.137 27.8504 111.137 30.0824C111.137 32.3144 110.225 33.8024 108.521 33.8024ZM108.545 36.5864C112.505 36.5864 115.097 33.7784 115.097 30.0824C115.097 26.3864 112.505 23.5784 108.545 23.5784C104.609 23.5784 101.969 26.3864 101.969 30.0824C101.969 33.7784 104.609 36.5864 108.545 36.5864Z" fill="#3C2B1F"/>
<path d="M116.24 36.2025H120.152V23.9145H116.24V36.2025ZM116.24 22.2105H120.152V19.0425H116.24V22.2105Z" fill="#3C2B1F"/>
<path d="M121.849 40.2584H125.761V34.9304H125.809C126.577 35.9624 127.705 36.5864 129.289 36.5864C132.505 36.5864 134.641 34.0424 134.641 30.0584C134.641 26.3624 132.649 23.5544 129.385 23.5544C127.705 23.5544 126.505 24.2984 125.665 25.4024H125.593V23.9144H121.849V40.2584ZM128.281 33.5624C126.601 33.5624 125.641 32.1944 125.641 30.2024C125.641 28.2104 126.505 26.6984 128.209 26.6984C129.889 26.6984 130.681 28.0904 130.681 30.2024C130.681 32.2904 129.769 33.5624 128.281 33.5624Z" fill="#3C2B1F"/>
<path d="M141.01 36.5864C144.226 36.5864 146.602 35.1944 146.602 32.5064C146.602 29.3624 144.058 28.8104 141.898 28.4504C140.338 28.1624 138.946 28.0424 138.946 27.1784C138.946 26.4104 139.69 26.0504 140.65 26.0504C141.73 26.0504 142.474 26.3864 142.618 27.4904H146.218C146.026 25.0664 144.154 23.5544 140.674 23.5544C137.77 23.5544 135.37 24.8984 135.37 27.4904C135.37 30.3704 137.65 30.9464 139.786 31.3064C141.418 31.5944 142.906 31.7144 142.906 32.8184C142.906 33.6104 142.162 34.0424 140.986 34.0424C139.69 34.0424 138.874 33.4424 138.73 32.2184H135.034C135.154 34.9304 137.41 36.5864 141.01 36.5864Z" fill="#3C2B1F"/>
<path d="M151.916 36.5623C153.62 36.5623 154.7 35.8903 155.588 34.6903H155.66V36.2023H159.404V23.9143H155.492V30.7783C155.492 32.2423 154.676 33.2503 153.332 33.2503C152.084 33.2503 151.484 32.5063 151.484 31.1623V23.9143H147.596V31.9783C147.596 34.7143 149.084 36.5623 151.916 36.5623Z" fill="#3C2B1F"/>
<path d="M161.106 36.2024H165.018V29.3144C165.018 27.8504 165.738 26.8184 166.962 26.8184C168.138 26.8184 168.69 27.5864 168.69 28.9064V36.2024H172.602V29.3144C172.602 27.8504 173.298 26.8184 174.546 26.8184C175.722 26.8184 176.274 27.5864 176.274 28.9064V36.2024H180.186V28.2104C180.186 25.4504 178.794 23.5544 176.01 23.5544C174.426 23.5544 173.106 24.2264 172.146 25.7144H172.098C171.474 24.3944 170.25 23.5544 168.642 23.5544C166.866 23.5544 165.69 24.3944 164.922 25.6664H164.85V23.9144H161.106V36.2024Z" fill="#3C2B1F"/>
<path d="M38.3479 9.22695L34.4149 8.1731L31.1005 20.5427L28.1082 9.37533L24.1751 10.4292L27.4081 22.4947L19.3554 14.4421L16.4763 17.3213L25.309 26.1541L14.3092 23.2067L13.2554 27.1397L25.274 30.3601C25.1364 29.7666 25.0636 29.1482 25.0636 28.5128C25.0636 24.0152 28.7096 20.3692 33.2072 20.3692C37.7048 20.3692 41.3508 24.0152 41.3508 28.5128C41.3508 29.1441 41.2789 29.7587 41.143 30.3487L52.0657 33.2754L53.1195 29.3424L41.0531 26.1092L52.0536 23.1616L50.9997 19.2286L38.9338 22.4616L46.9864 14.409L44.1072 11.5298L35.397 20.2401L38.3479 9.22695Z" fill="#F97316"/>
<path d="M41.1323 30.3943C40.7951 31.8199 40.0832 33.1006 39.1064 34.1267L47.0194 42.0398L49.8986 39.1606L41.1323 30.3943Z" fill="#F97316"/>
<path d="M39.0264 34.2097C38.0378 35.2194 36.7885 35.9729 35.3875 36.3612L38.2669 47.1072L42.1999 46.0533L39.0264 34.2097Z" fill="#F97316"/>
<path d="M35.2406 36.4003C34.5906 36.5674 33.9093 36.6562 33.2072 36.6562C32.455 36.6562 31.7266 36.5542 31.0351 36.3633L28.1531 47.1191L32.0861 48.1729L35.2406 36.4003Z" fill="#F97316"/>
<path d="M30.896 36.3237C29.5164 35.9161 28.2893 35.153 27.3209 34.1404L19.3884 42.0729L22.2676 44.9521L30.896 36.3237Z" fill="#F97316"/>
<path d="M27.2547 34.0702C26.3029 33.0512 25.6096 31.7876 25.2796 30.384L14.3213 33.3203L15.3751 37.2533L27.2547 34.0702Z" fill="#F97316"/>
</g>
<defs>
<clipPath id="clip0_568_886">
<rect width="168" height="41" fill="white" transform="translate(12.938 7.25)"/>
</clipPath>
</defs>
</svg>
