<svg width="179" height="57" viewBox="0 0 179 57" fill="none" xmlns="http://www.w3.org/2000/svg">
<g clip-path="url(#clip0_568_1151)">
<path d="M36.0906 35.9445H44.0857L24.2802 16.1389H16.285L36.0906 35.9445Z" fill="#7476ED"/>
<path d="M28.3877 16.1389L47.4799 35.2311V16.1389H42.3132V22.1667L36.2854 16.1389L28.3877 16.1389Z" fill="#E56F8C"/>
<path d="M12.938 16.802V35.9445H18.1047V29.9167L24.1324 35.9445H32.0805L12.938 16.802Z" fill="#64C2DB"/>
<path d="M59.9478 32.9665H64.5771V35.6945H56.4138V21.1865H59.9478V32.9665Z" fill="#3A3B7B"/>
<path d="M70.8921 35.8598C69.7623 35.8598 68.7427 35.6187 67.8334 35.1364C66.9378 34.6542 66.2283 33.9653 65.7047 33.0698C65.195 32.1742 64.9401 31.1271 64.9401 29.9284C64.9401 28.7436 65.2018 27.7033 65.7254 26.8078C66.249 25.8984 66.9654 25.2026 67.8747 24.7204C68.7841 24.2382 69.8036 23.9971 70.9334 23.9971C72.0632 23.9971 73.0827 24.2382 73.9921 24.7204C74.9014 25.2026 75.6178 25.8984 76.1414 26.8078C76.665 27.7033 76.9267 28.7436 76.9267 29.9284C76.9267 31.1133 76.6581 32.1604 76.1207 33.0698C75.5972 33.9653 74.8738 34.6542 73.9507 35.1364C73.0414 35.6187 72.0218 35.8598 70.8921 35.8598ZM70.8921 32.8011C71.5672 32.8011 72.139 32.5531 72.6074 32.0571C73.0896 31.5611 73.3307 30.8516 73.3307 29.9284C73.3307 29.0053 73.0965 28.2958 72.6281 27.7998C72.1734 27.3038 71.6085 27.0558 70.9334 27.0558C70.2445 27.0558 69.6727 27.3038 69.2181 27.7998C68.7634 28.282 68.5361 28.9916 68.5361 29.9284C68.5361 30.8516 68.7565 31.5611 69.1974 32.0571C69.6521 32.5531 70.217 32.8011 70.8921 32.8011Z" fill="#3A3B7B"/>
<path d="M82.5629 23.9971C83.3758 23.9971 84.0854 24.1624 84.6916 24.4931C85.3116 24.8237 85.7869 25.2578 86.1176 25.7951V24.1624H89.6516V35.6738C89.6516 36.7347 89.438 37.6922 89.0109 38.5464C88.5976 39.4144 87.9569 40.1033 87.0889 40.6131C86.2347 41.1229 85.1669 41.3778 83.8856 41.3778C82.1771 41.3778 80.7925 40.9713 79.7316 40.1584C78.6707 39.3593 78.0645 38.2709 77.9129 36.8931H81.4056C81.5158 37.334 81.7776 37.6784 82.1909 37.9264C82.6043 38.1882 83.114 38.3191 83.7203 38.3191C84.4505 38.3191 85.0291 38.1056 85.4563 37.6784C85.8971 37.2651 86.1176 36.5969 86.1176 35.6738V34.0411C85.7731 34.5784 85.2978 35.0193 84.6916 35.3638C84.0854 35.6944 83.3758 35.8598 82.5629 35.8598C81.6123 35.8598 80.7511 35.6187 79.9796 35.1364C79.208 34.6404 78.5949 33.9447 78.1403 33.0491C77.6994 32.1398 77.4789 31.0927 77.4789 29.9078C77.4789 28.7229 77.6994 27.6827 78.1403 26.7871C78.5949 25.8916 79.208 25.2026 79.9796 24.7204C80.7511 24.2382 81.6123 23.9971 82.5629 23.9971ZM86.1176 29.9284C86.1176 29.0467 85.8696 28.3509 85.3736 27.8411C84.8914 27.3313 84.2989 27.0764 83.5963 27.0764C82.8936 27.0764 82.2943 27.3313 81.7983 27.8411C81.316 28.3371 81.0749 29.026 81.0749 29.9078C81.0749 30.7896 81.316 31.4922 81.7983 32.0158C82.2943 32.5256 82.8936 32.7804 83.5963 32.7804C84.2989 32.7804 84.8914 32.5256 85.3736 32.0158C85.8696 31.506 86.1176 30.8102 86.1176 29.9284Z" fill="#3A3B7B"/>
<path d="M96.8376 35.8598C95.7078 35.8598 94.6883 35.6187 93.7789 35.1364C92.8834 34.6542 92.1738 33.9653 91.6503 33.0698C91.1405 32.1742 90.8856 31.1271 90.8856 29.9284C90.8856 28.7436 91.1474 27.7033 91.6709 26.8078C92.1945 25.8984 92.9109 25.2026 93.8203 24.7204C94.7296 24.2382 95.7492 23.9971 96.8789 23.9971C98.0087 23.9971 99.0283 24.2382 99.9376 24.7204C100.847 25.2026 101.563 25.8984 102.087 26.8078C102.611 27.7033 102.872 28.7436 102.872 29.9284C102.872 31.1133 102.604 32.1604 102.066 33.0698C101.543 33.9653 100.819 34.6542 99.8963 35.1364C98.9869 35.6187 97.9674 35.8598 96.8376 35.8598ZM96.8376 32.8011C97.5127 32.8011 98.0845 32.5531 98.5529 32.0571C99.0352 31.5611 99.2763 30.8516 99.2763 29.9284C99.2763 29.0053 99.0421 28.2958 98.5736 27.7998C98.1189 27.3038 97.5541 27.0558 96.8789 27.0558C96.1901 27.0558 95.6183 27.3038 95.1636 27.7998C94.7089 28.282 94.4816 28.9916 94.4816 29.9284C94.4816 30.8516 94.7021 31.5611 95.1429 32.0571C95.5976 32.5531 96.1625 32.8011 96.8376 32.8011Z" fill="#3A3B7B"/>
<path d="M105.905 22.9637C105.285 22.9637 104.775 22.7846 104.375 22.4264C103.989 22.0544 103.797 21.5997 103.797 21.0624C103.797 20.5113 103.989 20.0566 104.375 19.6984C104.775 19.3264 105.285 19.1404 105.905 19.1404C106.511 19.1404 107.007 19.3264 107.393 19.6984C107.792 20.0566 107.992 20.5113 107.992 21.0624C107.992 21.5997 107.792 22.0544 107.393 22.4264C107.007 22.7846 106.511 22.9637 105.905 22.9637ZM107.661 24.1624V35.6943H104.127V24.1624H107.661Z" fill="#3A3B7B"/>
<path d="M113.136 25.7951C113.481 25.2578 113.956 24.8237 114.562 24.4931C115.168 24.1624 115.878 23.9971 116.691 23.9971C117.642 23.9971 118.503 24.2382 119.274 24.7204C120.046 25.2026 120.652 25.8916 121.093 26.7871C121.548 27.6827 121.775 28.7229 121.775 29.9078C121.775 31.0927 121.548 32.1398 121.093 33.0491C120.652 33.9447 120.046 34.6404 119.274 35.1364C118.503 35.6187 117.642 35.8598 116.691 35.8598C115.892 35.8598 115.182 35.6944 114.562 35.3638C113.956 35.0331 113.481 34.606 113.136 34.0824V41.1918H109.602V24.1624H113.136V25.7951ZM118.179 29.9078C118.179 29.026 117.931 28.3371 117.435 27.8411C116.953 27.3313 116.353 27.0764 115.637 27.0764C114.934 27.0764 114.335 27.3313 113.839 27.8411C113.357 28.3509 113.116 29.0467 113.116 29.9284C113.116 30.8102 113.357 31.506 113.839 32.0158C114.335 32.5256 114.934 32.7804 115.637 32.7804C116.34 32.7804 116.939 32.5256 117.435 32.0158C117.931 31.4922 118.179 30.7896 118.179 29.9078Z" fill="#3A3B7B"/>
<path d="M127.7 35.8598C126.694 35.8598 125.799 35.6876 125.014 35.3431C124.228 34.9987 123.608 34.5302 123.154 33.9378C122.699 33.3316 122.444 32.6564 122.389 31.9124H125.882C125.923 32.312 126.109 32.6358 126.44 32.8838C126.77 33.1318 127.177 33.2558 127.659 33.2558C128.1 33.2558 128.437 33.1731 128.672 33.0078C128.92 32.8287 129.044 32.6013 129.044 32.3258C129.044 31.9951 128.871 31.754 128.527 31.6024C128.182 31.4371 127.624 31.258 126.853 31.0651C126.026 30.8722 125.337 30.6724 124.786 30.4658C124.235 30.2453 123.76 29.9078 123.36 29.4531C122.961 28.9847 122.761 28.3578 122.761 27.5724C122.761 26.9111 122.94 26.3118 123.298 25.7744C123.67 25.2233 124.208 24.7893 124.91 24.4724C125.627 24.1555 126.474 23.9971 127.452 23.9971C128.899 23.9971 130.036 24.3553 130.862 25.0717C131.703 25.7882 132.185 26.7389 132.309 27.9238H129.044C128.988 27.5242 128.809 27.2073 128.506 26.9731C128.217 26.7389 127.831 26.6218 127.349 26.6218C126.936 26.6218 126.619 26.7044 126.398 26.8698C126.178 27.0213 126.068 27.2349 126.068 27.5104C126.068 27.8411 126.24 28.0891 126.584 28.2544C126.942 28.4198 127.494 28.5851 128.238 28.7504C129.092 28.9709 129.788 29.1913 130.325 29.4118C130.862 29.6184 131.331 29.9629 131.73 30.4451C132.144 30.9136 132.357 31.5473 132.371 32.3464C132.371 33.0216 132.178 33.6278 131.792 34.1651C131.42 34.6887 130.876 35.102 130.16 35.4051C129.457 35.7082 128.637 35.8598 127.7 35.8598Z" fill="#3A3B7B"/>
<path d="M145.3 24.1624V35.6943H141.766V34.1237C141.408 34.6335 140.919 35.0468 140.299 35.3637C139.693 35.6668 139.018 35.8183 138.274 35.8183C137.392 35.8183 136.613 35.6255 135.938 35.2397C135.263 34.8401 134.74 34.2683 134.368 33.5243C133.996 32.7803 133.81 31.9055 133.81 30.8997V24.1624H137.323V30.4243C137.323 31.1959 137.523 31.7952 137.922 32.2223C138.322 32.6495 138.859 32.863 139.534 32.863C140.223 32.863 140.767 32.6495 141.167 32.2223C141.567 31.7952 141.766 31.1959 141.766 30.4243V24.1624H145.3Z" fill="#3A3B7B"/>
<path d="M161.933 24.0383C163.366 24.0383 164.503 24.4723 165.343 25.3403C166.198 26.2083 166.625 27.4139 166.625 28.957V35.6943H163.111V29.4323C163.111 28.6883 162.912 28.1166 162.512 27.717C162.126 27.3037 161.589 27.097 160.9 27.097C160.211 27.097 159.667 27.3037 159.267 27.717C158.882 28.1166 158.689 28.6883 158.689 29.4323V35.6943H155.175V29.4323C155.175 28.6883 154.976 28.1166 154.576 27.717C154.19 27.3037 153.653 27.097 152.964 27.097C152.275 27.097 151.731 27.3037 151.331 27.717C150.946 28.1166 150.753 28.6883 150.753 29.4323V35.6943H147.219V24.1623H150.753V25.609C151.111 25.1268 151.579 24.7479 152.158 24.4723C152.737 24.183 153.391 24.0383 154.121 24.0383C154.989 24.0383 155.761 24.2243 156.436 24.5963C157.125 24.9683 157.662 25.4988 158.048 26.1877C158.448 25.5539 158.992 25.0372 159.681 24.6377C160.37 24.2381 161.121 24.0383 161.933 24.0383Z" fill="#3A3B7B"/>
</g>
<defs>
<clipPath id="clip0_568_1151">
<rect width="154" height="27" fill="white" transform="translate(12.938 15.25)"/>
</clipPath>
</defs>
</svg>
