<svg width="131" height="56" viewBox="0 0 131 56" fill="none" xmlns="http://www.w3.org/2000/svg">
<path d="M34.541 28.0409C34.541 26.5442 35.419 25.5015 36.7607 25.5015C38.1025 25.5015 38.9804 26.5442 38.9804 28.0409C38.9804 29.521 38.1025 30.5804 36.7607 30.5804C35.419 30.5804 34.541 29.521 34.541 28.0409Z" fill="#152C4F"/>
<path d="M45.8883 25.4343C44.6128 25.4343 43.7515 26.4434 43.7515 27.8225C43.7515 29.2183 44.6294 30.261 45.8883 30.261C47.2797 30.261 48.2074 29.2015 48.2074 27.8225C48.2074 26.4602 47.2797 25.4343 45.8883 25.4343Z" fill="#152C4F"/>
<path d="M53.2822 28.0409C53.2822 26.5442 54.1602 25.5015 55.5019 25.5015C56.8437 25.5015 57.7216 26.5442 57.7216 28.0409C57.7216 29.521 56.8437 30.5804 55.5019 30.5804C54.1602 30.5804 53.2822 29.521 53.2822 28.0409Z" fill="#152C4F"/>
<path d="M66.7812 28.0578C66.7812 26.561 67.6757 25.5183 69.0837 25.5183C70.4917 25.5183 71.3365 26.5778 71.3365 28.0578C71.3365 29.5377 70.4917 30.5804 69.0837 30.5804C67.6757 30.5804 66.7812 29.5546 66.7812 28.0578Z" fill="#152C4F"/>
<path fill-rule="evenodd" clip-rule="evenodd" d="M65.9381 45.6357C94.0832 45.6357 116.899 37.5072 116.899 27.4803C116.899 17.4534 94.0832 9.32495 65.9381 9.32495C37.7928 9.32495 14.9766 17.4534 14.9766 27.4803C14.9766 37.5072 37.7928 45.6357 65.9381 45.6357ZM31.2667 32.2119V19.6994H29.2458V32.2119H31.2667ZM32.5036 28.0411C32.5036 30.5974 34.1932 32.4137 36.7607 32.4137C39.3283 32.4137 41.0179 30.5974 41.0179 28.0411C41.0179 25.4847 39.3283 23.6684 36.7607 23.6684C34.1932 23.6684 32.5036 25.4847 32.5036 28.0411ZM45.5406 32.0437C43.2381 32.0437 41.6975 30.2947 41.6975 27.8729C41.6975 25.4343 43.2712 23.6348 45.6068 23.6348C46.8161 23.6348 47.843 24.1562 48.34 25.0307L48.4559 23.9039H50.2449V31.7915C50.2449 34.5328 48.5554 36.2986 45.905 36.2986C43.6522 36.2986 42.0123 34.886 41.7473 32.7164H43.7847C43.9006 33.8096 44.7621 34.4319 46.0209 34.4319C47.4289 34.4319 48.2738 33.5237 48.2738 32.1614V30.7488C47.7602 31.556 46.7332 32.0437 45.5406 32.0437ZM51.245 28.0411C51.245 30.5974 52.9347 32.4137 55.5022 32.4137C58.0697 32.4137 59.7593 30.5974 59.7593 28.0411C59.7593 25.4847 58.0697 23.6684 55.5022 23.6684C52.9347 23.6684 51.245 25.4847 51.245 28.0411ZM63.1556 20.9776C63.1556 21.6671 62.609 22.2053 61.9464 22.2053C61.2672 22.2053 60.7537 21.6671 60.7537 20.9776C60.7537 20.3049 61.2672 19.7667 61.9464 19.7667C62.609 19.7667 63.1556 20.3049 63.1556 20.9776ZM62.9568 23.9039V32.2119H60.936V23.9039H62.9568ZM64.7273 36.0632H66.6985V31.0683C67.212 31.926 68.3218 32.4305 69.5477 32.4305C71.9661 32.4305 73.4072 30.547 73.3741 27.957C73.3244 25.3502 71.8501 23.6516 69.5311 23.6516C68.2887 23.6516 67.1623 24.2066 66.6654 25.1652L66.5494 23.9039H64.7273V36.0632ZM77.167 32.4305C75.2124 32.4305 73.9535 31.371 73.8872 29.7229H75.7259C75.7259 30.446 76.2394 30.8665 77.1339 30.8665C77.8794 30.8665 78.4922 30.5638 78.4922 29.9079C78.4922 29.4369 78.1609 29.1847 77.6308 29.0333L76.2063 28.6633C74.6326 28.2429 74.0197 27.3515 74.0197 26.2752C74.0197 24.6943 75.3284 23.6516 77.0842 23.6516C78.8566 23.6516 80.0658 24.6943 80.1321 26.3425H78.2935C78.2935 25.6193 77.7965 25.1821 77.0345 25.1821C76.3057 25.1821 75.8584 25.5857 75.8584 26.1575C75.8584 26.6957 76.2725 26.9143 76.8854 27.0825L78.3266 27.4356C79.6683 27.772 80.3971 28.5792 80.3971 29.7733C80.3971 31.3878 79.0885 32.4305 77.167 32.4305ZM84.5891 32.4305C85.6986 32.4305 86.7586 31.9092 87.2391 31.1356L87.372 32.2119H89.2602V23.9039H87.2391V28.2597C87.2391 29.7565 86.6759 30.5974 85.3509 30.5974C84.3241 30.5974 83.6118 30.0929 83.6118 28.3775V23.9039H81.5907V29.1006C81.5907 31.0851 82.6508 32.4305 84.5891 32.4305ZM93.0649 27.4356V32.2119H91.0438V23.9039H92.8988L92.9985 24.8457C93.479 24.1057 94.3404 23.6516 95.3008 23.6516C96.659 23.6516 97.5537 24.2571 98.001 25.2325C98.3988 24.2571 99.3761 23.6516 100.618 23.6516C102.606 23.6516 103.649 24.8626 103.649 26.7798V32.2119H101.695V27.2506C101.695 26.0734 101.066 25.4512 100.088 25.4512C99.1274 25.4512 98.3656 26.0903 98.3656 27.4525V32.2119H96.394V27.2506C96.394 26.0734 95.7651 25.4512 94.804 25.4512C93.8437 25.4512 93.0649 26.0903 93.0649 27.4356Z" fill="#152C4F"/>
</svg>
