<svg width="197" height="57" viewBox="0 0 197 57" fill="none" xmlns="http://www.w3.org/2000/svg">
<g clip-path="url(#clip0_568_1096)">
<path d="M61.9744 37.7499H73.3271V34.5172H65.4362V19.4226H61.9744V37.7499Z" fill="#23216E"/>
<path d="M80.1493 38.1319C81.5239 38.1319 82.733 37.8264 83.7766 37.2155C84.8287 36.5961 85.6475 35.7434 86.233 34.6574C86.8269 33.5628 87.1239 32.3028 87.1239 30.8774C87.1239 29.4604 86.8311 28.2089 86.2457 27.1228C85.6602 26.0283 84.8414 25.1713 83.7893 24.5519C82.7457 23.9325 81.5324 23.6228 80.1493 23.6228C78.7917 23.6228 77.5911 23.9283 76.5475 24.5392C75.5039 25.1501 74.6851 26.0028 74.0911 27.0974C73.4972 28.1834 73.2002 29.4434 73.2002 30.8774C73.2002 32.2943 73.4887 33.5501 74.0657 34.6446C74.6511 35.7307 75.4657 36.5834 76.5093 37.2028C77.553 37.8222 78.7663 38.1319 80.1493 38.1319ZM80.1493 34.8992C79.0717 34.8992 78.253 34.5386 77.693 33.8174C77.1414 33.0877 76.8657 32.1077 76.8657 30.8774C76.8657 29.681 77.1287 28.7137 77.6548 27.9755C78.1893 27.2289 79.0208 26.8555 80.1493 26.8555C81.2439 26.8555 82.0669 27.2204 82.6184 27.9501C83.1784 28.6798 83.4584 29.6555 83.4584 30.8774C83.4584 32.0568 83.1827 33.024 82.6311 33.7792C82.0881 34.5258 81.2608 34.8992 80.1493 34.8992Z" fill="#23216E"/>
<path d="M93.9699 38.1319C94.6148 38.1319 95.2087 38.0555 95.7518 37.9028C96.3033 37.7501 96.8039 37.5337 97.2536 37.2537V38.641C97.2706 39.1501 97.139 39.5743 96.859 39.9137C96.5875 40.2616 96.2227 40.5204 95.7645 40.6901C95.3063 40.8683 94.8184 40.9574 94.3009 40.9574C93.8172 40.9574 93.3675 40.8513 92.9518 40.6392C92.5445 40.4271 92.2305 40.1174 92.0099 39.7101L88.8027 41.2628C89.3287 42.1537 90.0796 42.8707 91.0554 43.4137C92.0312 43.9652 93.1045 44.241 94.2754 44.241C95.2851 44.241 96.2227 44.1052 97.0881 43.8337C97.9536 43.5707 98.6833 43.1677 99.2772 42.6246C99.8796 42.0816 100.291 41.3901 100.512 40.5501C100.588 40.2531 100.639 39.9519 100.665 39.6464C100.698 39.3495 100.715 39.0313 100.715 38.6919V24.0046H97.6863V24.7683C97.2196 24.4034 96.6893 24.1234 96.0954 23.9283C95.5099 23.7246 94.8609 23.6228 94.1481 23.6228C92.833 23.6228 91.6875 23.9368 90.7118 24.5646C89.736 25.1925 88.9766 26.0537 88.4336 27.1483C87.899 28.2343 87.6318 29.4774 87.6318 30.8774C87.6318 32.2519 87.8948 33.4864 88.4209 34.581C88.9554 35.6755 89.6978 36.541 90.6481 37.1774C91.5984 37.8137 92.7057 38.1319 93.9699 38.1319ZM94.5299 35.0519C93.7833 35.0519 93.1724 34.8652 92.6972 34.4919C92.2221 34.1186 91.8699 33.618 91.6409 32.9901C91.4118 32.3537 91.2972 31.6495 91.2972 30.8774C91.2972 30.1137 91.416 29.418 91.6536 28.7901C91.8912 28.1537 92.256 27.6489 92.7481 27.2755C93.2487 26.8937 93.8851 26.7028 94.6572 26.7028C95.7433 26.7028 96.5196 27.0889 96.9863 27.861C97.453 28.6246 97.6863 29.6301 97.6863 30.8774C97.6863 32.1246 97.4487 33.1343 96.9736 33.9064C96.5069 34.6701 95.6924 35.0519 94.5299 35.0519Z" fill="#23216E"/>
<path d="M108.938 38.1319C110.312 38.1319 111.522 37.8264 112.565 37.2155C113.617 36.5961 114.436 35.7434 115.021 34.6574C115.615 33.5628 115.912 32.3028 115.912 30.8774C115.912 29.4604 115.62 28.2089 115.034 27.1228C114.449 26.0283 113.63 25.1713 112.578 24.5519C111.534 23.9325 110.321 23.6228 108.938 23.6228C107.58 23.6228 106.38 23.9283 105.336 24.5392C104.292 25.1501 103.474 26.0028 102.88 27.0974C102.286 28.1834 101.989 29.4434 101.989 30.8774C101.989 32.2943 102.277 33.5501 102.854 34.6446C103.44 35.7307 104.254 36.5834 105.298 37.2028C106.342 37.8222 107.555 38.1319 108.938 38.1319ZM108.938 34.8992C107.86 34.8992 107.041 34.5386 106.481 33.8174C105.93 33.0877 105.654 32.1077 105.654 30.8774C105.654 29.681 105.917 28.7137 106.443 27.9755C106.978 27.2289 107.809 26.8555 108.938 26.8555C110.032 26.8555 110.855 27.2204 111.407 27.9501C111.967 28.6798 112.247 29.6555 112.247 30.8774C112.247 32.0568 111.971 33.024 111.42 33.7792C110.877 34.5258 110.049 34.8992 108.938 34.8992Z" fill="#23216E"/>
<path d="M117.438 22.0955H120.9V19.041H117.438V22.0955ZM117.438 37.7501H120.9V24.0046H117.438V37.7501Z" fill="#23216E"/>
<path d="M123.163 43.8592H126.65V37.2537C127.1 37.5337 127.596 37.7501 128.139 37.9028C128.691 38.0555 129.289 38.1319 129.934 38.1319C131.198 38.1319 132.306 37.8137 133.256 37.1774C134.206 36.541 134.944 35.6755 135.47 34.581C136.005 33.4864 136.272 32.2519 136.272 30.8774C136.272 29.4774 136.001 28.2343 135.458 27.1483C134.923 26.0537 134.168 25.1925 133.192 24.5646C132.216 23.9368 131.071 23.6228 129.756 23.6228C129.043 23.6228 128.39 23.7246 127.796 23.9283C127.21 24.1234 126.684 24.4034 126.218 24.7683V24.0046H123.163V43.8592ZM129.374 35.0519C128.22 35.0519 127.406 34.6701 126.93 33.9064C126.455 33.1343 126.218 32.1246 126.218 30.8774C126.218 29.6301 126.451 28.6246 126.918 27.861C127.393 27.0889 128.169 26.7028 129.247 26.7028C130.019 26.7028 130.651 26.8937 131.143 27.2755C131.644 27.6489 132.013 28.1537 132.25 28.7901C132.488 29.418 132.607 30.1137 132.607 30.8774C132.607 31.6495 132.492 32.3537 132.263 32.9901C132.034 33.618 131.682 34.1186 131.207 34.4919C130.732 34.8652 130.121 35.0519 129.374 35.0519Z" fill="#23216E"/>
<path d="M142.544 38.1319C144.342 38.1319 145.751 37.7289 146.769 36.9228C147.787 36.1167 148.296 35.0095 148.296 33.601C148.296 32.5319 147.965 31.6877 147.304 31.0683C146.65 30.4489 145.539 29.9355 143.969 29.5283C142.9 29.2567 142.102 29.0361 141.576 28.8664C141.059 28.6968 140.715 28.5313 140.545 28.3701C140.384 28.2089 140.304 28.0095 140.304 27.7719C140.304 27.3731 140.494 27.0677 140.876 26.8555C141.267 26.6434 141.78 26.5586 142.416 26.601C143.765 26.7028 144.504 27.2798 144.631 28.3319L148.169 27.6955C147.991 26.4483 147.38 25.4598 146.336 24.7301C145.293 23.9919 143.961 23.6228 142.34 23.6228C140.677 23.6228 139.349 24.0131 138.356 24.7937C137.364 25.5743 136.867 26.6264 136.867 27.9501C136.867 29.0022 137.211 29.8337 137.898 30.4446C138.585 31.0471 139.769 31.5646 141.449 31.9974C142.442 32.2604 143.171 32.4725 143.638 32.6337C144.113 32.7949 144.419 32.9604 144.554 33.1301C144.69 33.2913 144.758 33.5077 144.758 33.7792C144.758 34.2119 144.588 34.5513 144.249 34.7974C143.91 35.0349 143.426 35.1537 142.798 35.1537C142.034 35.1537 141.402 34.9713 140.902 34.6064C140.41 34.2416 140.091 33.7368 139.947 33.0919L136.409 33.6264C136.638 35.0604 137.283 36.1719 138.344 36.961C139.413 37.7416 140.813 38.1319 142.544 38.1319Z" fill="#23216E"/>
<path d="M154.682 38.1572C155.675 38.1572 156.54 37.9917 157.279 37.6608C158.017 37.3299 158.636 36.8887 159.137 36.3372V37.7499H162.191V24.0044H158.704V30.979C158.704 31.8275 158.606 32.5147 158.411 33.0408C158.225 33.5584 157.983 33.9529 157.686 34.2244C157.389 34.4875 157.071 34.6656 156.731 34.759C156.392 34.8523 156.074 34.899 155.777 34.899C155.039 34.899 154.466 34.7335 154.059 34.4026C153.66 34.0717 153.371 33.6602 153.193 33.1681C153.015 32.6759 152.909 32.1881 152.875 31.7044C152.841 31.2123 152.824 30.8093 152.824 30.4953V24.0044H149.311V31.7172C149.311 31.9462 149.328 32.3111 149.362 32.8117C149.396 33.3123 149.494 33.8681 149.655 34.479C149.816 35.0814 150.083 35.6626 150.457 36.2226C150.839 36.7826 151.369 37.245 152.048 37.6099C152.726 37.9747 153.605 38.1572 154.682 38.1572Z" fill="#23216E"/>
<path d="M164.196 37.75H167.683V29.4263C167.683 28.6373 167.899 27.9967 168.332 27.5045C168.773 27.0039 169.354 26.7536 170.076 26.7536C170.831 26.7536 171.421 27.0082 171.845 27.5173C172.277 28.0179 172.494 28.7221 172.494 29.63V37.75H175.956V29.4263C175.956 28.6373 176.172 27.9967 176.605 27.5045C177.046 27.0039 177.627 26.7536 178.348 26.7536C179.104 26.7536 179.693 27.0082 180.117 27.5173C180.55 28.0179 180.767 28.7221 180.767 29.63V37.75H184.228V28.7136C184.228 27.2118 183.825 25.9985 183.019 25.0736C182.222 24.1403 181.038 23.6736 179.468 23.6736C178.586 23.6736 177.776 23.8645 177.037 24.2463C176.299 24.6282 175.71 25.15 175.268 25.8118C174.912 25.167 174.403 24.6494 173.741 24.2591C173.079 23.8688 172.256 23.6736 171.272 23.6736C170.44 23.6736 169.677 23.8391 168.981 24.17C168.285 24.4924 167.708 24.9379 167.25 25.5063V24.0045H164.196V37.75Z" fill="#23216E"/>
<path d="M32.938 8.75C21.8923 8.75 12.938 17.7043 12.938 28.75C23.9837 28.75 32.938 19.7957 32.938 8.75Z" fill="#45D2B0"/>
<path d="M32.938 48.75C43.9837 48.75 52.938 39.7957 52.938 28.75C41.8923 28.75 32.938 37.7043 32.938 48.75Z" fill="#45D2B0"/>
<path d="M32.938 8.75C43.9837 8.75 52.938 17.7043 52.938 28.75C41.8923 28.75 32.938 19.7957 32.938 8.75Z" fill="#23216E"/>
<path d="M32.938 48.75C21.8923 48.75 12.938 39.7957 12.938 28.75C23.9837 28.75 32.938 37.7043 32.938 48.75Z" fill="#23216E"/>
</g>
<defs>
<clipPath id="clip0_568_1096">
<rect width="172" height="40" fill="white" transform="translate(12.938 8.75)"/>
</clipPath>
</defs>
</svg>
