<svg width="202" height="57" viewBox="0 0 202 57" fill="none" xmlns="http://www.w3.org/2000/svg">
<path d="M39.86 39.8447L16.85 24.1697C14.5182 22.5813 15.3108 19.274 18.2185 18.4963L42.674 11.9413C43.1921 11.7567 43.7472 11.6968 44.2934 11.7665C44.8396 11.8362 45.3611 12.0336 45.8146 12.3422C46.268 12.6509 46.6405 13.0619 46.9008 13.5411C47.1612 14.0204 47.3022 14.554 47.3119 15.0978L45.8626 37.3266C45.6907 39.9651 42.1917 41.4331 39.86 39.8447Z" fill="#E9327C"/>
<path d="M32.5619 43.7145L19.006 17.5338C18.6961 16.9348 18.5598 16.263 18.6119 15.5924C18.6641 14.9218 18.9029 14.2784 19.3018 13.7333C19.7007 13.1882 20.2443 12.7624 20.8726 12.503C21.501 12.2436 22.1897 12.1606 22.8628 12.2632L47.9853 16.0923C48.5636 16.1805 49.1126 16.403 49.587 16.7415C50.0613 17.08 50.4475 17.5249 50.7139 18.0396C50.9802 18.5542 51.1191 19.1239 51.1189 19.7019C51.1188 20.2799 50.9798 20.8496 50.7134 21.3642L39.1404 43.7157C38.8296 44.313 38.3581 44.8141 37.7778 45.1638C37.1974 45.5136 36.5307 45.6986 35.8508 45.6984C35.1709 45.6983 34.5042 45.5131 33.9239 45.1631C33.3437 44.813 32.8724 44.3118 32.5619 43.7145Z" fill="#1DACE3"/>
<path d="M47.2504 15.9794L34.727 14.0706L19.3511 18.1936L25.4884 30.0508L39.86 39.8447C40.177 40.0584 40.5258 40.222 40.8938 40.3298L46.3526 29.7873L47.2504 15.9794Z" fill="#001A49"/>
<path d="M110.684 19.0397C110.684 18.58 110.822 18.1306 111.081 17.7483C111.34 17.3661 111.707 17.0682 112.137 16.8923C112.567 16.7163 113.04 16.6703 113.497 16.76C113.954 16.8497 114.373 17.0711 114.702 17.3961C115.031 17.7212 115.255 18.1353 115.346 18.5862C115.437 19.0371 115.39 19.5044 115.212 19.9292C115.034 20.3539 114.732 20.7169 114.346 20.9723C113.958 21.2277 113.503 21.364 113.038 21.364C112.416 21.3577 111.821 21.1108 111.381 20.6763C110.941 20.2417 110.691 19.6542 110.684 19.0397ZM111.077 22.5002H115V35.4126H111.077V22.5002Z" fill="#001A49"/>
<path d="M131.943 28.9565C131.989 29.81 131.863 30.664 131.573 31.4693C131.284 32.2746 130.835 33.0154 130.255 33.6492C129.674 34.2827 128.972 34.7968 128.19 35.1617C127.407 35.5265 126.559 35.735 125.695 35.775C124.967 35.814 124.241 35.6929 123.567 35.4205C122.893 35.1479 122.289 34.7308 121.798 34.1993V40.5782H117.876V22.5003H121.798V23.7138C122.289 23.1824 122.893 22.7656 123.567 22.4932C124.241 22.221 124.968 22.1001 125.695 22.1393C126.559 22.1792 127.407 22.3875 128.189 22.7522C128.972 23.117 129.674 23.6308 130.255 24.2644C130.835 24.898 131.284 25.6386 131.573 26.444C131.863 27.2492 131.989 28.1031 131.943 28.9565ZM128.021 28.9565C128.006 28.352 127.81 27.7654 127.459 27.27C127.108 26.7747 126.616 26.3927 126.046 26.1719C125.476 25.951 124.853 25.9012 124.254 26.0285C123.655 26.1558 123.108 26.4546 122.681 26.8876C122.253 27.3205 121.964 27.8685 121.851 28.4627C121.737 29.0569 121.803 29.6711 122.041 30.2283C122.279 30.7855 122.678 31.261 123.188 31.5954C123.699 31.9298 124.297 32.108 124.91 32.108C125.33 32.1267 125.75 32.0573 126.141 31.9046C126.533 31.7517 126.887 31.5187 127.181 31.2212C127.475 30.9235 127.701 30.568 127.846 30.1776C127.991 29.7873 128.051 29.3711 128.021 28.9565Z" fill="#001A49"/>
<path d="M144.05 31.5366C144.05 34.507 141.435 35.7724 138.611 35.7724C137.47 35.8743 136.324 35.6358 135.322 35.0877C134.32 34.5398 133.507 33.7073 132.989 32.6982L136.388 30.788C136.526 31.2546 136.822 31.66 137.227 31.9367C137.631 32.2133 138.12 32.3444 138.611 32.308C139.552 32.308 140.022 32.023 140.022 31.5075C140.022 30.0863 133.589 30.8362 133.589 26.3674C133.589 23.5528 135.994 22.1329 138.72 22.1329C139.742 22.1012 140.754 22.3408 141.65 22.8267C142.548 23.3126 143.296 24.027 143.818 24.8955L140.472 26.6777C140.325 26.3387 140.081 26.0498 139.77 25.8472C139.458 25.6444 139.093 25.5368 138.72 25.5377C138.04 25.5377 137.622 25.791 137.622 26.261C137.618 27.743 144.05 26.7613 144.05 31.5366Z" fill="#001A49"/>
<path d="M158.386 22.5002V35.4126H154.464V34.1966C154.011 34.7323 153.435 35.1544 152.785 35.4284C152.136 35.7022 151.429 35.8201 150.724 35.7724C148.083 35.7724 145.834 33.9129 145.834 30.4258V22.5002H149.756V29.8608C149.723 30.1686 149.759 30.4799 149.86 30.7727C149.962 31.0656 150.126 31.3332 150.343 31.5569C150.559 31.7806 150.822 31.9549 151.113 32.0678C151.406 32.1807 151.719 32.2294 152.032 32.2105C153.47 32.2105 154.469 31.3846 154.469 29.5505V22.5002H158.386Z" fill="#001A49"/>
<path d="M180.867 27.4833V35.4127H176.945V27.8203C176.945 26.5295 176.317 25.7024 175.062 25.7024C173.754 25.7024 173.023 26.6068 173.023 28.1306V35.4127H169.099V27.8203C169.099 26.5295 168.472 25.7024 167.217 25.7024C165.91 25.7024 165.177 26.6068 165.177 28.1306V35.4127H161.255V22.5003H165.184V23.6833C165.59 23.1565 166.124 22.7388 166.736 22.4681C167.347 22.1975 168.019 22.0827 168.688 22.1342C169.359 22.1018 170.028 22.2417 170.628 22.5403C171.229 22.8389 171.74 23.2859 172.114 23.8379C172.548 23.2604 173.124 22.8011 173.787 22.5032C174.45 22.2052 175.18 22.0783 175.906 22.1342C178.908 22.1393 180.867 24.2559 180.867 27.4833Z" fill="#001A49"/>
<path d="M184.191 22.4206C185.799 22.4206 187.102 21.1333 187.102 19.5453C187.102 17.9573 185.799 16.6699 184.191 16.6699C182.582 16.6699 181.279 17.9573 181.279 19.5453C181.279 21.1333 182.582 22.4206 184.191 22.4206Z" fill="#001A49"/>
<path d="M57.1328 16.5608H61.0563V35.4127H57.1328V16.5608ZM63.2778 28.9565C63.2736 27.6026 63.676 26.2781 64.4344 25.1505C65.1929 24.0228 66.2731 23.1427 67.5382 22.6217C68.8035 22.1007 70.1967 21.9622 71.5418 22.2237C72.8867 22.4852 74.1229 23.1349 75.0937 24.0907C76.0645 25.0464 76.7263 26.265 76.9953 27.5925C77.2643 28.92 77.1284 30.2963 76.6049 31.5474C76.0813 32.7985 75.1936 33.8681 74.0541 34.6206C72.9147 35.3731 71.5747 35.7749 70.2039 35.7749C69.2935 35.7844 68.3903 35.6148 67.547 35.2759C66.7038 34.9369 65.9373 34.4353 65.2925 33.8006C64.6476 33.1657 64.1374 32.4104 63.7915 31.5787C63.4456 30.747 63.271 29.8555 63.2778 28.9565ZM73.2154 28.9565C73.2 28.3724 73.0107 27.8059 72.671 27.3278C72.3313 26.8496 71.8564 26.4809 71.3056 26.2678C70.7548 26.0549 70.1527 26.0069 69.5745 26.1301C68.9963 26.2533 68.4677 26.5422 68.0549 26.9604C67.642 27.3788 67.3633 27.908 67.2534 28.482C67.1436 29.056 67.2074 29.6492 67.4373 30.1875C67.667 30.7257 68.0524 31.1852 68.5452 31.5083C69.038 31.8314 69.6163 32.0038 70.2077 32.0041C70.6128 32.0155 71.0159 31.9438 71.3914 31.7937C71.7671 31.6437 72.1071 31.4183 72.3902 31.132C72.6733 30.8457 72.8933 30.5046 73.0361 30.1301C73.179 29.7556 73.2419 29.356 73.2206 28.9565H73.2154ZM92.7739 22.4965V34.7641C92.7739 39.1025 89.3481 40.9353 85.8709 40.9353C84.6471 41.0265 83.4213 40.7832 82.328 40.2319C81.2348 39.6808 80.3163 38.8429 79.6734 37.8105L83.0197 35.8991C83.2898 36.4379 83.7201 36.8825 84.2531 37.1734C84.786 37.4643 85.396 37.5875 86.0018 37.5267C86.3885 37.5788 86.782 37.5446 87.1534 37.4264C87.5249 37.3082 87.8646 37.1094 88.1478 36.8441C88.4309 36.579 88.6501 36.2545 88.7893 35.8944C88.9284 35.5344 88.984 35.148 88.9518 34.7641V33.576C88.4923 34.1308 87.9076 34.5716 87.2446 34.863C86.5815 35.1545 85.8585 35.2885 85.1334 35.2543C83.4077 35.2012 81.7704 34.487 80.5686 33.2626C79.3668 32.0383 78.6947 30.4001 78.6947 28.6949C78.6947 26.9896 79.3668 25.3514 80.5686 24.127C81.7704 22.9027 83.4077 22.1884 85.1334 22.1354C85.8585 22.1011 86.5815 22.2351 87.2446 22.5266C87.9076 22.8181 88.4923 23.2589 88.9518 23.8138V22.4965H92.7739ZM88.9569 28.6943C88.9828 28.0705 88.8191 27.4536 88.4871 26.9224C88.155 26.3913 87.6697 25.9704 87.0934 25.7139C86.5172 25.4574 85.8765 25.377 85.2536 25.483C84.6308 25.589 84.0543 25.8766 83.5982 26.3087C83.1421 26.7409 82.8273 27.2979 82.6944 27.908C82.5614 28.5183 82.6163 29.1538 82.8521 29.733C83.0877 30.3122 83.4935 30.8084 84.0171 31.158C84.5406 31.5076 85.1582 31.6946 85.7901 31.695C86.2022 31.7235 86.6159 31.6666 87.0044 31.5279C87.3929 31.3892 87.7477 31.1717 88.046 30.8894C88.3442 30.6072 88.5794 30.2663 88.7363 29.889C88.8932 29.5115 88.9683 29.1058 88.9569 28.6981V28.6943ZM94.9954 28.9476C94.9912 27.5938 95.3937 26.2692 96.1521 25.1416C96.9105 24.0139 97.9907 23.1338 99.2559 22.6129C100.521 22.0919 101.914 21.9533 103.259 22.2148C104.604 22.4763 105.84 23.126 106.811 24.0818C107.782 25.0375 108.444 26.2562 108.713 27.5836C108.982 28.9111 108.846 30.2875 108.322 31.5386C107.799 32.7896 106.911 33.8592 105.772 34.6117C104.632 35.3643 103.292 35.7661 101.922 35.7661C101.012 35.7756 100.109 35.6062 99.2668 35.2677C98.4241 34.9294 97.658 34.4286 97.0133 33.7947C96.3686 33.1609 95.8582 32.4067 95.5118 31.5759C95.1652 30.7452 94.9898 29.8548 94.9954 28.9565V28.9476ZM104.933 28.9476C104.918 28.3633 104.729 27.7963 104.389 27.3176C104.049 26.8391 103.574 26.4701 103.023 26.2568C102.472 26.0435 101.869 25.9955 101.291 26.1187C100.712 26.2419 100.183 26.5309 99.7703 26.9494C99.3572 27.3681 99.0782 27.8976 98.9684 28.472C98.8585 29.0463 98.9226 29.6399 99.1526 30.1784C99.3827 30.717 99.7684 31.1765 100.262 31.4998C100.755 31.8229 101.334 31.9952 101.925 31.9952C102.329 32.0057 102.731 31.9339 103.105 31.784C103.48 31.6342 103.819 31.4095 104.101 31.1242C104.383 30.839 104.603 30.4991 104.746 30.1261C104.889 29.7531 104.953 29.3548 104.933 28.9565V28.9476Z" fill="#001A49"/>
</svg>
