<svg width="180" height="56" viewBox="0 0 180 56" fill="none" xmlns="http://www.w3.org/2000/svg">
<g clip-path="url(#clip0_568_903)">
<path d="M64.5201 18.0339H60.938V34.1972H70.8544V31.0301H64.5201V18.0339Z" fill="#243A5A"/>
<path d="M71.1965 28.7149C71.1965 32.166 73.5118 34.4594 77.0065 34.4594C80.4794 34.4594 82.7947 32.166 82.7947 28.7149C82.7947 25.2638 80.4794 22.9485 77.0065 22.9485C73.5118 22.9485 71.1965 25.2638 71.1965 28.7149ZM74.582 28.693C74.582 27.0549 75.5431 25.9628 77.0065 25.9628C78.4481 25.9628 79.4092 27.0549 79.4092 28.693C79.4092 30.3531 78.4481 31.4452 77.0065 31.4452C75.5431 31.4452 74.582 30.3531 74.582 28.693Z" fill="#243A5A"/>
<path d="M83.3357 28.5401C83.3357 31.8382 85.4763 34.0661 88.5123 34.0661C89.9758 34.0661 91.2426 33.5419 91.876 32.6901V34.1972C91.876 35.7043 90.9368 36.709 89.2768 36.709C87.7915 36.709 86.7649 36.0101 86.6994 34.7651H83.292C83.5978 37.7575 85.9131 39.7669 89.0802 39.7669C92.8152 39.7669 95.1742 37.3425 95.1742 33.4982V23.2761H92.1381L91.9634 24.39C91.3518 23.4945 90.0631 22.9048 88.5779 22.9048C85.5199 22.9048 83.3357 25.1982 83.3357 28.5401ZM86.7431 28.4527C86.7431 26.88 87.7915 25.8316 89.1239 25.8316C90.6747 25.8316 91.8105 26.8582 91.8105 28.4527C91.8105 30.0472 90.6965 31.1393 89.1457 31.1393C87.8134 31.1393 86.7431 30.0472 86.7431 28.4527Z" fill="#243A5A"/>
<path d="M96.1545 28.7149C96.1545 32.166 98.4698 34.4594 101.965 34.4594C105.438 34.4594 107.753 32.166 107.753 28.7149C107.753 25.2638 105.438 22.9485 101.965 22.9485C98.4698 22.9485 96.1545 25.2638 96.1545 28.7149ZM99.5401 28.693C99.5401 27.0549 100.501 25.9628 101.965 25.9628C103.406 25.9628 104.367 27.0549 104.367 28.693C104.367 30.3531 103.406 31.4452 101.965 31.4452C100.501 31.4452 99.5401 30.3531 99.5401 28.693Z" fill="#243A5A"/>
<path d="M110.653 21.5724C111.701 21.5724 112.553 20.7205 112.553 19.6503C112.553 18.58 111.701 17.75 110.653 17.75C109.583 17.75 108.731 18.58 108.731 19.6503C108.731 20.7205 109.583 21.5724 110.653 21.5724ZM108.949 34.1972H112.335V23.2761H108.949V34.1972Z" fill="#243A5A"/>
<path d="M114.306 39.4392H117.626V33.105C118.259 33.935 119.701 34.5029 121.208 34.5029C124.462 34.5029 126.428 32.0129 126.341 28.5618C126.253 25.0452 124.222 22.9265 121.186 22.9265C119.635 22.9265 118.172 23.6036 117.56 24.6084L117.385 23.276H114.306V39.4392ZM117.691 28.7365C117.691 27.0984 118.783 26.0063 120.356 26.0063C121.95 26.0063 122.955 27.1202 122.955 28.7365C122.955 30.3529 121.95 31.4668 120.356 31.4668C118.783 31.4668 117.691 30.3747 117.691 28.7365Z" fill="#243A5A"/>
<path d="M126.699 30.746C126.786 32.9521 128.534 34.481 131.286 34.481C133.929 34.481 135.764 33.0831 135.764 30.8334C135.764 29.2171 134.803 28.1468 133.011 27.7099L131.068 27.2294C130.369 27.0547 129.932 26.8799 129.932 26.312C129.932 25.7441 130.39 25.3728 131.068 25.3728C131.832 25.3728 132.334 25.8752 132.313 26.6178H135.349C135.261 24.3462 133.536 22.9265 131.133 22.9265C128.709 22.9265 126.896 24.3681 126.896 26.5523C126.896 28.0157 127.704 29.2171 129.866 29.785L131.788 30.2873C132.356 30.4402 132.596 30.7023 132.596 31.0736C132.596 31.6197 132.094 31.9692 131.242 31.9692C130.259 31.9692 129.735 31.5105 129.735 30.746H126.699Z" fill="#243A5A"/>
<path d="M140.912 34.4811C142.245 34.4811 143.577 33.8695 144.254 32.974L144.473 34.1972H147.64V23.2761H144.276V28.9551C144.276 30.5932 143.796 31.4887 142.245 31.4887C141.043 31.4887 140.257 30.9427 140.257 28.9114V23.2761H136.893V30.1345C136.893 32.7338 138.335 34.4811 140.912 34.4811Z" fill="#243A5A"/>
<path d="M152.974 34.1972V28.2343C152.974 26.3995 153.957 25.8753 154.918 25.8753C155.988 25.8753 156.687 26.5306 156.687 27.8848V34.1972H160.007V28.2343C160.007 26.3777 160.968 25.8535 161.929 25.8535C162.999 25.8535 163.72 26.5087 163.72 27.8848V34.1972H166.997V27.0548C166.997 24.5648 165.686 22.9048 162.868 22.9048C161.296 22.9048 160.007 23.6692 159.439 24.8487C158.784 23.6692 157.648 22.9048 155.835 22.9048C154.634 22.9048 153.52 23.4508 152.865 24.3245L152.734 23.2761H149.588V34.1972H152.974Z" fill="#243A5A"/>
<path d="M12.938 27.75C12.938 18.3219 12.938 13.6079 15.8669 10.6789C18.7958 7.75 23.5099 7.75 32.938 7.75C42.3661 7.75 47.0801 7.75 50.0091 10.6789C52.938 13.6079 52.938 18.3219 52.938 27.75C52.938 37.1781 52.938 41.8921 50.0091 44.8211C47.0801 47.75 42.3661 47.75 32.938 47.75C23.5099 47.75 18.7958 47.75 15.8669 44.8211C12.938 41.8921 12.938 37.1781 12.938 27.75Z" fill="#243A5A"/>
<path d="M36.9379 33.75C37.4902 33.75 37.948 34.2021 37.8383 34.7434C37.6444 35.6994 37.1734 36.5855 36.4734 37.2855C35.5358 38.2232 34.264 38.75 32.9379 38.75C31.6118 38.75 30.3401 38.2232 29.4024 37.2855C28.7024 36.5855 28.2314 35.6994 28.0376 34.7434C27.9278 34.2021 28.3856 33.75 28.9379 33.75H36.9379Z" fill="#2DF8BB"/>
<path d="M39.0402 25.5265C38.5067 25.6694 38.18 26.2275 38.4505 26.709C38.7352 27.2158 39.129 27.6581 39.6081 28.0014C40.3603 28.5404 41.2761 28.802 42.1996 28.7414C43.123 28.6809 43.9969 28.3021 44.6723 27.6695C45.3478 27.0369 45.7829 26.1896 45.9037 25.2721C46.0245 24.3546 45.8235 23.4236 45.3348 22.6377C44.8461 21.8519 44.1 21.2598 43.2237 20.9623C42.3474 20.6648 41.3951 20.6804 40.529 21.0064C39.9774 21.214 39.4826 21.5393 39.0764 21.9551C38.6905 22.3502 38.8616 22.9739 39.3399 23.25L39.8472 23.5429C40.6187 23.9884 40.4666 25.1443 39.606 25.3749L39.0402 25.5265Z" fill="#2DF8BB"/>
<path d="M26.8357 25.5265C27.3692 25.6694 27.6959 26.2275 27.4254 26.709C27.1407 27.2158 26.7469 27.6581 26.2679 28.0014C25.5157 28.5404 24.5998 28.802 23.6764 28.7414C22.7529 28.6809 21.8791 28.3021 21.2036 27.6695C20.5282 27.0369 20.093 26.1896 19.9722 25.2721C19.8514 24.3546 20.0525 23.4236 20.5412 22.6377C21.0299 21.8519 21.7759 21.2598 22.6522 20.9623C23.5285 20.6648 24.4809 20.6804 25.347 21.0064C25.8985 21.214 26.3934 21.5393 26.7996 21.9551C27.1855 22.3502 27.0143 22.9739 26.536 23.25L26.0287 23.5429C25.2572 23.9884 25.4094 25.1443 26.2699 25.3749L26.8357 25.5265Z" fill="#2DF8BB"/>
</g>
<defs>
<clipPath id="clip0_568_903">
<rect width="155" height="40" fill="white" transform="translate(12.938 7.75)"/>
</clipPath>
</defs>
</svg>
