<svg width="179" height="57" viewBox="0 0 179 57" fill="none" xmlns="http://www.w3.org/2000/svg">
<path d="M58.0474 34.4414C58.0474 35.1836 57.895 35.7539 57.5903 36.1523C57.2935 36.5508 56.7974 36.75 56.1021 36.75C55.4458 36.75 54.981 36.5508 54.7075 36.1523C54.4419 35.7539 54.3091 35.1836 54.3091 34.4414V22.0547C54.3091 21.3125 54.4419 20.7422 54.7075 20.3438C54.981 19.9453 55.4458 19.7461 56.1021 19.7461C56.7974 19.7461 57.2935 19.9453 57.5903 20.3438C57.895 20.7422 58.0474 21.3125 58.0474 22.0547V34.4414Z" fill="#09355D"/>
<path d="M59.1821 30.8438C59.1821 30.0156 59.3149 29.2344 59.5806 28.5C59.854 27.7578 60.2602 27.1094 60.7993 26.5547C61.3462 26 62.0259 25.5586 62.8384 25.2305C63.6587 24.9023 64.6196 24.7383 65.7212 24.7383C66.7759 24.7383 67.7095 24.8906 68.522 25.1953C69.3345 25.5 70.0181 25.9258 70.5727 26.4727C71.1274 27.0117 71.5493 27.6562 71.8384 28.4062C72.1274 29.1484 72.272 29.9609 72.272 30.8438C72.272 31.6641 72.1352 32.4414 71.8618 33.1758C71.5884 33.9023 71.1782 34.543 70.6313 35.0977C70.0845 35.6445 69.4009 36.082 68.5806 36.4102C67.7602 36.7305 66.8071 36.8906 65.7212 36.8906C64.6509 36.8906 63.7056 36.7383 62.8852 36.4336C62.0727 36.1211 61.3892 35.6953 60.8345 35.1562C60.2876 34.6094 59.8735 33.9688 59.5923 33.2344C59.3188 32.4922 59.1821 31.6953 59.1821 30.8438ZM63.0845 30.8438C63.0845 31.3594 63.1313 31.8516 63.2251 32.3203C63.3188 32.7812 63.4673 33.1875 63.6704 33.5391C63.8813 33.8906 64.1548 34.1719 64.4907 34.3828C64.8267 34.5859 65.2368 34.6875 65.7212 34.6875C66.1665 34.6875 66.5532 34.5938 66.8813 34.4062C67.2173 34.2188 67.4907 33.957 67.7017 33.6211C67.9204 33.2852 68.0845 32.8828 68.1938 32.4141C68.3032 31.9375 68.3579 31.4141 68.3579 30.8438C68.3579 30.3281 68.3071 29.8398 68.2056 29.3789C68.1118 28.9102 67.9595 28.5 67.7485 28.1484C67.5376 27.7891 67.2642 27.5078 66.9282 27.3047C66.6001 27.0938 66.1977 26.9883 65.7212 26.9883C65.2446 26.9883 64.8384 27.0898 64.5024 27.293C64.1665 27.4961 63.8931 27.7734 63.6821 28.125C63.4712 28.4766 63.3188 28.8867 63.2251 29.3555C63.1313 29.8242 63.0845 30.3203 63.0845 30.8438Z" fill="#09355D"/>
<path d="M81.8912 34.4883C81.6802 34.8789 81.4224 35.2109 81.1177 35.4844C80.8209 35.7578 80.4888 35.9844 80.1217 36.1641C79.7623 36.3359 79.3756 36.4648 78.9615 36.5508C78.5552 36.6289 78.1373 36.668 77.7076 36.668C76.9888 36.668 76.3326 36.5391 75.7388 36.2812C75.1451 36.0234 74.6334 35.6523 74.2037 35.168C73.7818 34.6758 73.4537 34.0742 73.2193 33.3633C72.9849 32.6523 72.8677 31.8398 72.8677 30.9258C72.8677 30.0664 72.9771 29.2617 73.1959 28.5117C73.4146 27.7617 73.731 27.1094 74.1451 26.5547C74.567 26 75.0826 25.5625 75.692 25.2422C76.3013 24.9219 76.9967 24.7617 77.7779 24.7617C78.6685 24.7617 79.4576 24.9336 80.1451 25.2773C80.8404 25.6211 81.4381 26.1836 81.9381 26.9648V26.6602C81.9381 26.0977 82.0904 25.6758 82.3951 25.3945C82.7076 25.1055 83.1373 24.9609 83.6842 24.9609C84.0123 24.9609 84.2896 25.0156 84.5162 25.125C84.7427 25.2266 84.9224 25.3828 85.0552 25.5938C85.1881 25.7969 85.2818 26.0508 85.3365 26.3555C85.399 26.6523 85.4302 26.9922 85.4302 27.375V35.2266C85.4302 36.1797 85.3092 37.0312 85.067 37.7812C84.8326 38.5312 84.4654 39.1641 83.9654 39.6797C83.4654 40.1953 82.8248 40.5859 82.0435 40.8516C81.2623 41.125 80.3326 41.2617 79.2545 41.2617C78.4967 41.2617 77.8248 41.2266 77.2388 41.1562C76.6607 41.0938 76.1607 40.9961 75.7388 40.8633C75.317 40.7148 74.9967 40.5508 74.7779 40.3711C74.567 40.1914 74.4615 39.957 74.4615 39.668C74.4615 39.5039 74.4849 39.3477 74.5318 39.1992C74.5787 39.0508 74.649 38.918 74.7427 38.8008C74.8443 38.6914 74.9732 38.6016 75.1295 38.5312C75.2935 38.4688 75.4927 38.4375 75.7271 38.4375C75.9771 38.4375 76.2271 38.4531 76.4771 38.4844C76.7349 38.5156 77.0006 38.5469 77.274 38.5781C77.5552 38.6172 77.8482 38.6523 78.1529 38.6836C78.4654 38.7148 78.8013 38.7305 79.1607 38.7305C79.5904 38.7305 79.9732 38.6875 80.3092 38.6016C80.6451 38.5156 80.9302 38.3633 81.1646 38.1445C81.399 37.9258 81.5787 37.6328 81.7037 37.2656C81.8287 36.9062 81.8912 36.4453 81.8912 35.8828V34.4883ZM81.8912 30.8438C81.8912 30.2734 81.8482 29.7539 81.7623 29.2852C81.6842 28.8164 81.5474 28.418 81.3521 28.0898C81.1568 27.7539 80.8951 27.4961 80.567 27.3164C80.2388 27.1289 79.8287 27.0352 79.3365 27.0352C78.8521 27.0352 78.4498 27.1328 78.1295 27.3281C77.817 27.5234 77.567 27.793 77.3795 28.1367C77.192 28.4805 77.0592 28.8828 76.981 29.3438C76.9107 29.8047 76.8756 30.2969 76.8756 30.8203C76.8756 32.0156 77.0865 32.9141 77.5084 33.5156C77.9302 34.1172 78.5435 34.418 79.3482 34.418C79.7232 34.4102 80.0631 34.3398 80.3677 34.207C80.6802 34.0664 80.9498 33.8516 81.1763 33.5625C81.4029 33.2734 81.5787 32.9062 81.7037 32.4609C81.8287 32.0156 81.8912 31.4766 81.8912 30.8438Z" fill="#09355D"/>
<path d="M86.5066 30.8438C86.5066 30.0156 86.6394 29.2344 86.905 28.5C87.1785 27.7578 87.5847 27.1094 88.1238 26.5547C88.6707 26 89.3503 25.5586 90.1628 25.2305C90.9832 24.9023 91.9441 24.7383 93.0457 24.7383C94.1003 24.7383 95.0339 24.8906 95.8464 25.1953C96.6589 25.5 97.3425 25.9258 97.8972 26.4727C98.4519 27.0117 98.8738 27.6562 99.1628 28.4062C99.4519 29.1484 99.5964 29.9609 99.5964 30.8438C99.5964 31.6641 99.4597 32.4414 99.1863 33.1758C98.9128 33.9023 98.5027 34.543 97.9558 35.0977C97.4089 35.6445 96.7253 36.082 95.905 36.4102C95.0847 36.7305 94.1316 36.8906 93.0457 36.8906C91.9753 36.8906 91.03 36.7383 90.2097 36.4336C89.3972 36.1211 88.7136 35.6953 88.1589 35.1562C87.6121 34.6094 87.198 33.9688 86.9167 33.2344C86.6433 32.4922 86.5066 31.6953 86.5066 30.8438ZM90.4089 30.8438C90.4089 31.3594 90.4558 31.8516 90.5496 32.3203C90.6433 32.7812 90.7917 33.1875 90.9949 33.5391C91.2058 33.8906 91.4792 34.1719 91.8152 34.3828C92.1511 34.5859 92.5613 34.6875 93.0457 34.6875C93.491 34.6875 93.8777 34.5938 94.2058 34.4062C94.5417 34.2188 94.8152 33.957 95.0261 33.6211C95.2449 33.2852 95.4089 32.8828 95.5183 32.4141C95.6277 31.9375 95.6824 31.4141 95.6824 30.8438C95.6824 30.3281 95.6316 29.8398 95.53 29.3789C95.4363 28.9102 95.2839 28.5 95.073 28.1484C94.8621 27.7891 94.5886 27.5078 94.2527 27.3047C93.9246 27.0938 93.5222 26.9883 93.0457 26.9883C92.5691 26.9883 92.1628 27.0898 91.8269 27.293C91.491 27.4961 91.2175 27.7734 91.0066 28.125C90.7957 28.4766 90.6433 28.8867 90.5496 29.3555C90.4558 29.8242 90.4089 30.3203 90.4089 30.8438Z" fill="#09355D"/>
<path d="M104.622 20.7891C104.622 21.0469 104.563 21.2773 104.446 21.4805C104.329 21.6758 104.177 21.8398 103.989 21.9727C103.802 22.1055 103.583 22.207 103.333 22.2773C103.091 22.3398 102.841 22.3711 102.583 22.3711C102.309 22.3711 102.048 22.3359 101.798 22.2656C101.555 22.1953 101.341 22.0938 101.153 21.9609C100.966 21.8203 100.817 21.6523 100.708 21.457C100.598 21.2617 100.544 21.0391 100.544 20.7891C100.544 20.5625 100.595 20.3555 100.696 20.168C100.805 19.9727 100.95 19.8047 101.13 19.6641C101.309 19.5234 101.524 19.4141 101.774 19.3359C102.024 19.2578 102.298 19.2188 102.595 19.2188C102.852 19.2188 103.102 19.2539 103.345 19.3242C103.595 19.3945 103.813 19.4961 104.001 19.6289C104.188 19.7617 104.337 19.9258 104.446 20.1211C104.563 20.3164 104.622 20.5391 104.622 20.7891ZM104.446 34.4414C104.446 35.1836 104.294 35.7539 103.989 36.1523C103.692 36.5508 103.196 36.75 102.501 36.75C101.845 36.75 101.38 36.5508 101.106 36.1523C100.841 35.7539 100.708 35.1836 100.708 34.4414V27.2695C100.708 26.5273 100.841 25.957 101.106 25.5586C101.38 25.1602 101.845 24.9609 102.501 24.9609C103.196 24.9609 103.692 25.1602 103.989 25.5586C104.294 25.957 104.446 26.5273 104.446 27.2695V34.4414Z" fill="#09355D"/>
<path d="M109.835 30.8203C109.835 31.3438 109.874 31.832 109.952 32.2852C110.038 32.7383 110.179 33.1367 110.374 33.4805C110.577 33.8164 110.843 34.082 111.171 34.2773C111.507 34.4727 111.921 34.5703 112.413 34.5703C112.866 34.5703 113.245 34.4766 113.55 34.2891C113.862 34.0938 114.112 33.8281 114.3 33.4922C114.487 33.1484 114.62 32.7461 114.698 32.2852C114.784 31.8242 114.827 31.3242 114.827 30.7852C114.827 30.3555 114.796 29.918 114.733 29.4727C114.671 29.0195 114.554 28.6094 114.382 28.2422C114.21 27.875 113.972 27.5742 113.667 27.3398C113.362 27.1055 112.964 26.9883 112.472 26.9883C111.979 26.9883 111.561 27.0664 111.218 27.2227C110.882 27.3789 110.608 27.6172 110.397 27.9375C110.194 28.2578 110.05 28.6602 109.964 29.1445C109.878 29.6211 109.835 30.1797 109.835 30.8203ZM109.823 27.2695C110.019 26.8555 110.269 26.4922 110.573 26.1797C110.878 25.8672 111.214 25.6055 111.581 25.3945C111.948 25.1836 112.331 25.0273 112.729 24.9258C113.136 24.8164 113.538 24.7617 113.936 24.7617C114.655 24.7617 115.304 24.9219 115.882 25.2422C116.46 25.5625 116.952 26 117.358 26.5547C117.772 27.1016 118.089 27.75 118.308 28.5C118.526 29.2422 118.636 30.0391 118.636 30.8906C118.636 31.7734 118.518 32.582 118.284 33.3164C118.058 34.0508 117.733 34.6836 117.311 35.2148C116.897 35.7383 116.397 36.1484 115.811 36.4453C115.233 36.7422 114.589 36.8906 113.878 36.8906C113.003 36.8906 112.222 36.6875 111.534 36.2812C110.847 35.875 110.276 35.3047 109.823 34.5703V38.7891C109.823 39.5312 109.671 40.1016 109.366 40.5C109.069 40.8984 108.573 41.0977 107.878 41.0977C107.222 41.0977 106.757 40.8984 106.483 40.5C106.218 40.1016 106.085 39.5312 106.085 38.7891V27.2695C106.085 26.5273 106.218 25.957 106.483 25.5586C106.757 25.1602 107.222 24.9609 107.878 24.9609C108.573 24.9609 109.069 25.1602 109.366 25.5586C109.671 25.957 109.823 26.5273 109.823 27.2695Z" fill="#09355D"/>
<path d="M122.759 28.1016C122.759 28.4062 122.892 28.6445 123.157 28.8164C123.423 28.9805 123.79 29.1172 124.259 29.2266C124.704 29.3281 125.161 29.4258 125.63 29.5195C126.099 29.6133 126.556 29.7227 127.001 29.8477C127.446 29.9648 127.864 30.1055 128.255 30.2695C128.645 30.4336 128.989 30.6406 129.286 30.8906C129.583 31.1328 129.817 31.4297 129.989 31.7812C130.161 32.125 130.247 32.5391 130.247 33.0234C130.247 33.6328 130.122 34.1758 129.872 34.6523C129.622 35.1211 129.267 35.5195 128.806 35.8477C128.353 36.1758 127.81 36.4297 127.177 36.6094C126.544 36.7891 125.845 36.8828 125.079 36.8906C124.353 36.8906 123.653 36.8438 122.981 36.75C122.31 36.6641 121.712 36.5273 121.188 36.3398C120.673 36.1523 120.259 35.9219 119.946 35.6484C119.634 35.3672 119.478 35.0391 119.478 34.6641C119.478 34.3359 119.583 34.082 119.794 33.9023C120.005 33.7227 120.274 33.6328 120.603 33.6328C120.728 33.6328 120.876 33.6562 121.048 33.7031C121.22 33.75 121.407 33.8086 121.61 33.8789C121.813 33.9492 122.028 34.0273 122.255 34.1133C122.489 34.1914 122.731 34.2617 122.981 34.3242C123.294 34.4102 123.614 34.4805 123.942 34.5352C124.278 34.582 124.622 34.6055 124.974 34.6055C125.192 34.6055 125.407 34.5859 125.618 34.5469C125.829 34.5 126.017 34.4336 126.181 34.3477C126.353 34.2539 126.493 34.1367 126.603 33.9961C126.712 33.8555 126.778 33.6836 126.802 33.4805C126.825 33.4336 126.845 33.3867 126.86 33.3398C126.876 33.293 126.884 33.2383 126.884 33.1758C126.884 32.957 126.782 32.7617 126.579 32.5898C126.384 32.418 126.106 32.2812 125.747 32.1797C125.145 32.0391 124.571 31.9102 124.024 31.793C123.478 31.6758 122.97 31.5508 122.501 31.418C122.04 31.2852 121.618 31.1328 121.235 30.9609C120.86 30.7891 120.54 30.5781 120.274 30.3281C120.017 30.0781 119.813 29.7773 119.665 29.4258C119.524 29.0742 119.454 28.6484 119.454 28.1484C119.454 27.6094 119.575 27.1289 119.817 26.707C120.067 26.2773 120.423 25.918 120.884 25.6289C121.345 25.3398 121.903 25.1211 122.56 24.9727C123.216 24.8164 123.958 24.7383 124.786 24.7383C126.27 24.7383 127.399 24.918 128.173 25.2773C128.954 25.6289 129.345 26.0898 129.345 26.6602C129.345 26.9805 129.239 27.2266 129.028 27.3984C128.817 27.5625 128.563 27.6445 128.267 27.6445C128.11 27.6445 127.946 27.6172 127.774 27.5625C127.61 27.5 127.411 27.4336 127.177 27.3633C126.942 27.2852 126.661 27.2188 126.333 27.1641C126.013 27.1016 125.614 27.0703 125.138 27.0703C124.778 27.0703 124.45 27.0859 124.153 27.1172C123.864 27.1484 123.614 27.2031 123.403 27.2812C123.2 27.3594 123.04 27.4648 122.923 27.5977C122.813 27.7305 122.759 27.8984 122.759 28.1016Z" fill="#09355D"/>
<path d="M135.003 32.4023C135.003 32.7695 135.05 33.0898 135.144 33.3633C135.245 33.6367 135.382 33.8672 135.554 34.0547C135.726 34.2344 135.925 34.3711 136.151 34.4648C136.386 34.5508 136.636 34.5938 136.901 34.5938C137.214 34.5938 137.515 34.5469 137.804 34.4531C138.093 34.3594 138.347 34.2148 138.566 34.0195C138.792 33.8242 138.972 33.5781 139.105 33.2812C139.237 32.9844 139.304 32.6367 139.304 32.2383V27.2695C139.304 26.5273 139.437 25.957 139.702 25.5586C139.976 25.1602 140.441 24.9609 141.097 24.9609C141.792 24.9609 142.288 25.1602 142.585 25.5586C142.89 25.957 143.042 26.5273 143.042 27.2695V34.4414C143.042 35.1836 142.89 35.7539 142.585 36.1523C142.288 36.5508 141.792 36.75 141.097 36.75C140.441 36.75 139.976 36.5508 139.702 36.1523C139.437 35.7539 139.304 35.1836 139.304 34.4414C139.14 34.8008 138.925 35.1289 138.659 35.4258C138.401 35.7227 138.097 35.9805 137.745 36.1992C137.401 36.4102 137.019 36.5742 136.597 36.6914C136.183 36.8086 135.733 36.8672 135.249 36.8672C134.726 36.8672 134.222 36.7773 133.737 36.5977C133.261 36.4102 132.839 36.1367 132.472 35.7773C132.105 35.4102 131.812 34.957 131.593 34.418C131.374 33.8789 131.265 33.25 131.265 32.5312V27.2695C131.265 26.5273 131.398 25.957 131.663 25.5586C131.937 25.1602 132.401 24.9609 133.058 24.9609C133.753 24.9609 134.249 25.1602 134.546 25.5586C134.851 25.957 135.003 26.5273 135.003 27.2695V32.4023Z" fill="#09355D"/>
<path d="M144.739 27.2695C144.739 26.5273 144.872 25.957 145.138 25.5586C145.411 25.1602 145.876 24.9609 146.532 24.9609C147.228 24.9609 147.724 25.1602 148.021 25.5586C148.325 25.957 148.478 26.5273 148.478 27.2695C148.634 26.8945 148.845 26.5547 149.111 26.25C149.384 25.9375 149.693 25.6719 150.036 25.4531C150.388 25.2344 150.767 25.0664 151.173 24.9492C151.579 24.8242 152.001 24.7617 152.439 24.7617C152.845 24.7617 153.243 24.8164 153.634 24.9258C154.032 25.0273 154.4 25.1953 154.736 25.4297C155.079 25.6562 155.38 25.9453 155.638 26.2969C155.896 26.6484 156.095 27.0703 156.236 27.5625C156.478 27.0391 156.763 26.5977 157.091 26.2383C157.419 25.8789 157.775 25.5898 158.157 25.3711C158.54 25.1523 158.939 24.9961 159.353 24.9023C159.775 24.8086 160.196 24.7617 160.618 24.7617C161.118 24.7617 161.595 24.8516 162.048 25.0312C162.509 25.2109 162.911 25.4844 163.255 25.8516C163.607 26.2109 163.884 26.668 164.087 27.2227C164.298 27.7695 164.403 28.4102 164.403 29.1445V34.4414C164.403 35.1836 164.251 35.7539 163.946 36.1523C163.65 36.5508 163.153 36.75 162.458 36.75C161.802 36.75 161.337 36.5508 161.064 36.1523C160.798 35.7539 160.665 35.1836 160.665 34.4414V29.3086C160.665 28.957 160.618 28.6445 160.525 28.3711C160.431 28.0898 160.298 27.8555 160.126 27.668C159.962 27.4727 159.767 27.3281 159.54 27.2344C159.314 27.1328 159.071 27.082 158.814 27.082C158.493 27.082 158.189 27.1328 157.9 27.2344C157.611 27.3359 157.357 27.4922 157.138 27.7031C156.927 27.9141 156.755 28.1836 156.622 28.5117C156.497 28.8398 156.435 29.2344 156.435 29.6953V34.4414C156.435 35.1836 156.282 35.7539 155.978 36.1523C155.681 36.5508 155.185 36.75 154.489 36.75C153.833 36.75 153.368 36.5508 153.095 36.1523C152.829 35.7539 152.696 35.1836 152.696 34.4414V29.5312C152.696 28.7266 152.528 28.1172 152.193 27.7031C151.864 27.2891 151.415 27.082 150.845 27.082C150.509 27.082 150.196 27.1367 149.907 27.2461C149.618 27.3555 149.368 27.5156 149.157 27.7266C148.946 27.9375 148.778 28.1992 148.653 28.5117C148.536 28.8242 148.478 29.1836 148.478 29.5898V34.4414C148.478 35.1836 148.325 35.7539 148.021 36.1523C147.724 36.5508 147.228 36.75 146.532 36.75C145.876 36.75 145.411 36.5508 145.138 36.1523C144.872 35.7539 144.739 35.1836 144.739 34.4414V27.2695Z" fill="#09355D"/>
<path d="M29.938 34.75C26.6243 34.75 23.938 32.0637 23.938 28.75C23.938 25.4363 26.6243 22.75 29.938 22.75C33.2517 22.75 35.938 25.4363 35.938 28.75C35.938 32.0637 33.2517 34.75 29.938 34.75Z" fill="#51A3EE"/>
<path d="M18.3143 30.7995C16.5755 31.1061 15.3837 32.7857 16.0512 34.4203C16.983 36.7023 18.4696 38.7355 20.3969 40.3243C23.1528 42.596 26.6288 43.8099 30.1998 43.7476C33.7708 43.6853 37.2024 42.3508 39.8774 39.9842C41.748 38.3292 43.1628 36.2453 44.0145 33.9322C44.6245 32.2753 43.3747 30.6383 41.6263 30.3926C39.878 30.1469 38.3082 31.4195 37.4446 32.9595C36.9765 33.7942 36.3688 34.5515 35.6408 35.1956C34.106 36.5535 32.1371 37.3191 30.0883 37.3549C28.0394 37.3906 26.045 36.6942 24.4638 35.3907C23.7137 34.7724 23.08 34.0368 22.5831 33.2189C21.6663 31.71 20.053 30.4929 18.3143 30.7995Z" fill="#51A3EE"/>
<path d="M44.822 30.6245C44.8986 30.0104 44.938 29.3848 44.938 28.75C44.938 20.4657 38.2223 13.75 29.938 13.75C21.6537 13.75 14.938 20.4657 14.938 28.75C14.938 29.5647 15.0029 30.3642 15.1279 31.1437C15.8169 30.2005 16.8922 29.5272 18.0537 29.3224C19.3104 29.1008 20.4526 29.4056 21.4183 29.9753C21.3612 29.5751 21.3317 29.166 21.3317 28.75C21.3317 23.9969 25.1849 20.1437 29.938 20.1437C34.6911 20.1437 38.5443 23.9969 38.5443 28.75C38.5443 29.0634 38.5275 29.3729 38.4949 29.6776C39.4402 29.0743 40.5712 28.7296 41.8351 28.9073C43.0027 29.0714 44.1005 29.7064 44.822 30.6245Z" fill="#0E4F8B"/>
</svg>
