<svg width="207" height="77" viewBox="0 0 207 77" fill="none" xmlns="http://www.w3.org/2000/svg">
<rect width="207" height="77" rx="10" fill="#0088FE"/>
<path d="M64 6H195C198.314 6 201 8.68629 201 12V65C201 68.3137 198.314 71 195 71H64V6Z" fill="white"/>
<rect x="18" y="9" width="38" height="10.5106" fill="white"/>
<rect x="18" y="34.8723" width="35.5745" height="10.5106" fill="white"/>
<rect x="18" y="66.4043" width="31.5319" height="12.1277" transform="rotate(-90 18 66.4043)" fill="white"/>
<path d="M102.203 27.2093C100.994 27.2093 99.9359 26.9419 99.0289 26.407C98.1219 25.8721 97.4126 25.1337 96.901 24.1918C96.3894 23.2384 96.1336 22.1395 96.1336 20.8953C96.1336 19.6511 96.3894 18.5581 96.901 17.6162C97.4126 16.6628 98.1219 15.9186 99.0289 15.3837C99.9359 14.8488 100.994 14.5813 102.203 14.5813C103.413 14.5813 104.471 14.8488 105.378 15.3837C106.285 15.9186 106.988 16.6628 107.488 17.6162C108 18.5581 108.256 19.6511 108.256 20.8953C108.256 22.1395 108 23.2384 107.488 24.1918C106.988 25.1337 106.285 25.8721 105.378 26.407C104.471 26.9419 103.413 27.2093 102.203 27.2093ZM102.203 25.5523C103.041 25.5523 103.767 25.3663 104.384 24.9942C105.012 24.6221 105.5 24.0872 105.849 23.3895C106.198 22.6918 106.372 21.8604 106.372 20.8953C106.372 19.9302 106.198 19.0988 105.849 18.4011C105.5 17.7035 105.012 17.1686 104.384 16.7965C103.767 16.4244 103.041 16.2383 102.203 16.2383C101.366 16.2383 100.634 16.4244 100.006 16.7965C99.3778 17.1686 98.8894 17.7035 98.5405 18.4011C98.2033 19.0988 98.0347 19.9302 98.0347 20.8953C98.0347 21.8604 98.2033 22.6918 98.5405 23.3895C98.8894 24.0872 99.3778 24.6221 100.006 24.9942C100.634 25.3663 101.366 25.5523 102.203 25.5523ZM110.315 27V14.7907H117.972V16.2907H112.164V20.1453H116.978V21.6279H112.164V27H110.315ZM119.786 27V14.7907H127.443V16.2907H121.635V20.1453H126.449V21.6279H121.635V27H119.786ZM129.256 27V14.7907H131.105V27H129.256ZM139.024 27.2093C137.815 27.2093 136.769 26.9477 135.885 26.4244C135.013 25.8895 134.338 25.1512 133.862 24.2093C133.385 23.2558 133.147 22.157 133.147 20.9128C133.147 19.6569 133.385 18.5581 133.862 17.6162C134.338 16.6628 135.013 15.9186 135.885 15.3837C136.769 14.8488 137.815 14.5813 139.024 14.5813C140.455 14.5813 141.623 14.9302 142.53 15.6279C143.437 16.3255 144.013 17.3023 144.257 18.5581H142.199C142.036 17.8488 141.687 17.2848 141.152 16.8662C140.618 16.4476 139.902 16.2383 139.007 16.2383C137.786 16.2383 136.821 16.6569 136.112 17.4942C135.402 18.3197 135.048 19.4593 135.048 20.9128C135.048 22.3546 135.402 23.4884 136.112 24.3139C136.821 25.1395 137.786 25.5523 139.007 25.5523C139.902 25.5523 140.618 25.3546 141.152 24.9593C141.687 24.5639 142.036 24.0232 142.199 23.3372H144.257C144.013 24.5465 143.437 25.4942 142.53 26.1802C141.623 26.8663 140.455 27.2093 139.024 27.2093ZM146.289 27V14.7907H148.138V27H146.289ZM149.831 27L154.331 14.7907H156.354L160.819 27H158.866L157.819 24.0174H152.831L151.784 27H149.831ZM153.354 22.5523H157.296L155.325 16.9883L153.354 22.5523ZM162.522 27V14.7907H164.371V25.5349H169.917V27H162.522Z" fill="black"/>
<path d="M73.8074 57V32.8907H82.7278C84.6566 32.8907 86.2524 33.2121 87.5153 33.855C88.7781 34.4979 89.7195 35.382 90.3395 36.5071C90.9595 37.6322 91.2694 38.895 91.2694 40.2957C91.2694 41.6274 90.9709 42.8558 90.3739 43.981C89.777 45.0831 88.847 45.9786 87.5841 46.6674C86.3213 47.3333 84.7025 47.6662 82.7278 47.6662H78.2159V57H73.8074ZM78.2159 44.0843H82.4523C83.9907 44.0843 85.0929 43.7513 85.7587 43.0855C86.4476 42.3966 86.792 41.4667 86.792 40.2957C86.792 39.1017 86.4476 38.1717 85.7587 37.5059C85.0929 36.817 83.9907 36.4726 82.4523 36.4726H78.2159V44.0843ZM99.4381 57.4133C97.9686 57.4133 96.7631 57.1837 95.8217 56.7245C94.8803 56.2423 94.18 55.6108 93.7207 54.8302C93.2615 54.0495 93.0319 53.1884 93.0319 52.247C93.0319 50.6627 93.6518 49.3769 94.8918 48.3895C96.1317 47.4022 97.9915 46.9085 100.471 46.9085H104.811V46.4952C104.811 45.3242 104.478 44.4631 103.812 43.9121C103.146 43.361 102.32 43.0855 101.332 43.0855C100.437 43.0855 99.6562 43.3036 98.9903 43.7399C98.3245 44.1532 97.9112 44.7731 97.7504 45.5997H93.4452C93.56 44.3598 93.9733 43.2806 94.6851 42.3622C95.4199 41.4437 96.3613 40.7434 97.5093 40.2612C98.6574 39.7561 99.9432 39.5035 101.367 39.5035C103.801 39.5035 105.718 40.112 107.119 41.3289C108.519 42.5459 109.22 44.268 109.22 46.4952V57H105.465L105.052 54.2446C104.547 55.1631 103.835 55.9208 102.917 56.5178C102.021 57.1148 100.862 57.4133 99.4381 57.4133ZM100.437 53.9691C101.7 53.9691 102.676 53.5558 103.364 52.7292C104.076 51.9026 104.524 50.8808 104.708 49.6639H100.954C99.7825 49.6639 98.9444 49.882 98.4393 50.3183C97.9341 50.7316 97.6816 51.2482 97.6816 51.8682C97.6816 52.534 97.9341 53.0507 98.4393 53.418C98.9444 53.7854 99.6103 53.9691 100.437 53.9691ZM113.427 57V39.9168H117.353L117.766 43.1199C118.386 42.0178 119.224 41.1452 120.281 40.5023C121.36 39.8364 122.623 39.5035 124.069 39.5035V44.1532H122.829C121.865 44.1532 121.004 44.3024 120.246 44.6009C119.488 44.8994 118.891 45.416 118.455 46.1508C118.042 46.8856 117.835 47.9073 117.835 49.2161V57H113.427ZM134.694 57C132.903 57 131.468 56.5637 130.389 55.6912C129.31 54.8187 128.77 53.2688 128.77 51.0415V43.6021H125.842V39.9168H128.77L129.287 35.336H133.179V39.9168H137.794V43.6021H133.179V51.076C133.179 51.9026 133.351 52.4766 133.695 52.7981C134.063 53.0966 134.682 53.2458 135.555 53.2458H137.69V57H134.694ZM141.579 57V39.9168H145.471L145.815 42.8099C146.343 41.7996 147.101 40.996 148.088 40.399C149.099 39.802 150.281 39.5035 151.636 39.5035C153.748 39.5035 155.39 40.1694 156.561 41.5011C157.732 42.8329 158.318 44.7846 158.318 47.3563V57H153.909V47.7696C153.909 46.3 153.611 45.1749 153.014 44.3943C152.417 43.6136 151.487 43.2232 150.224 43.2232C148.984 43.2232 147.962 43.6595 147.158 44.532C146.378 45.4046 145.987 46.6215 145.987 48.1829V57H141.579ZM170.834 57.4133C169.112 57.4133 167.585 57.0459 166.253 56.3112C164.921 55.5764 163.877 54.5431 163.119 53.2114C162.361 51.8796 161.982 50.3412 161.982 48.5962C161.982 46.8282 162.35 45.2553 163.084 43.8776C163.842 42.4999 164.875 41.4322 166.184 40.6745C167.516 39.8938 169.077 39.5035 170.868 39.5035C172.544 39.5035 174.025 39.8709 175.311 40.6056C176.597 41.3404 177.596 42.3507 178.308 43.6365C179.042 44.8994 179.41 46.3115 179.41 47.8729C179.41 48.1255 179.398 48.3895 179.375 48.6651C179.375 48.9406 179.364 49.2276 179.341 49.5261H166.356C166.448 50.8579 166.907 51.9026 167.734 52.6603C168.584 53.418 169.605 53.7969 170.799 53.7969C171.695 53.7969 172.441 53.6017 173.038 53.2114C173.658 52.7981 174.117 52.27 174.416 51.6271H178.893C178.572 52.7062 178.032 53.6936 177.274 54.5891C176.54 55.4616 175.621 56.1504 174.519 56.6556C173.44 57.1607 172.211 57.4133 170.834 57.4133ZM170.868 43.0855C169.789 43.0855 168.836 43.3954 168.01 44.0154C167.183 44.6124 166.655 45.5308 166.425 46.7707H174.932C174.863 45.6456 174.45 44.7502 173.692 44.0843C172.935 43.4184 171.993 43.0855 170.868 43.0855ZM183.118 57V39.9168H187.044L187.457 43.1199C188.077 42.0178 188.915 41.1452 189.972 40.5023C191.051 39.8364 192.314 39.5035 193.76 39.5035V44.1532H192.52C191.556 44.1532 190.695 44.3024 189.937 44.6009C189.179 44.8994 188.582 45.416 188.146 46.1508C187.733 46.8856 187.526 47.9073 187.526 49.2161V57H183.118Z" fill="black"/>
</svg>
