<svg width="303" height="179" viewBox="0 0 303 179" fill="none" xmlns="http://www.w3.org/2000/svg">
<path d="M302.778 22.2011V96.8122C302.778 96.8122 283.166 99.9283 279.114 100.367C275.061 100.806 262.473 104.098 253.288 96.9439C239.133 85.7083 188.941 45.1111 188.941 45.1111C185.786 43.0273 181.896 41.8145 177.835 41.6488C173.774 41.483 169.754 42.373 166.358 44.1894C153.607 49.6317 134.643 57.6633 126.755 60.7794C124.095 62.0426 121.084 62.7367 118.004 62.7969C114.924 62.8572 111.876 62.2815 109.144 61.1238C106.413 59.966 104.087 58.2642 102.386 56.1775C100.685 54.0908 99.6634 51.6876 99.4172 49.1928C99.5902 46.3529 100.747 43.6105 102.754 41.2811C104.761 38.9518 107.537 37.1302 110.763 36.0261C128.754 27.2483 166.736 9.69277 182.566 3.02165C192.183 -1.36723 199.098 -1.36723 212.335 7.41054C228.598 18.7778 243.347 28.7405 243.347 28.7405C245.094 29.7527 247.09 30.4454 249.198 30.7712C251.305 31.097 253.475 31.0481 255.557 30.6278C273.765 27.5555 302.778 22.2011 302.778 22.2011ZM102.875 148.25C104.098 145.97 104.501 143.455 104.038 140.997C103.575 138.539 102.264 136.237 100.257 134.359C98.2502 132.481 95.6295 131.103 92.6985 130.384C89.7674 129.666 86.6458 129.636 83.6951 130.299C84.5906 128.051 84.7426 125.651 84.1357 123.34C83.5288 121.029 82.1843 118.888 80.2373 117.133C78.1178 115.491 75.5097 114.324 72.6685 113.747C69.8272 113.17 66.8502 113.203 64.029 113.841C64.9175 111.589 65.0607 109.187 64.4443 106.876C63.8278 104.564 62.4734 102.426 60.5172 100.674C57.0157 98.0471 52.3884 96.6361 47.6236 96.7427C42.8588 96.8493 38.3342 98.4651 35.0161 101.245C27.5602 107.038 22.7517 117.572 29.6133 123.804C36.4748 130.036 43.8766 126.218 49.7116 125.121C48.0908 129.817 43.2283 134.206 49.2254 140.35C55.2224 146.494 63.4887 142.764 69.3237 141.667C67.7029 146.363 63.0565 151.147 68.7834 156.852C74.5104 162.558 84.1273 159.529 90.3945 157.949C87.9633 162.997 82.7766 168.439 89.422 174.583C96.0674 180.728 111.465 177.875 118.975 172.038C122.538 169.486 124.71 165.891 125.014 162.04C125.317 158.189 123.729 154.398 120.596 151.498C118.311 149.665 115.439 148.39 112.307 147.816C109.175 147.242 105.907 147.392 102.875 148.25ZM239.835 109.54L181.864 62.6667C179.182 60.6294 175.834 59.2641 172.221 58.7347C168.608 58.2053 164.884 58.5343 161.495 59.6822C153.391 62.5789 142.964 66.5289 135.075 69.5133C129.646 72.1402 123.583 73.7867 117.3 74.3411C110.709 74.3921 104.279 72.6902 98.9898 69.495C93.7008 66.2998 89.8438 61.7868 88.0072 56.6446C86.1705 51.5023 86.4552 46.0131 88.8177 41.0145C91.1803 36.016 95.4909 31.7825 101.092 28.96C113.68 21.9817 141.181 9.99999 141.181 9.99999C137.72 7.04447 133.515 4.7303 128.853 3.21543C124.191 1.70057 119.182 1.02069 114.167 1.22221C95.6892 1.22221 57.0054 21.85 57.0054 21.85C52.9125 23.5871 48.3851 24.5415 43.7688 24.6404C39.1526 24.7393 34.5696 23.98 30.3697 22.4205L0.222168 13.9061V99.0505C0.222168 99.0505 8.81258 101.069 16.4305 103.439C18.161 99.3415 21.0473 95.6291 24.8588 92.5989C31.0073 87.8066 39.1814 85.1089 47.7021 85.06C56.2228 85.011 64.4431 87.6145 70.6744 92.3355C74.1417 95.2436 76.6341 98.8246 77.9141 102.737C82.6005 103.922 86.8517 106.033 90.2865 108.882C93.7663 111.844 96.2419 115.488 97.4722 119.459C102.412 120.704 106.863 122.981 110.381 126.062C113.898 129.142 116.359 132.919 117.516 137.014C122.424 138.149 126.878 140.314 130.429 143.291C133.744 146.106 136.195 149.517 137.584 153.245C138.973 156.974 139.261 160.916 138.425 164.752C138.425 164.752 142.747 168.702 145.395 170.853C147.888 172.878 151.27 174.016 154.796 174.016C158.322 174.016 161.703 172.878 164.196 170.853C166.69 168.827 168.09 166.08 168.09 163.216C168.09 160.352 166.69 157.605 164.196 155.579C164.196 155.579 175.002 166.464 187.32 159.968C198.126 153.824 196.451 146.538 191.318 142.413C192.885 143.928 194.83 145.156 197.024 146.017C199.217 146.877 201.611 147.35 204.046 147.404C206.481 147.457 208.903 147.091 211.151 146.329C213.4 145.568 215.424 144.427 217.09 142.983C219.409 141.075 220.766 138.532 220.896 135.852C221.026 133.173 219.919 130.551 217.792 128.5C217.792 128.5 224.978 136.444 239.403 129.027C249.614 122.004 244.806 113.973 239.403 109.759L239.835 109.54Z" fill="#00AEEF"/>
</svg>
