<svg width="3300" height="2767" viewBox="0 0 3300 2767" fill="none" xmlns="http://www.w3.org/2000/svg">
<path d="M1385 2321.67L1566 2209.5L1617 2133.7L1988 2067L2102 2174.13L1921 2378.77C1623 2414.75 1439.5 2355.7 1385 2321.67Z" fill="#005575"/>
<path d="M1585 2739L1384.5 2318.5C1632.1 2435.7 1961.67 2380 2095.5 2337.5L1898.5 2739C1808.1 2788.6 1651.83 2759.67 1585 2739Z" fill="#0087B9"/>
<path d="M1208 1796L1465.72 1661.5L1528.32 1568.5L1718.15 1520.5L2059.61 1501L2321 1520.5L2277.5 1651.5L1769 1906.5C1382.99 1942.9 1257.32 1873.33 1208 1796Z" fill="#005575"/>
<path d="M820 671L1136.5 564L1213.5 471L1447 423L1867 403.5L2369.5 423L2352.5 564L1595.5 857.5C1120.7 893.9 880.667 748.333 820 671Z" fill="#005575"/>
<path d="M1019.5 1264.5L1336.5 1126.5L1413.5 1033.5L1647 985.5L2067 966L2420.5 986L2341.5 1128.5L1702.5 1430.5C1227.7 1466.9 1080.17 1341.83 1019.5 1264.5Z" fill="#005575"/>
<path d="M818.5 435L609 0C1457.4 302 2479.17 130.833 2884 7.5L2670.5 435C2219.7 709.8 1453 635.167 1126 563.5C985.6 539.9 862.5 468 818.5 435Z" fill="#0087B9"/>
<path d="M990.086 1077.18L820 676C1508.79 954.519 2338.33 796.661 2667 682.917L2493.67 1077.18C2127.68 1330.61 1505.22 1261.78 1239.74 1195.69C1125.75 1173.92 1025.81 1107.61 990.086 1077.18Z" fill="#0087B9"/>
<path d="M1204.66 1645.05L1022.5 1272C1546.5 1522 2187.5 1426 2465 1272L2283.5 1645.05C1997.5 1819.5 1621.88 1771.54 1419.5 1731.5C1332.61 1718.31 1263 1691.5 1204.66 1645.05Z" fill="#0087B9"/>
<path d="M1382 2163L1208 1796C1274 1890.4 1429.67 1911 1507 1912.5L1791.5 1905C2017 1905 2208 1838 2282 1799L2100 2175C1781.2 2284.6 1488.5 2212.67 1382 2163Z" fill="#0087B9"/>
<path d="M1908 403C1908 492.981 1834.39 566 1743.5 566C1652.61 566 1579 492.981 1579 403C1579 313.019 1652.61 240 1743.5 240C1834.39 240 1908 313.019 1908 403Z" fill="#0087B9" stroke="white" stroke-width="10"/>
<path d="M1908 1036C1908 1125.98 1834.39 1199 1743.5 1199C1652.61 1199 1579 1125.98 1579 1036C1579 946.019 1652.61 873 1743.5 873C1834.39 873 1908 946.019 1908 1036Z" fill="#0087B9" stroke="white" stroke-width="10"/>
<path d="M1862 1587.5C1862 1651.8 1809.43 1704 1744.5 1704C1679.57 1704 1627 1651.8 1627 1587.5C1627 1523.2 1679.57 1471 1744.5 1471C1809.43 1471 1862 1523.2 1862 1587.5Z" fill="#0087B9" stroke="white" stroke-width="10"/>
<path d="M1878 2066.5C1878 2130.8 1825.43 2183 1760.5 2183C1695.57 2183 1643 2130.8 1643 2066.5C1643 2002.2 1695.57 1950 1760.5 1950C1825.43 1950 1878 2002.2 1878 2066.5Z" fill="#0087B9" stroke="white" stroke-width="10"/>
<path d="M1862 2579.5C1862 2643.8 1809.43 2696 1744.5 2696C1679.57 2696 1627 2643.8 1627 2579.5C1627 2515.2 1679.57 2463 1744.5 2463C1809.43 2463 1862 2515.2 1862 2579.5Z" fill="#0087B9" stroke="white" stroke-width="10"/>
<path d="M1769.45 330.818V477H1738.54V360.154H1737.68L1704.21 381.14V353.73L1740.4 330.818H1769.45Z" fill="white"/>
<path d="M1691.85 1110V1087.73L1743.88 1039.55C1748.31 1035.27 1752.02 1031.41 1755.02 1027.99C1758.06 1024.56 1760.37 1021.21 1761.94 1017.92C1763.51 1014.59 1764.3 1011 1764.3 1007.14C1764.3 1002.86 1763.32 999.174 1761.37 996.081C1759.42 992.94 1756.75 990.537 1753.38 988.872C1750 987.159 1746.17 986.302 1741.88 986.302C1737.41 986.302 1733.51 987.206 1730.18 989.015C1726.85 990.823 1724.28 993.416 1722.47 996.795C1720.66 1000.17 1719.76 1004.19 1719.76 1008.86H1690.42C1690.42 999.293 1692.59 990.989 1696.92 983.947C1701.25 976.904 1707.31 971.456 1715.12 967.601C1722.92 963.747 1731.92 961.82 1742.1 961.82C1752.57 961.82 1761.68 963.675 1769.44 967.387C1777.24 971.051 1783.31 976.143 1787.64 982.662C1791.97 989.181 1794.13 996.652 1794.13 1005.07C1794.13 1010.59 1793.04 1016.04 1790.85 1021.42C1788.71 1026.8 1784.88 1032.77 1779.36 1039.34C1773.84 1045.86 1766.06 1053.68 1756.02 1062.82L1734.68 1083.73V1084.73H1796.06V1110H1691.85Z" fill="white"/>
<path d="M1743.51 1642.47C1735.66 1642.47 1728.67 1641.12 1722.54 1638.42C1716.44 1635.69 1711.63 1631.94 1708.09 1627.18C1704.58 1622.38 1702.78 1616.84 1702.67 1610.57H1725.59C1725.73 1613.2 1726.59 1615.51 1728.16 1617.51C1729.78 1619.47 1731.91 1620.99 1734.58 1622.08C1737.24 1623.17 1740.23 1623.71 1743.56 1623.71C1747.03 1623.71 1750.1 1623.1 1752.76 1621.87C1755.42 1620.64 1757.51 1618.94 1759.01 1616.77C1760.52 1614.6 1761.27 1612.09 1761.27 1609.26C1761.27 1606.38 1760.47 1603.84 1758.86 1601.63C1757.28 1599.39 1755 1597.64 1752.02 1596.38C1749.08 1595.12 1745.58 1594.49 1741.51 1594.49H1731.47V1577.77H1741.51C1744.95 1577.77 1747.98 1577.18 1750.61 1575.99C1753.27 1574.8 1755.34 1573.15 1756.81 1571.05C1758.28 1568.91 1759.01 1566.42 1759.01 1563.58C1759.01 1560.89 1758.37 1558.52 1757.07 1556.49C1755.81 1554.42 1754.02 1552.81 1751.71 1551.65C1749.43 1550.5 1746.77 1549.92 1743.72 1549.92C1740.64 1549.92 1737.82 1550.48 1735.26 1551.6C1732.7 1552.69 1730.65 1554.25 1729.11 1556.28C1727.57 1558.31 1726.74 1560.69 1726.64 1563.43H1704.83C1704.93 1557.22 1706.7 1551.76 1710.14 1547.03C1713.57 1542.3 1718.2 1538.6 1724.01 1535.94C1729.86 1533.24 1736.47 1531.89 1743.83 1531.89C1751.25 1531.89 1757.75 1533.24 1763.32 1535.94C1768.89 1538.64 1773.22 1542.28 1776.31 1546.87C1779.42 1551.43 1780.97 1556.54 1780.93 1562.22C1780.97 1568.24 1779.09 1573.27 1775.31 1577.3C1771.56 1581.33 1766.67 1583.89 1760.64 1584.97V1585.82C1768.56 1586.83 1774.59 1589.58 1778.72 1594.07C1782.89 1598.52 1784.96 1604.09 1784.92 1610.78C1784.96 1616.91 1783.19 1622.36 1779.62 1627.12C1776.08 1631.89 1771.19 1635.64 1764.95 1638.37C1758.72 1641.11 1751.57 1642.47 1743.51 1642.47Z" fill="white"/>
<path d="M1713.1 2101.08V2083.16L1758.03 2012.36H1773.48V2037.17H1764.34L1736.01 2082V2082.84H1799.87V2101.08H1713.1ZM1764.76 2120V2095.61L1765.18 2087.68V2012.36H1786.52V2120H1764.76Z" fill="white"/>
<path d="M1737.04 2634.47C1729.61 2634.47 1722.99 2633.11 1717.17 2630.37C1711.39 2627.64 1706.8 2623.87 1703.4 2619.07C1700 2614.27 1698.23 2608.77 1698.09 2602.57H1720.17C1720.41 2606.74 1722.16 2610.12 1725.42 2612.71C1728.68 2615.31 1732.55 2616.6 1737.04 2616.6C1740.61 2616.6 1743.76 2615.81 1746.5 2614.24C1749.27 2612.63 1751.42 2610.4 1752.96 2607.56C1754.54 2604.69 1755.33 2601.4 1755.33 2597.68C1755.33 2593.9 1754.52 2590.57 1752.91 2587.7C1751.33 2584.82 1749.14 2582.58 1746.34 2580.97C1743.54 2579.36 1740.33 2578.53 1736.72 2578.5C1733.57 2578.5 1730.5 2579.15 1727.52 2580.44C1724.58 2581.74 1722.29 2583.51 1720.64 2585.75L1700.4 2582.12L1705.5 2525.36H1771.3V2543.97H1724.27L1721.48 2570.93H1722.11C1724 2568.27 1726.86 2566.06 1730.68 2564.31C1734.5 2562.56 1738.77 2561.68 1743.5 2561.68C1749.98 2561.68 1755.76 2563.2 1760.85 2566.25C1765.93 2569.3 1769.94 2573.49 1772.88 2578.81C1775.82 2584.1 1777.28 2590.2 1777.24 2597.1C1777.28 2604.36 1775.6 2610.8 1772.2 2616.44C1768.83 2622.05 1764.12 2626.47 1758.06 2629.69C1752.03 2632.88 1745.03 2634.47 1737.04 2634.47Z" fill="white"/>
<rect x="2617" y="930" width="324" height="6" transform="rotate(-180 2617 930)" fill="white"/>
<circle cx="2305" cy="929" r="37" transform="rotate(-180 2305 929)" fill="#005575"/>
<rect x="645.093" y="275.752" width="324" height="6" transform="rotate(0.8841 645.093 275.752)" fill="white"/>
<circle cx="957.621" cy="281.566" r="37" transform="rotate(0.8841 957.621 281.566)" fill="#005575"/>
<rect x="1002.59" y="1490" width="324" height="6" transform="rotate(0.8841 1002.59 1490)" fill="white"/>
<circle cx="1315.11" cy="1495.82" r="37" transform="rotate(0.8841 1315.11 1495.82)" fill="#005575"/>
<rect x="1236.59" y="2537" width="324" height="6" transform="rotate(0.8841 1236.59 2537)" fill="white"/>
<circle cx="1549.11" cy="2542.82" r="37" transform="rotate(0.8841 1549.11 2542.82)" fill="#005575"/>
<rect x="2408" y="2017" width="324" height="6" transform="rotate(-180 2408 2017)" fill="white"/>
<circle cx="2096" cy="2016" r="37" transform="rotate(-180 2096 2016)" fill="#005575"/>
<path d="M7.02983 295V223.727H52.6889V234.55H19.9411V253.9H49.5568V264.723H19.9411V295H7.02983ZM63.8949 295V241.545H76.4929V295H63.8949ZM70.2287 233.959C68.2334 233.959 66.5166 233.298 65.0781 231.975C63.6397 230.629 62.9205 229.017 62.9205 227.138C62.9205 225.235 63.6397 223.623 65.0781 222.3C66.5166 220.955 68.2334 220.282 70.2287 220.282C72.2472 220.282 73.964 220.955 75.3793 222.3C76.8177 223.623 77.5369 225.235 77.5369 227.138C77.5369 229.017 76.8177 230.629 75.3793 231.975C73.964 233.298 72.2472 233.959 70.2287 233.959ZM102.046 223.727V295H89.4476V223.727H102.046ZM127.598 223.727V295H115V223.727H127.598ZM191.554 241.545V251.29H160.825V241.545H191.554ZM168.411 228.739H181.009V278.922C181.009 280.616 181.265 281.915 181.775 282.82C182.309 283.701 183.005 284.304 183.863 284.629C184.722 284.954 185.673 285.116 186.717 285.116C187.506 285.116 188.225 285.058 188.874 284.942C189.547 284.826 190.058 284.722 190.406 284.629L192.529 294.478C191.856 294.71 190.893 294.965 189.64 295.244C188.41 295.522 186.902 295.684 185.116 295.731C181.961 295.824 179.119 295.348 176.59 294.304C174.061 293.237 172.054 291.589 170.569 289.362C169.107 287.135 168.388 284.351 168.411 281.01V228.739ZM215.837 263.679V295H203.239V223.727H215.558V250.629H216.185C217.438 247.612 219.375 245.234 221.996 243.494C224.641 241.731 228.005 240.849 232.089 240.849C235.801 240.849 239.037 241.627 241.798 243.181C244.559 244.736 246.694 247.009 248.202 250.002C249.733 252.995 250.499 256.649 250.499 260.964V295H237.901V262.913C237.901 259.317 236.973 256.522 235.116 254.526C233.284 252.508 230.708 251.499 227.391 251.499C225.163 251.499 223.168 251.986 221.405 252.96C219.665 253.911 218.296 255.292 217.298 257.102C216.324 258.911 215.837 261.104 215.837 263.679ZM287.005 296.044C281.646 296.044 277.017 294.93 273.119 292.703C269.245 290.453 266.263 287.274 264.175 283.168C262.087 279.038 261.043 274.177 261.043 268.586C261.043 263.087 262.087 258.262 264.175 254.109C266.287 249.933 269.233 246.684 273.015 244.364C276.797 242.021 281.24 240.849 286.344 240.849C289.638 240.849 292.747 241.383 295.67 242.45C298.617 243.494 301.215 245.118 303.466 247.322C305.74 249.527 307.526 252.334 308.825 255.744C310.125 259.132 310.774 263.169 310.774 267.855V271.718H266.96V263.227H298.698C298.675 260.814 298.153 258.668 297.132 256.788C296.111 254.886 294.684 253.389 292.852 252.299C291.042 251.209 288.931 250.663 286.518 250.663C283.942 250.663 281.68 251.29 279.732 252.543C277.783 253.772 276.263 255.396 275.173 257.415C274.105 259.41 273.56 261.603 273.537 263.992V271.405C273.537 274.514 274.105 277.182 275.242 279.409C276.379 281.613 277.968 283.307 280.01 284.49C282.052 285.65 284.441 286.23 287.179 286.23C289.012 286.23 290.671 285.975 292.156 285.464C293.64 284.931 294.928 284.154 296.018 283.133C297.109 282.112 297.933 280.848 298.489 279.339L310.252 280.662C309.51 283.771 308.094 286.485 306.006 288.805C303.942 291.102 301.297 292.889 298.072 294.165C294.847 295.418 291.158 296.044 287.005 296.044ZM346.297 295V223.727H391.957V234.55H359.209V253.9H388.824V264.723H359.209V295H346.297ZM422.555 296.044C417.335 296.044 412.811 294.896 408.983 292.599C405.155 290.302 402.185 287.089 400.074 282.959C397.986 278.829 396.942 274.003 396.942 268.482C396.942 262.96 397.986 258.122 400.074 253.969C402.185 249.817 405.155 246.592 408.983 244.295C412.811 241.998 417.335 240.849 422.555 240.849C427.776 240.849 432.3 241.998 436.128 244.295C439.956 246.592 442.914 249.817 445.002 253.969C447.113 258.122 448.169 262.96 448.169 268.482C448.169 274.003 447.113 278.829 445.002 282.959C442.914 287.089 439.956 290.302 436.128 292.599C432.3 294.896 427.776 296.044 422.555 296.044ZM422.625 285.952C425.455 285.952 427.822 285.174 429.724 283.62C431.627 282.042 433.042 279.931 433.97 277.286C434.921 274.641 435.397 271.695 435.397 268.447C435.397 265.175 434.921 262.217 433.97 259.572C433.042 256.904 431.627 254.781 429.724 253.204C427.822 251.626 425.455 250.837 422.625 250.837C419.725 250.837 417.312 251.626 415.386 253.204C413.484 254.781 412.057 256.904 411.106 259.572C410.178 262.217 409.714 265.175 409.714 268.447C409.714 271.695 410.178 274.641 411.106 277.286C412.057 279.931 413.484 282.042 415.386 283.62C417.312 285.174 419.725 285.952 422.625 285.952ZM458.862 295V241.545H471.077V250.455H471.634C472.608 247.369 474.279 244.991 476.645 243.32C479.035 241.627 481.761 240.78 484.823 240.78C485.519 240.78 486.297 240.815 487.155 240.884C488.037 240.931 488.767 241.012 489.347 241.128V252.717C488.814 252.531 487.967 252.369 486.807 252.229C485.67 252.067 484.568 251.986 483.501 251.986C481.204 251.986 479.139 252.485 477.306 253.482C475.497 254.457 474.07 255.814 473.026 257.554C471.982 259.294 471.46 261.301 471.46 263.575V295H458.862ZM497.717 295V241.545H509.758V250.629H510.385C511.498 247.566 513.343 245.176 515.918 243.46C518.493 241.719 521.568 240.849 525.14 240.849C528.76 240.849 531.811 241.731 534.293 243.494C536.799 245.234 538.562 247.612 539.583 250.629H540.14C541.323 247.659 543.318 245.292 546.126 243.529C548.956 241.743 552.309 240.849 556.183 240.849C561.102 240.849 565.115 242.404 568.224 245.513C571.333 248.622 572.888 253.157 572.888 259.12V295H560.255V261.069C560.255 257.751 559.373 255.327 557.61 253.795C555.847 252.241 553.689 251.464 551.137 251.464C548.098 251.464 545.72 252.415 544.003 254.317C542.309 256.197 541.462 258.644 541.462 261.661V295H529.108V260.547C529.108 257.786 528.273 255.582 526.602 253.935C524.955 252.287 522.797 251.464 520.129 251.464C518.319 251.464 516.672 251.928 515.187 252.856C513.702 253.761 512.519 255.048 511.638 256.719C510.756 258.366 510.315 260.292 510.315 262.496V295H497.717Z" fill="white"/>
<path d="M2725.18 915H2701.03V843.727H2725.67C2732.75 843.727 2738.82 845.154 2743.9 848.008C2749.01 850.838 2752.93 854.91 2755.67 860.223C2758.41 865.536 2759.77 871.893 2759.77 879.294C2759.77 886.718 2758.39 893.098 2755.63 898.435C2752.9 903.771 2748.94 907.866 2743.77 910.719C2738.62 913.573 2732.42 915 2725.18 915ZM2713.94 903.829H2724.56C2729.52 903.829 2733.66 902.924 2736.98 901.114C2740.3 899.281 2742.79 896.555 2744.46 892.936C2746.13 889.294 2746.97 884.746 2746.97 879.294C2746.97 873.842 2746.13 869.318 2744.46 865.722C2742.79 862.102 2740.32 859.399 2737.05 857.613C2733.8 855.803 2729.76 854.898 2724.94 854.898H2713.94V903.829ZM2771.48 915V861.545H2784.08V915H2771.48ZM2777.82 853.959C2775.82 853.959 2774.11 853.298 2772.67 851.975C2771.23 850.629 2770.51 849.017 2770.51 847.138C2770.51 845.235 2771.23 843.623 2772.67 842.3C2774.11 840.955 2775.82 840.282 2777.82 840.282C2779.84 840.282 2781.55 840.955 2782.97 842.3C2784.41 843.623 2785.13 845.235 2785.13 847.138C2785.13 849.017 2784.41 850.629 2782.97 851.975C2781.55 853.298 2779.84 853.959 2777.82 853.959ZM2839.29 875.675L2827.8 876.928C2827.48 875.768 2826.91 874.677 2826.1 873.656C2825.31 872.635 2824.24 871.812 2822.89 871.185C2821.55 870.559 2819.9 870.246 2817.95 870.246C2815.33 870.246 2813.13 870.814 2811.34 871.951C2809.58 873.088 2808.71 874.561 2808.73 876.371C2808.71 877.925 2809.28 879.19 2810.44 880.164C2811.62 881.138 2813.57 881.939 2816.28 882.565L2825.4 884.514C2830.46 885.605 2834.22 887.333 2836.68 889.7C2839.16 892.066 2840.41 895.163 2840.43 898.991C2840.41 902.356 2839.43 905.325 2837.48 907.901C2835.55 910.453 2832.87 912.448 2829.44 913.886C2826 915.325 2822.06 916.044 2817.6 916.044C2811.06 916.044 2805.8 914.675 2801.81 911.938C2797.81 909.177 2795.44 905.337 2794.67 900.418L2806.96 899.235C2807.51 901.648 2808.7 903.469 2810.51 904.699C2812.32 905.929 2814.67 906.543 2817.57 906.543C2820.56 906.543 2822.96 905.929 2824.77 904.699C2826.61 903.469 2827.52 901.95 2827.52 900.14C2827.52 898.609 2826.93 897.344 2825.75 896.347C2824.59 895.349 2822.78 894.583 2820.32 894.05L2811.2 892.136C2806.07 891.068 2802.28 889.27 2799.82 886.741C2797.36 884.189 2796.14 880.964 2796.17 877.067C2796.14 873.772 2797.04 870.919 2798.85 868.506C2800.68 866.07 2803.22 864.19 2806.47 862.868C2809.74 861.522 2813.51 860.849 2817.78 860.849C2824.04 860.849 2828.97 862.183 2832.57 864.852C2836.19 867.52 2838.43 871.127 2839.29 875.675ZM2874.14 916.044C2868.8 916.044 2864.22 914.872 2860.39 912.529C2856.59 910.186 2853.65 906.949 2851.59 902.82C2849.55 898.667 2848.53 893.887 2848.53 888.482C2848.53 883.053 2849.57 878.262 2851.66 874.109C2853.75 869.933 2856.69 866.684 2860.5 864.364C2864.33 862.021 2868.85 860.849 2874.07 860.849C2878.41 860.849 2882.25 861.65 2885.59 863.251C2888.95 864.828 2891.63 867.067 2893.63 869.967C2895.62 872.844 2896.76 876.208 2897.04 880.06H2885C2884.51 877.484 2883.35 875.338 2881.52 873.621C2879.71 871.881 2877.28 871.011 2874.24 871.011C2871.67 871.011 2869.41 871.707 2867.46 873.099C2865.51 874.468 2863.99 876.44 2862.9 879.016C2861.83 881.591 2861.3 884.677 2861.3 888.273C2861.3 891.915 2861.83 895.047 2862.9 897.669C2863.97 900.268 2865.46 902.274 2867.39 903.69C2869.34 905.082 2871.62 905.778 2874.24 905.778C2876.1 905.778 2877.76 905.43 2879.22 904.734C2880.71 904.014 2881.95 902.982 2882.94 901.636C2883.94 900.291 2884.63 898.655 2885 896.729H2897.04C2896.74 900.511 2895.62 903.864 2893.7 906.787C2891.77 909.687 2889.15 911.961 2885.83 913.608C2882.51 915.232 2878.62 916.044 2874.14 916.044ZM2941.45 892.518V861.545H2954.05V915H2941.84V905.499H2941.28C2940.07 908.492 2938.09 910.94 2935.33 912.842C2932.59 914.745 2929.22 915.696 2925.2 915.696C2921.7 915.696 2918.6 914.919 2915.91 913.364C2913.24 911.787 2911.15 909.501 2909.65 906.509C2908.14 903.492 2907.38 899.85 2907.38 895.581V861.545H2919.98V893.632C2919.98 897.019 2920.91 899.711 2922.77 901.706C2924.62 903.701 2927.06 904.699 2930.07 904.699C2931.93 904.699 2933.73 904.246 2935.47 903.342C2937.21 902.437 2938.63 901.091 2939.75 899.305C2940.89 897.495 2941.45 895.233 2941.45 892.518ZM3009.25 875.675L2997.77 876.928C2997.45 875.768 2996.88 874.677 2996.07 873.656C2995.28 872.635 2994.21 871.812 2992.86 871.185C2991.52 870.559 2989.87 870.246 2987.92 870.246C2985.3 870.246 2983.1 870.814 2981.31 871.951C2979.55 873.088 2978.68 874.561 2978.7 876.371C2978.68 877.925 2979.24 879.19 2980.4 880.164C2981.59 881.138 2983.54 881.939 2986.25 882.565L2995.37 884.514C3000.43 885.605 3004.19 887.333 3006.64 889.7C3009.13 892.066 3010.38 895.163 3010.4 898.991C3010.38 902.356 3009.39 905.325 3007.45 907.901C3005.52 910.453 3002.84 912.448 2999.41 913.886C2995.97 915.325 2992.03 916.044 2987.57 916.044C2981.03 916.044 2975.76 914.675 2971.77 911.938C2967.78 909.177 2965.41 905.337 2964.64 900.418L2976.92 899.235C2977.48 901.648 2978.66 903.469 2980.47 904.699C2982.28 905.929 2984.64 906.543 2987.54 906.543C2990.53 906.543 2992.93 905.929 2994.74 904.699C2996.58 903.469 2997.49 901.95 2997.49 900.14C2997.49 898.609 2996.9 897.344 2995.72 896.347C2994.56 895.349 2992.75 894.583 2990.29 894.05L2981.17 892.136C2976.04 891.068 2972.25 889.27 2969.79 886.741C2967.33 884.189 2966.11 880.964 2966.14 877.067C2966.11 873.772 2967.01 870.919 2968.82 868.506C2970.65 866.07 2973.19 864.19 2976.44 862.868C2979.71 861.522 2983.48 860.849 2987.75 860.849C2994.01 860.849 2998.94 862.183 3002.54 864.852C3006.16 867.52 3008.4 871.127 3009.25 875.675ZM3063.04 875.675L3051.56 876.928C3051.23 875.768 3050.66 874.677 3049.85 873.656C3049.06 872.635 3047.99 871.812 3046.65 871.185C3045.3 870.559 3043.66 870.246 3041.71 870.246C3039.09 870.246 3036.88 870.814 3035.09 871.951C3033.33 873.088 3032.46 874.561 3032.48 876.371C3032.46 877.925 3033.03 879.19 3034.19 880.164C3035.37 881.138 3037.32 881.939 3040.04 882.565L3049.15 884.514C3054.21 885.605 3057.97 887.333 3060.43 889.7C3062.91 892.066 3064.17 895.163 3064.19 898.991C3064.17 902.356 3063.18 905.325 3061.23 907.901C3059.3 910.453 3056.62 912.448 3053.19 913.886C3049.76 915.325 3045.81 916.044 3041.36 916.044C3034.82 916.044 3029.55 914.675 3025.56 911.938C3021.57 909.177 3019.19 905.337 3018.42 900.418L3030.71 899.235C3031.27 901.648 3032.45 903.469 3034.26 904.699C3036.07 905.929 3038.42 906.543 3041.32 906.543C3044.32 906.543 3046.72 905.929 3048.53 904.699C3050.36 903.469 3051.28 901.95 3051.28 900.14C3051.28 898.609 3050.69 897.344 3049.5 896.347C3048.34 895.349 3046.53 894.583 3044.07 894.05L3034.96 892.136C3029.83 891.068 3026.03 889.27 3023.58 886.741C3021.12 884.189 3019.9 880.964 3019.92 877.067C3019.9 873.772 3020.79 870.919 3022.6 868.506C3024.43 866.07 3026.97 864.19 3030.22 862.868C3033.49 861.522 3037.26 860.849 3041.53 860.849C3047.8 860.849 3052.73 862.183 3056.32 864.852C3059.94 867.52 3062.18 871.127 3063.04 875.675ZM2701.03 1034V962.727H2727.76C2733.23 962.727 2737.83 963.679 2741.54 965.581C2745.27 967.483 2748.09 970.152 2750 973.585C2751.92 976.996 2752.88 980.975 2752.88 985.522C2752.88 990.093 2751.91 994.06 2749.96 997.424C2748.03 1000.76 2745.19 1003.35 2741.43 1005.18C2737.68 1006.99 2733.06 1007.9 2727.58 1007.9H2708.55V997.18H2725.84C2729.04 997.18 2731.67 996.74 2733.71 995.858C2735.75 994.953 2737.26 993.642 2738.23 991.925C2739.23 990.185 2739.73 988.051 2739.73 985.522C2739.73 982.993 2739.23 980.835 2738.23 979.049C2737.23 977.239 2735.71 975.87 2733.67 974.942C2731.63 973.991 2729 973.516 2725.77 973.516H2713.94V1034H2701.03ZM2737.85 1001.7L2755.49 1034H2741.09L2723.75 1001.7H2737.85ZM2787.11 1035.04C2781.75 1035.04 2777.12 1033.93 2773.22 1031.7C2769.35 1029.45 2766.37 1026.27 2764.28 1022.17C2762.19 1018.04 2761.15 1013.18 2761.15 1007.59C2761.15 1002.09 2762.19 997.262 2764.28 993.109C2766.39 988.933 2769.34 985.684 2773.12 983.364C2776.9 981.021 2781.35 979.849 2786.45 979.849C2789.74 979.849 2792.85 980.383 2795.78 981.45C2798.72 982.494 2801.32 984.118 2803.57 986.322C2805.85 988.527 2807.63 991.334 2808.93 994.744C2810.23 998.132 2810.88 1002.17 2810.88 1006.86V1010.72H2767.06V1002.23H2798.8C2798.78 999.814 2798.26 997.668 2797.24 995.788C2796.22 993.886 2794.79 992.389 2792.96 991.299C2791.15 990.209 2789.04 989.663 2786.62 989.663C2784.05 989.663 2781.79 990.29 2779.84 991.543C2777.89 992.772 2776.37 994.396 2775.28 996.415C2774.21 998.41 2773.67 1000.6 2773.64 1002.99V1010.4C2773.64 1013.51 2774.21 1016.18 2775.35 1018.41C2776.48 1020.61 2778.07 1022.31 2780.12 1023.49C2782.16 1024.65 2784.55 1025.23 2787.28 1025.23C2789.12 1025.23 2790.78 1024.97 2792.26 1024.46C2793.75 1023.93 2795.03 1023.15 2796.12 1022.13C2797.21 1021.11 2798.04 1019.85 2798.59 1018.34L2810.36 1019.66C2809.62 1022.77 2808.2 1025.49 2806.11 1027.81C2804.05 1030.1 2801.4 1031.89 2798.18 1033.16C2794.95 1034.42 2791.26 1035.04 2787.11 1035.04ZM2857.21 1054.05V1025.58H2856.69C2856.04 1026.88 2855.1 1028.26 2853.87 1029.72C2852.64 1031.16 2851.01 1032.39 2849 1033.41C2846.98 1034.43 2844.44 1034.94 2841.37 1034.94C2837.17 1034.94 2833.42 1033.86 2830.1 1031.7C2826.78 1029.55 2824.16 1026.41 2822.23 1022.31C2820.31 1018.2 2819.34 1013.21 2819.34 1007.34C2819.34 1001.4 2820.32 996.392 2822.27 992.308C2824.24 988.202 2826.9 985.104 2830.24 983.016C2833.58 980.905 2837.3 979.849 2841.41 979.849C2844.54 979.849 2847.12 980.383 2849.13 981.45C2851.15 982.494 2852.75 983.759 2853.94 985.244C2855.12 986.705 2856.04 988.086 2856.69 989.385H2857.45V980.545H2869.84V1054.05H2857.21ZM2844.89 1024.6C2847.56 1024.6 2849.83 1023.88 2851.71 1022.45C2853.59 1020.98 2855.02 1018.95 2855.99 1016.36C2856.97 1013.76 2857.45 1010.73 2857.45 1007.27C2857.45 1003.82 2856.97 1000.81 2855.99 998.259C2855.04 995.707 2853.62 993.723 2851.74 992.308C2849.89 990.893 2847.6 990.185 2844.89 990.185C2842.08 990.185 2839.74 990.916 2837.86 992.378C2835.98 993.839 2834.56 995.858 2833.61 998.433C2832.66 1001.01 2832.19 1003.96 2832.19 1007.27C2832.19 1010.61 2832.66 1013.59 2833.61 1016.22C2834.59 1018.82 2836.01 1020.87 2837.89 1022.38C2839.8 1023.86 2842.13 1024.6 2844.89 1024.6ZM2916.86 1011.52V980.545H2929.46V1034H2917.24V1024.5H2916.68C2915.48 1027.49 2913.49 1029.94 2910.73 1031.84C2908 1033.74 2904.62 1034.7 2900.61 1034.7C2897.1 1034.7 2894.01 1033.92 2891.31 1032.36C2888.65 1030.79 2886.56 1028.5 2885.05 1025.51C2883.54 1022.49 2882.79 1018.85 2882.79 1014.58V980.545H2895.39V1012.63C2895.39 1016.02 2896.31 1018.71 2898.17 1020.71C2900.03 1022.7 2902.46 1023.7 2905.48 1023.7C2907.33 1023.7 2909.13 1023.25 2910.87 1022.34C2912.61 1021.44 2914.04 1020.09 2915.15 1018.3C2916.29 1016.5 2916.86 1014.23 2916.86 1011.52ZM2942.41 1034V980.545H2955.01V1034H2942.41ZM2948.74 972.959C2946.75 972.959 2945.03 972.298 2943.59 970.975C2942.16 969.629 2941.44 968.017 2941.44 966.138C2941.44 964.235 2942.16 962.623 2943.59 961.3C2945.03 959.955 2946.75 959.282 2948.74 959.282C2950.76 959.282 2952.48 959.955 2953.89 961.3C2955.33 962.623 2956.05 964.235 2956.05 966.138C2956.05 968.017 2955.33 969.629 2953.89 970.975C2952.48 972.298 2950.76 972.959 2948.74 972.959ZM2967.96 1034V980.545H2980.18V989.455H2980.74C2981.71 986.369 2983.38 983.991 2985.75 982.32C2988.14 980.627 2990.86 979.78 2993.92 979.78C2994.62 979.78 2995.4 979.815 2996.26 979.884C2997.14 979.931 2997.87 980.012 2998.45 980.128V991.717C2997.92 991.531 2997.07 991.369 2995.91 991.229C2994.77 991.067 2993.67 990.986 2992.6 990.986C2990.31 990.986 2988.24 991.485 2986.41 992.482C2984.6 993.457 2983.17 994.814 2982.13 996.554C2981.08 998.294 2980.56 1000.3 2980.56 1002.57V1034H2967.96ZM3028.28 1035.04C3022.92 1035.04 3018.29 1033.93 3014.4 1031.7C3010.52 1029.45 3007.54 1026.27 3005.45 1022.17C3003.36 1018.04 3002.32 1013.18 3002.32 1007.59C3002.32 1002.09 3003.36 997.262 3005.45 993.109C3007.56 988.933 3010.51 985.684 3014.29 983.364C3018.07 981.021 3022.52 979.849 3027.62 979.849C3030.92 979.849 3034.02 980.383 3036.95 981.45C3039.89 982.494 3042.49 984.118 3044.74 986.322C3047.02 988.527 3048.8 991.334 3050.1 994.744C3051.4 998.132 3052.05 1002.17 3052.05 1006.86V1010.72H3008.24V1002.23H3039.98C3039.95 999.814 3039.43 997.668 3038.41 995.788C3037.39 993.886 3035.96 992.389 3034.13 991.299C3032.32 990.209 3030.21 989.663 3027.8 989.663C3025.22 989.663 3022.96 990.29 3021.01 991.543C3019.06 992.772 3017.54 994.396 3016.45 996.415C3015.38 998.41 3014.84 1000.6 3014.81 1002.99V1010.4C3014.81 1013.51 3015.38 1016.18 3016.52 1018.41C3017.66 1020.61 3019.25 1022.31 3021.29 1023.49C3023.33 1024.65 3025.72 1025.23 3028.46 1025.23C3030.29 1025.23 3031.95 1024.97 3033.43 1024.46C3034.92 1023.93 3036.21 1023.15 3037.3 1022.13C3038.39 1021.11 3039.21 1019.85 3039.77 1018.34L3051.53 1019.66C3050.79 1022.77 3049.37 1025.49 3047.28 1027.81C3045.22 1030.1 3042.57 1031.89 3039.35 1033.16C3036.12 1034.42 3032.44 1035.04 3028.28 1035.04ZM3062.71 1034V980.545H3074.75V989.629H3075.38C3076.49 986.566 3078.34 984.176 3080.91 982.46C3083.49 980.719 3086.56 979.849 3090.13 979.849C3093.75 979.849 3096.8 980.731 3099.29 982.494C3101.79 984.234 3103.55 986.612 3104.58 989.629H3105.13C3106.32 986.659 3108.31 984.292 3111.12 982.529C3113.95 980.743 3117.3 979.849 3121.18 979.849C3126.09 979.849 3130.11 981.404 3133.22 984.513C3136.33 987.622 3137.88 992.157 3137.88 998.12V1034H3125.25V1000.07C3125.25 996.751 3124.37 994.327 3122.6 992.795C3120.84 991.241 3118.68 990.464 3116.13 990.464C3113.09 990.464 3110.71 991.415 3108.99 993.317C3107.3 995.197 3106.45 997.644 3106.45 1000.66V1034H3094.1V999.547C3094.1 996.786 3093.26 994.582 3091.59 992.935C3089.95 991.287 3087.79 990.464 3085.12 990.464C3083.31 990.464 3081.66 990.928 3080.18 991.856C3078.69 992.761 3077.51 994.048 3076.63 995.719C3075.75 997.366 3075.31 999.292 3075.31 1001.5V1034H3062.71ZM3174.33 1035.04C3168.97 1035.04 3164.34 1033.93 3160.44 1031.7C3156.57 1029.45 3153.58 1026.27 3151.5 1022.17C3149.41 1018.04 3148.36 1013.18 3148.36 1007.59C3148.36 1002.09 3149.41 997.262 3151.5 993.109C3153.61 988.933 3156.55 985.684 3160.34 983.364C3164.12 981.021 3168.56 979.849 3173.66 979.849C3176.96 979.849 3180.07 980.383 3182.99 981.45C3185.94 982.494 3188.54 984.118 3190.79 986.322C3193.06 988.527 3194.85 991.334 3196.15 994.744C3197.44 998.132 3198.09 1002.17 3198.09 1006.86V1010.72H3154.28V1002.23H3186.02C3186 999.814 3185.47 997.668 3184.45 995.788C3183.43 993.886 3182 992.389 3180.17 991.299C3178.36 990.209 3176.25 989.663 3173.84 989.663C3171.26 989.663 3169 990.29 3167.05 991.543C3165.1 992.772 3163.58 994.396 3162.49 996.415C3161.43 998.41 3160.88 1000.6 3160.86 1002.99V1010.4C3160.86 1013.51 3161.43 1016.18 3162.56 1018.41C3163.7 1020.61 3165.29 1022.31 3167.33 1023.49C3169.37 1024.65 3171.76 1025.23 3174.5 1025.23C3176.33 1025.23 3177.99 1024.97 3179.48 1024.46C3180.96 1023.93 3182.25 1023.15 3183.34 1022.13C3184.43 1021.11 3185.25 1019.85 3185.81 1018.34L3197.57 1019.66C3196.83 1022.77 3195.41 1025.49 3193.33 1027.81C3191.26 1030.1 3188.62 1031.89 3185.39 1033.16C3182.17 1034.42 3178.48 1035.04 3174.33 1035.04ZM3221.35 1002.68V1034H3208.75V980.545H3220.79V989.629H3221.42C3222.65 986.636 3224.61 984.258 3227.3 982.494C3230.02 980.731 3233.37 979.849 3237.36 979.849C3241.05 979.849 3244.26 980.638 3247 982.216C3249.76 983.794 3251.89 986.079 3253.4 989.072C3254.93 992.065 3255.69 995.696 3255.66 999.964V1034H3243.07V1001.91C3243.07 998.34 3242.14 995.545 3240.28 993.526C3238.45 991.508 3235.91 990.499 3232.66 990.499C3230.46 990.499 3228.5 990.986 3226.78 991.96C3225.09 992.911 3223.75 994.292 3222.78 996.102C3221.83 997.911 3221.35 1000.1 3221.35 1002.68ZM3295.16 980.545V990.29H3264.43V980.545H3295.16ZM3272.02 967.739H3284.62V1017.92C3284.62 1019.62 3284.87 1020.91 3285.38 1021.82C3285.92 1022.7 3286.61 1023.3 3287.47 1023.63C3288.33 1023.95 3289.28 1024.12 3290.33 1024.12C3291.11 1024.12 3291.83 1024.06 3292.48 1023.94C3293.16 1023.83 3293.67 1023.72 3294.02 1023.63L3296.14 1033.48C3295.47 1033.71 3294.5 1033.97 3293.25 1034.24C3292.02 1034.52 3290.51 1034.68 3288.73 1034.73C3285.57 1034.82 3282.73 1034.35 3280.2 1033.3C3277.67 1032.24 3275.66 1030.59 3274.18 1028.36C3272.72 1026.13 3272 1023.35 3272.02 1020.01V967.739Z" fill="white"/>
<path d="M129.183 1521H115.401L140.493 1449.73H156.432L181.558 1521H167.777L148.741 1464.34H148.184L129.183 1521ZM129.635 1493.05H167.22V1503.43H129.635V1493.05ZM212.079 1522.04C206.743 1522.04 202.161 1520.87 198.332 1518.53C194.527 1516.19 191.593 1512.95 189.528 1508.82C187.486 1504.67 186.465 1499.89 186.465 1494.48C186.465 1489.05 187.509 1484.26 189.597 1480.11C191.685 1475.93 194.632 1472.68 198.437 1470.36C202.265 1468.02 206.789 1466.85 212.009 1466.85C216.348 1466.85 220.188 1467.65 223.528 1469.25C226.893 1470.83 229.572 1473.07 231.567 1475.97C233.563 1478.84 234.7 1482.21 234.978 1486.06H222.937C222.45 1483.48 221.29 1481.34 219.457 1479.62C217.647 1477.88 215.223 1477.01 212.183 1477.01C209.608 1477.01 207.346 1477.71 205.397 1479.1C203.448 1480.47 201.929 1482.44 200.838 1485.02C199.771 1487.59 199.237 1490.68 199.237 1494.27C199.237 1497.92 199.771 1501.05 200.838 1503.67C201.905 1506.27 203.402 1508.27 205.327 1509.69C207.276 1511.08 209.562 1511.78 212.183 1511.78C214.039 1511.78 215.698 1511.43 217.16 1510.73C218.645 1510.01 219.886 1508.98 220.884 1507.64C221.881 1506.29 222.566 1504.66 222.937 1502.73H234.978C234.676 1506.51 233.563 1509.86 231.637 1512.79C229.711 1515.69 227.09 1517.96 223.772 1519.61C220.454 1521.23 216.557 1522.04 212.079 1522.04ZM268.639 1522.04C263.303 1522.04 258.721 1520.87 254.893 1518.53C251.088 1516.19 248.153 1512.95 246.088 1508.82C244.047 1504.67 243.026 1499.89 243.026 1494.48C243.026 1489.05 244.07 1484.26 246.158 1480.11C248.246 1475.93 251.192 1472.68 254.997 1470.36C258.825 1468.02 263.35 1466.85 268.57 1466.85C272.908 1466.85 276.748 1467.65 280.089 1469.25C283.453 1470.83 286.133 1473.07 288.128 1475.97C290.123 1478.84 291.26 1482.21 291.539 1486.06H279.497C279.01 1483.48 277.85 1481.34 276.017 1479.62C274.208 1477.88 271.783 1477.01 268.744 1477.01C266.169 1477.01 263.906 1477.71 261.958 1479.1C260.009 1480.47 258.489 1482.44 257.399 1485.02C256.331 1487.59 255.798 1490.68 255.798 1494.27C255.798 1497.92 256.331 1501.05 257.399 1503.67C258.466 1506.27 259.962 1508.27 261.888 1509.69C263.837 1511.08 266.122 1511.78 268.744 1511.78C270.6 1511.78 272.259 1511.43 273.72 1510.73C275.205 1510.01 276.446 1508.98 277.444 1507.64C278.442 1506.29 279.126 1504.66 279.497 1502.73H291.539C291.237 1506.51 290.123 1509.86 288.198 1512.79C286.272 1515.69 283.65 1517.96 280.333 1519.61C277.015 1521.23 273.117 1522.04 268.639 1522.04ZM325.548 1522.04C320.189 1522.04 315.56 1520.93 311.662 1518.7C307.788 1516.45 304.806 1513.27 302.718 1509.17C300.63 1505.04 299.586 1500.18 299.586 1494.59C299.586 1489.09 300.63 1484.26 302.718 1480.11C304.83 1475.93 307.776 1472.68 311.558 1470.36C315.34 1468.02 319.783 1466.85 324.887 1466.85C328.181 1466.85 331.29 1467.38 334.213 1468.45C337.16 1469.49 339.758 1471.12 342.009 1473.32C344.283 1475.53 346.069 1478.33 347.368 1481.74C348.667 1485.13 349.317 1489.17 349.317 1493.86V1497.72H305.502V1489.23H337.241C337.218 1486.81 336.696 1484.67 335.675 1482.79C334.654 1480.89 333.227 1479.39 331.395 1478.3C329.585 1477.21 327.474 1476.66 325.061 1476.66C322.485 1476.66 320.223 1477.29 318.275 1478.54C316.326 1479.77 314.806 1481.4 313.716 1483.41C312.648 1485.41 312.103 1487.6 312.08 1489.99V1497.4C312.08 1500.51 312.648 1503.18 313.785 1505.41C314.922 1507.61 316.511 1509.31 318.553 1510.49C320.595 1511.65 322.984 1512.23 325.722 1512.23C327.555 1512.23 329.214 1511.97 330.699 1511.46C332.183 1510.93 333.471 1510.15 334.561 1509.13C335.652 1508.11 336.475 1506.85 337.032 1505.34L348.795 1506.66C348.053 1509.77 346.637 1512.49 344.549 1514.81C342.484 1517.1 339.84 1518.89 336.615 1520.16C333.39 1521.42 329.701 1522.04 325.548 1522.04ZM359.975 1541.05V1467.55H372.364V1476.38H373.095C373.745 1475.09 374.661 1473.71 375.844 1472.24C377.028 1470.76 378.628 1469.49 380.647 1468.45C382.665 1467.38 385.241 1466.85 388.373 1466.85C392.502 1466.85 396.226 1467.91 399.544 1470.02C402.885 1472.1 405.53 1475.2 407.479 1479.31C409.451 1483.39 410.437 1488.4 410.437 1494.34C410.437 1500.21 409.474 1505.2 407.548 1509.31C405.622 1513.41 403.001 1516.55 399.683 1518.7C396.365 1520.86 392.607 1521.94 388.407 1521.94C385.345 1521.94 382.805 1521.43 380.786 1520.41C378.768 1519.39 377.144 1518.16 375.914 1516.72C374.707 1515.26 373.768 1513.88 373.095 1512.58H372.573V1541.05H359.975ZM372.329 1494.27C372.329 1497.73 372.817 1500.76 373.791 1503.36C374.789 1505.95 376.215 1507.98 378.072 1509.45C379.951 1510.88 382.224 1511.6 384.893 1511.6C387.677 1511.6 390.008 1510.86 391.888 1509.38C393.767 1507.87 395.182 1505.82 396.133 1503.22C397.108 1500.59 397.595 1497.61 397.595 1494.27C397.595 1490.96 397.119 1488.01 396.168 1485.43C395.217 1482.86 393.802 1480.84 391.922 1479.38C390.043 1477.92 387.7 1477.19 384.893 1477.19C382.201 1477.19 379.916 1477.89 378.037 1479.31C376.157 1480.72 374.731 1482.71 373.756 1485.26C372.805 1487.81 372.329 1490.82 372.329 1494.27ZM447.917 1467.55V1477.29H417.188V1467.55H447.917ZM424.775 1454.74H437.373V1504.92C437.373 1506.62 437.628 1507.91 438.138 1508.82C438.672 1509.7 439.368 1510.3 440.226 1510.63C441.085 1510.95 442.036 1511.12 443.08 1511.12C443.869 1511.12 444.588 1511.06 445.238 1510.94C445.911 1510.83 446.421 1510.72 446.769 1510.63L448.892 1520.48C448.219 1520.71 447.256 1520.97 446.003 1521.24C444.774 1521.52 443.266 1521.68 441.479 1521.73C438.324 1521.82 435.482 1521.35 432.953 1520.3C430.424 1519.24 428.417 1517.59 426.932 1515.36C425.471 1513.13 424.751 1510.35 424.775 1507.01V1454.74ZM547.005 1485.36C547.005 1493.04 545.567 1499.62 542.69 1505.1C539.836 1510.55 535.938 1514.72 530.996 1517.62C526.078 1520.52 520.498 1521.97 514.257 1521.97C508.016 1521.97 502.425 1520.52 497.483 1517.62C492.564 1514.7 488.667 1510.51 485.79 1505.06C482.936 1499.59 481.509 1493.02 481.509 1485.36C481.509 1477.68 482.936 1471.12 485.79 1465.67C488.667 1460.19 492.564 1456 497.483 1453.1C502.425 1450.2 508.016 1448.75 514.257 1448.75C520.498 1448.75 526.078 1450.2 530.996 1453.1C535.938 1456 539.836 1460.19 542.69 1465.67C545.567 1471.12 547.005 1477.68 547.005 1485.36ZM534.024 1485.36C534.024 1479.96 533.177 1475.4 531.484 1471.69C529.813 1467.95 527.493 1465.13 524.523 1463.23C521.554 1461.3 518.132 1460.34 514.257 1460.34C510.383 1460.34 506.96 1461.3 503.991 1463.23C501.021 1465.13 498.689 1467.95 496.996 1471.69C495.325 1475.4 494.49 1479.96 494.49 1485.36C494.49 1490.77 495.325 1495.34 496.996 1499.08C498.689 1502.79 501.021 1505.61 503.991 1507.53C506.96 1509.43 510.383 1510.39 514.257 1510.39C518.132 1510.39 521.554 1509.43 524.523 1507.53C527.493 1505.61 529.813 1502.79 531.484 1499.08C533.177 1495.34 534.024 1490.77 534.024 1485.36ZM592.725 1498.52V1467.55H605.323V1521H593.108V1511.5H592.551C591.345 1514.49 589.361 1516.94 586.6 1518.84C583.862 1520.74 580.487 1521.7 576.473 1521.7C572.97 1521.7 569.872 1520.92 567.181 1519.36C564.513 1517.79 562.425 1515.5 560.917 1512.51C559.409 1509.49 558.655 1505.85 558.655 1501.58V1467.55H571.253V1499.63C571.253 1503.02 572.181 1505.71 574.037 1507.71C575.893 1509.7 578.329 1510.7 581.345 1510.7C583.201 1510.7 584.999 1510.25 586.739 1509.34C588.479 1508.44 589.906 1507.09 591.02 1505.3C592.157 1503.5 592.725 1501.23 592.725 1498.52ZM618.278 1521V1467.55H630.493V1476.45H631.05C632.024 1473.37 633.695 1470.99 636.061 1469.32C638.451 1467.63 641.177 1466.78 644.239 1466.78C644.935 1466.78 645.713 1466.81 646.571 1466.88C647.453 1466.93 648.183 1467.01 648.763 1467.13V1478.72C648.23 1478.53 647.383 1478.37 646.223 1478.23C645.086 1478.07 643.984 1477.99 642.917 1477.99C640.62 1477.99 638.555 1478.48 636.722 1479.48C634.913 1480.46 633.486 1481.81 632.442 1483.55C631.398 1485.29 630.876 1487.3 630.876 1489.57V1521H618.278ZM745.685 1485.36C745.685 1493.04 744.246 1499.62 741.369 1505.1C738.516 1510.55 734.618 1514.72 729.676 1517.62C724.758 1520.52 719.178 1521.97 712.937 1521.97C706.696 1521.97 701.104 1520.52 696.163 1517.62C691.244 1514.7 687.346 1510.51 684.469 1505.06C681.616 1499.59 680.189 1493.02 680.189 1485.36C680.189 1477.68 681.616 1471.12 684.469 1465.67C687.346 1460.19 691.244 1456 696.163 1453.1C701.104 1450.2 706.696 1448.75 712.937 1448.75C719.178 1448.75 724.758 1450.2 729.676 1453.1C734.618 1456 738.516 1460.19 741.369 1465.67C744.246 1471.12 745.685 1477.68 745.685 1485.36ZM732.704 1485.36C732.704 1479.96 731.857 1475.4 730.163 1471.69C728.493 1467.95 726.173 1465.13 723.203 1463.23C720.233 1461.3 716.811 1460.34 712.937 1460.34C709.062 1460.34 705.64 1461.3 702.67 1463.23C699.701 1465.13 697.369 1467.95 695.675 1471.69C694.005 1475.4 693.17 1479.96 693.17 1485.36C693.17 1490.77 694.005 1495.34 695.675 1499.08C697.369 1502.79 699.701 1505.61 702.67 1507.53C705.64 1509.43 709.062 1510.39 712.937 1510.39C716.811 1510.39 720.233 1509.43 723.203 1507.53C726.173 1505.61 728.493 1502.79 730.163 1499.08C731.857 1495.34 732.704 1490.77 732.704 1485.36ZM784.41 1467.55V1477.29H752.81V1467.55H784.41ZM760.71 1521V1462.5C760.71 1458.9 761.452 1455.91 762.937 1453.52C764.445 1451.13 766.464 1449.34 768.993 1448.16C771.522 1446.98 774.329 1446.39 777.415 1446.39C779.595 1446.39 781.533 1446.56 783.226 1446.91C784.92 1447.26 786.173 1447.57 786.985 1447.85L784.479 1457.59C783.946 1457.43 783.273 1457.27 782.461 1457.11C781.649 1456.92 780.744 1456.83 779.746 1456.83C777.403 1456.83 775.744 1457.4 774.77 1458.53C773.818 1459.65 773.343 1461.25 773.343 1463.33V1521H760.71ZM821.351 1467.55V1477.29H789.752V1467.55H821.351ZM797.651 1521V1462.5C797.651 1458.9 798.394 1455.91 799.879 1453.52C801.387 1451.13 803.405 1449.34 805.934 1448.16C808.463 1446.98 811.27 1446.39 814.356 1446.39C816.537 1446.39 818.474 1446.56 820.168 1446.91C821.861 1447.26 823.114 1447.57 823.926 1447.85L821.421 1457.59C820.887 1457.43 820.214 1457.27 819.402 1457.11C818.59 1456.92 817.685 1456.83 816.688 1456.83C814.344 1456.83 812.686 1457.4 811.711 1458.53C810.76 1459.65 810.284 1461.25 810.284 1463.33V1521H797.651ZM852.872 1522.04C847.513 1522.04 842.884 1520.93 838.987 1518.7C835.112 1516.45 832.131 1513.27 830.043 1509.17C827.955 1505.04 826.911 1500.18 826.911 1494.59C826.911 1489.09 827.955 1484.26 830.043 1480.11C832.154 1475.93 835.1 1472.68 838.882 1470.36C842.664 1468.02 847.107 1466.85 852.211 1466.85C855.505 1466.85 858.614 1467.38 861.538 1468.45C864.484 1469.49 867.083 1471.12 869.333 1473.32C871.607 1475.53 873.393 1478.33 874.692 1481.74C875.992 1485.13 876.641 1489.17 876.641 1493.86V1497.72H832.827V1489.23H864.565C864.542 1486.81 864.02 1484.67 862.999 1482.79C861.978 1480.89 860.552 1479.39 858.719 1478.3C856.909 1477.21 854.798 1476.66 852.385 1476.66C849.81 1476.66 847.548 1477.29 845.599 1478.54C843.65 1479.77 842.13 1481.4 841.04 1483.41C839.973 1485.41 839.427 1487.6 839.404 1489.99V1497.4C839.404 1500.51 839.973 1503.18 841.109 1505.41C842.246 1507.61 843.835 1509.31 845.877 1510.49C847.919 1511.65 850.308 1512.23 853.046 1512.23C854.879 1512.23 856.538 1511.97 858.023 1511.46C859.508 1510.93 860.795 1510.15 861.886 1509.13C862.976 1508.11 863.8 1506.85 864.357 1505.34L876.119 1506.66C875.377 1509.77 873.962 1512.49 871.874 1514.81C869.809 1517.1 867.164 1518.89 863.939 1520.16C860.714 1521.42 857.025 1522.04 852.872 1522.04ZM887.299 1521V1467.55H899.514V1476.45H900.071C901.046 1473.37 902.716 1470.99 905.083 1469.32C907.472 1467.63 910.198 1466.78 913.261 1466.78C913.957 1466.78 914.734 1466.81 915.593 1466.88C916.474 1466.93 917.205 1467.01 917.785 1467.13V1478.72C917.251 1478.53 916.405 1478.37 915.244 1478.23C914.108 1478.07 913.006 1477.99 911.938 1477.99C909.642 1477.99 907.577 1478.48 905.744 1479.48C903.934 1480.46 902.507 1481.81 901.463 1483.55C900.419 1485.29 899.897 1487.3 899.897 1489.57V1521H887.299Z" fill="white"/>
<path d="M372.898 2511.55V2500.73H429.763V2511.55H407.734V2572H394.927V2511.55H372.898ZM456.081 2573.04C450.722 2573.04 446.093 2571.93 442.195 2569.7C438.321 2567.45 435.34 2564.27 433.252 2560.17C431.164 2556.04 430.119 2551.18 430.119 2545.59C430.119 2540.09 431.164 2535.26 433.252 2531.11C435.363 2526.93 438.309 2523.68 442.091 2521.36C445.873 2519.02 450.316 2517.85 455.42 2517.85C458.714 2517.85 461.823 2518.38 464.747 2519.45C467.693 2520.49 470.292 2522.12 472.542 2524.32C474.816 2526.53 476.602 2529.33 477.901 2532.74C479.201 2536.13 479.85 2540.17 479.85 2544.86V2548.72H436.036V2540.23H467.774C467.751 2537.81 467.229 2535.67 466.208 2533.79C465.187 2531.89 463.761 2530.39 461.928 2529.3C460.118 2528.21 458.007 2527.66 455.594 2527.66C453.019 2527.66 450.757 2528.29 448.808 2529.54C446.859 2530.77 445.339 2532.4 444.249 2534.41C443.182 2536.41 442.636 2538.6 442.613 2540.99V2548.4C442.613 2551.51 443.182 2554.18 444.318 2556.41C445.455 2558.61 447.044 2560.31 449.086 2561.49C451.128 2562.65 453.517 2563.23 456.255 2563.23C458.088 2563.23 459.747 2562.97 461.232 2562.46C462.717 2561.93 464.004 2561.15 465.095 2560.13C466.185 2559.11 467.009 2557.85 467.566 2556.34L479.328 2557.66C478.586 2560.77 477.171 2563.49 475.083 2565.81C473.018 2568.1 470.373 2569.89 467.148 2571.16C463.923 2572.42 460.234 2573.04 456.081 2573.04ZM505.89 2573.08C502.503 2573.08 499.452 2572.48 496.738 2571.27C494.046 2570.04 491.912 2568.23 490.334 2565.84C488.78 2563.45 488.002 2560.5 488.002 2557C488.002 2553.98 488.559 2551.49 489.673 2549.52C490.787 2547.55 492.306 2545.97 494.232 2544.79C496.158 2543.6 498.327 2542.71 500.74 2542.11C503.176 2541.48 505.693 2541.03 508.292 2540.75C511.424 2540.42 513.964 2540.13 515.913 2539.88C517.862 2539.6 519.277 2539.18 520.159 2538.63C521.064 2538.05 521.516 2537.15 521.516 2535.95V2535.74C521.516 2533.12 520.739 2531.09 519.184 2529.65C517.63 2528.21 515.391 2527.49 512.468 2527.49C509.382 2527.49 506.934 2528.16 505.125 2529.51C503.338 2530.85 502.132 2532.44 501.505 2534.28L489.743 2532.61C490.671 2529.36 492.202 2526.64 494.336 2524.46C496.471 2522.26 499.081 2520.61 502.167 2519.52C505.252 2518.41 508.663 2517.85 512.398 2517.85C514.973 2517.85 517.537 2518.15 520.089 2518.75C522.641 2519.36 524.973 2520.36 527.084 2521.75C529.195 2523.12 530.889 2524.98 532.165 2527.35C533.464 2529.72 534.114 2532.67 534.114 2536.22V2572H522.003V2564.66H521.586C520.82 2566.14 519.741 2567.53 518.349 2568.83C516.98 2570.11 515.252 2571.14 513.164 2571.93C511.099 2572.7 508.674 2573.08 505.89 2573.08ZM509.162 2563.82C511.69 2563.82 513.883 2563.32 515.739 2562.33C517.595 2561.3 519.022 2559.96 520.02 2558.29C521.04 2556.62 521.551 2554.8 521.551 2552.82V2546.53C521.156 2546.85 520.484 2547.15 519.532 2547.43C518.604 2547.71 517.56 2547.95 516.4 2548.16C515.24 2548.37 514.092 2548.56 512.955 2548.72C511.818 2548.88 510.832 2549.02 509.997 2549.14C508.118 2549.39 506.435 2549.81 504.951 2550.39C503.466 2550.97 502.294 2551.78 501.436 2552.82C500.577 2553.85 500.148 2555.17 500.148 2556.79C500.148 2559.11 500.995 2560.86 502.689 2562.05C504.382 2563.23 506.54 2563.82 509.162 2563.82ZM546.782 2572V2518.55H558.823V2527.63H559.449C560.563 2524.57 562.407 2522.18 564.983 2520.46C567.558 2518.72 570.632 2517.85 574.205 2517.85C577.824 2517.85 580.875 2518.73 583.358 2520.49C585.863 2522.23 587.627 2524.61 588.647 2527.63H589.204C590.387 2524.66 592.383 2522.29 595.19 2520.53C598.02 2518.74 601.373 2517.85 605.248 2517.85C610.166 2517.85 614.18 2519.4 617.289 2522.51C620.398 2525.62 621.952 2530.16 621.952 2536.12V2572H609.319V2538.07C609.319 2534.75 608.438 2532.33 606.674 2530.8C604.911 2529.24 602.753 2528.46 600.201 2528.46C597.162 2528.46 594.784 2529.42 593.067 2531.32C591.373 2533.2 590.527 2535.64 590.527 2538.66V2572H578.172V2537.55C578.172 2534.79 577.337 2532.58 575.667 2530.93C574.019 2529.29 571.862 2528.46 569.194 2528.46C567.384 2528.46 565.737 2528.93 564.252 2529.86C562.767 2530.76 561.584 2532.05 560.702 2533.72C559.82 2535.37 559.38 2537.29 559.38 2539.5V2572H546.782ZM672.509 2500.73V2572H659.598V2500.73H672.509ZM698.532 2540.68V2572H685.934V2518.55H697.975V2527.63H698.602C699.831 2524.64 701.792 2522.26 704.483 2520.49C707.197 2518.73 710.55 2517.85 714.54 2517.85C718.229 2517.85 721.443 2518.64 724.18 2520.22C726.941 2521.79 729.076 2524.08 730.584 2527.07C732.115 2530.06 732.869 2533.7 732.846 2537.96V2572H720.248V2539.91C720.248 2536.34 719.32 2533.54 717.464 2531.53C715.631 2529.51 713.09 2528.5 709.842 2528.5C707.638 2528.5 705.678 2528.99 703.961 2529.96C702.267 2530.91 700.933 2532.29 699.959 2534.1C699.008 2535.91 698.532 2538.1 698.532 2540.68ZM772.345 2518.55V2528.29H741.616V2518.55H772.345ZM749.202 2505.74H761.8V2555.92C761.8 2557.62 762.056 2558.91 762.566 2559.82C763.1 2560.7 763.796 2561.3 764.654 2561.63C765.513 2561.95 766.464 2562.12 767.508 2562.12C768.297 2562.12 769.016 2562.06 769.665 2561.94C770.338 2561.83 770.849 2561.72 771.197 2561.63L773.32 2571.48C772.647 2571.71 771.684 2571.97 770.431 2572.24C769.201 2572.52 767.693 2572.68 765.907 2572.73C762.752 2572.82 759.91 2572.35 757.381 2571.3C754.852 2570.24 752.845 2568.59 751.36 2566.36C749.898 2564.13 749.179 2561.35 749.202 2558.01V2505.74ZM805.972 2573.04C800.612 2573.04 795.984 2571.93 792.086 2569.7C788.212 2567.45 785.23 2564.27 783.142 2560.17C781.054 2556.04 780.01 2551.18 780.01 2545.59C780.01 2540.09 781.054 2535.26 783.142 2531.11C785.253 2526.93 788.2 2523.68 791.982 2521.36C795.763 2519.02 800.206 2517.85 805.311 2517.85C808.605 2517.85 811.714 2518.38 814.637 2519.45C817.584 2520.49 820.182 2522.12 822.433 2524.32C824.706 2526.53 826.493 2529.33 827.792 2532.74C829.091 2536.13 829.741 2540.17 829.741 2544.86V2548.72H785.926V2540.23H817.665C817.642 2537.81 817.12 2535.67 816.099 2533.79C815.078 2531.89 813.651 2530.39 811.818 2529.3C810.009 2528.21 807.897 2527.66 805.485 2527.66C802.909 2527.66 800.647 2528.29 798.698 2529.54C796.749 2530.77 795.23 2532.4 794.139 2534.41C793.072 2536.41 792.527 2538.6 792.504 2540.99V2548.4C792.504 2551.51 793.072 2554.18 794.209 2556.41C795.346 2558.61 796.935 2560.31 798.977 2561.49C801.018 2562.65 803.408 2563.23 806.146 2563.23C807.979 2563.23 809.637 2562.97 811.122 2562.46C812.607 2561.93 813.895 2561.15 814.985 2560.13C816.076 2559.11 816.899 2557.85 817.456 2556.34L829.219 2557.66C828.477 2560.77 827.061 2563.49 824.973 2565.81C822.908 2568.1 820.263 2569.89 817.039 2571.16C813.814 2572.42 810.125 2573.04 805.972 2573.04ZM863.646 2593.16C859.122 2593.16 855.236 2592.54 851.988 2591.31C848.739 2590.11 846.129 2588.48 844.157 2586.44C842.185 2584.4 840.816 2582.14 840.051 2579.66L851.396 2576.91C851.906 2577.95 852.649 2578.98 853.623 2580C854.598 2581.05 855.908 2581.91 857.556 2582.58C859.226 2583.28 861.326 2583.62 863.855 2583.62C867.428 2583.62 870.386 2582.75 872.729 2581.01C875.072 2579.3 876.244 2576.47 876.244 2572.52V2562.39H875.618C874.968 2563.69 874.017 2565.03 872.764 2566.4C871.534 2567.77 869.899 2568.91 867.857 2569.84C865.838 2570.77 863.298 2571.23 860.235 2571.23C856.129 2571.23 852.405 2570.27 849.064 2568.35C845.747 2566.4 843.102 2563.5 841.13 2559.65C839.181 2555.77 838.206 2550.92 838.206 2545.1C838.206 2539.23 839.181 2534.28 841.13 2530.24C843.102 2526.18 845.758 2523.1 849.099 2521.02C852.44 2518.91 856.164 2517.85 860.27 2517.85C863.402 2517.85 865.978 2518.38 867.996 2519.45C870.038 2520.49 871.662 2521.76 872.868 2523.24C874.075 2524.71 874.991 2526.09 875.618 2527.38H876.314V2518.55H888.738V2572.87C888.738 2577.44 887.647 2581.22 885.466 2584.22C883.285 2587.21 880.304 2589.45 876.522 2590.93C872.741 2592.42 868.449 2593.16 863.646 2593.16ZM863.75 2561.35C866.418 2561.35 868.692 2560.7 870.571 2559.4C872.451 2558.1 873.877 2556.24 874.852 2553.8C875.826 2551.36 876.314 2548.44 876.314 2545.03C876.314 2541.67 875.826 2538.72 874.852 2536.19C873.901 2533.66 872.485 2531.7 870.606 2530.31C868.75 2528.89 866.465 2528.19 863.75 2528.19C860.943 2528.19 858.6 2528.92 856.721 2530.38C854.841 2531.84 853.426 2533.85 852.475 2536.4C851.524 2538.93 851.048 2541.8 851.048 2545.03C851.048 2548.3 851.524 2551.17 852.475 2553.62C853.449 2556.06 854.876 2557.96 856.755 2559.33C858.658 2560.68 860.989 2561.35 863.75 2561.35ZM901.649 2572V2518.55H913.864V2527.45H914.421C915.395 2524.37 917.066 2521.99 919.432 2520.32C921.822 2518.63 924.548 2517.78 927.61 2517.78C928.306 2517.78 929.084 2517.81 929.942 2517.88C930.824 2517.93 931.555 2518.01 932.135 2518.13V2529.72C931.601 2529.53 930.754 2529.37 929.594 2529.23C928.457 2529.07 927.355 2528.99 926.288 2528.99C923.991 2528.99 921.926 2529.48 920.093 2530.48C918.284 2531.46 916.857 2532.81 915.813 2534.55C914.769 2536.29 914.247 2538.3 914.247 2540.57V2572H901.649ZM954.929 2573.08C951.542 2573.08 948.491 2572.48 945.777 2571.27C943.085 2570.04 940.951 2568.23 939.373 2565.84C937.819 2563.45 937.042 2560.5 937.042 2557C937.042 2553.98 937.598 2551.49 938.712 2549.52C939.826 2547.55 941.345 2545.97 943.271 2544.79C945.197 2543.6 947.366 2542.71 949.779 2542.11C952.215 2541.48 954.732 2541.03 957.331 2540.75C960.463 2540.42 963.003 2540.13 964.952 2539.88C966.901 2539.6 968.316 2539.18 969.198 2538.63C970.103 2538.05 970.555 2537.15 970.555 2535.95V2535.74C970.555 2533.12 969.778 2531.09 968.223 2529.65C966.669 2528.21 964.43 2527.49 961.507 2527.49C958.421 2527.49 955.973 2528.16 954.164 2529.51C952.377 2530.85 951.171 2532.44 950.544 2534.28L938.782 2532.61C939.71 2529.36 941.241 2526.64 943.375 2524.46C945.51 2522.26 948.12 2520.61 951.206 2519.52C954.291 2518.41 957.702 2517.85 961.437 2517.85C964.012 2517.85 966.576 2518.15 969.128 2518.75C971.68 2519.36 974.012 2520.36 976.123 2521.75C978.234 2523.12 979.928 2524.98 981.204 2527.35C982.503 2529.72 983.153 2532.67 983.153 2536.22V2572H971.042V2564.66H970.625C969.859 2566.14 968.78 2567.53 967.388 2568.83C966.019 2570.11 964.291 2571.14 962.203 2571.93C960.138 2572.7 957.713 2573.08 954.929 2573.08ZM958.201 2563.82C960.73 2563.82 962.922 2563.32 964.778 2562.33C966.634 2561.3 968.061 2559.96 969.059 2558.29C970.079 2556.62 970.59 2554.8 970.59 2552.82V2546.53C970.195 2546.85 969.523 2547.15 968.571 2547.43C967.643 2547.71 966.599 2547.95 965.439 2548.16C964.279 2548.37 963.131 2548.56 961.994 2548.72C960.857 2548.88 959.871 2549.02 959.036 2549.14C957.157 2549.39 955.475 2549.81 953.99 2550.39C952.505 2550.97 951.333 2551.78 950.475 2552.82C949.616 2553.85 949.187 2555.17 949.187 2556.79C949.187 2559.11 950.034 2560.86 951.728 2562.05C953.421 2563.23 955.579 2563.82 958.201 2563.82ZM1022.51 2518.55V2528.29H991.784V2518.55H1022.51ZM999.37 2505.74H1011.97V2555.92C1011.97 2557.62 1012.22 2558.91 1012.73 2559.82C1013.27 2560.7 1013.96 2561.3 1014.82 2561.63C1015.68 2561.95 1016.63 2562.12 1017.68 2562.12C1018.46 2562.12 1019.18 2562.06 1019.83 2561.94C1020.51 2561.83 1021.02 2561.72 1021.36 2561.63L1023.49 2571.48C1022.81 2571.71 1021.85 2571.97 1020.6 2572.24C1019.37 2572.52 1017.86 2572.68 1016.07 2572.73C1012.92 2572.82 1010.08 2572.35 1007.55 2571.3C1005.02 2570.24 1003.01 2568.59 1001.53 2566.36C1000.07 2564.13 999.347 2561.35 999.37 2558.01V2505.74ZM1033.05 2572V2518.55H1045.65V2572H1033.05ZM1039.38 2510.96C1037.39 2510.96 1035.67 2510.3 1034.23 2508.98C1032.79 2507.63 1032.07 2506.02 1032.07 2504.14C1032.07 2502.24 1032.79 2500.62 1034.23 2499.3C1035.67 2497.95 1037.39 2497.28 1039.38 2497.28C1041.4 2497.28 1043.12 2497.95 1044.53 2499.3C1045.97 2500.62 1046.69 2502.24 1046.69 2504.14C1046.69 2506.02 1045.97 2507.63 1044.53 2508.98C1043.12 2510.3 1041.4 2510.96 1039.38 2510.96ZM1081.92 2573.04C1076.7 2573.04 1072.17 2571.9 1068.35 2569.6C1064.52 2567.3 1061.55 2564.09 1059.44 2559.96C1057.35 2555.83 1056.31 2551 1056.31 2545.48C1056.31 2539.96 1057.35 2535.12 1059.44 2530.97C1061.55 2526.82 1064.52 2523.59 1068.35 2521.29C1072.17 2519 1076.7 2517.85 1081.92 2517.85C1087.14 2517.85 1091.66 2519 1095.49 2521.29C1099.32 2523.59 1102.28 2526.82 1104.37 2530.97C1106.48 2535.12 1107.53 2539.96 1107.53 2545.48C1107.53 2551 1106.48 2555.83 1104.37 2559.96C1102.28 2564.09 1099.32 2567.3 1095.49 2569.6C1091.66 2571.9 1087.14 2573.04 1081.92 2573.04ZM1081.99 2562.95C1084.82 2562.95 1087.19 2562.17 1089.09 2560.62C1090.99 2559.04 1092.41 2556.93 1093.33 2554.29C1094.28 2551.64 1094.76 2548.69 1094.76 2545.45C1094.76 2542.18 1094.28 2539.22 1093.33 2536.57C1092.41 2533.9 1090.99 2531.78 1089.09 2530.2C1087.19 2528.63 1084.82 2527.84 1081.99 2527.84C1079.09 2527.84 1076.68 2528.63 1074.75 2530.2C1072.85 2531.78 1071.42 2533.9 1070.47 2536.57C1069.54 2539.22 1069.08 2542.18 1069.08 2545.45C1069.08 2548.69 1069.54 2551.64 1070.47 2554.29C1071.42 2556.93 1072.85 2559.04 1074.75 2560.62C1076.68 2562.17 1079.09 2562.95 1081.99 2562.95ZM1130.82 2540.68V2572H1118.22V2518.55H1130.27V2527.63H1130.89C1132.12 2524.64 1134.08 2522.26 1136.77 2520.49C1139.49 2518.73 1142.84 2517.85 1146.83 2517.85C1150.52 2517.85 1153.73 2518.64 1156.47 2520.22C1159.23 2521.79 1161.37 2524.08 1162.87 2527.07C1164.41 2530.06 1165.16 2533.7 1165.14 2537.96V2572H1152.54V2539.91C1152.54 2536.34 1151.61 2533.54 1149.75 2531.53C1147.92 2529.51 1145.38 2528.5 1142.13 2528.5C1139.93 2528.5 1137.97 2528.99 1136.25 2529.96C1134.56 2530.91 1133.22 2532.29 1132.25 2534.1C1131.3 2535.91 1130.82 2538.1 1130.82 2540.68Z" fill="white"/>
<path d="M2535.72 1975.36C2535.72 1983.04 2534.28 1989.62 2531.4 1995.1C2528.55 2000.55 2524.65 2004.72 2519.71 2007.62C2514.79 2010.52 2509.21 2011.97 2502.97 2011.97C2496.73 2011.97 2491.14 2010.52 2486.19 2007.62C2481.28 2004.7 2477.38 2000.51 2474.5 1995.06C2471.65 1989.59 2470.22 1983.02 2470.22 1975.36C2470.22 1967.68 2471.65 1961.12 2474.5 1955.67C2477.38 1950.19 2481.28 1946 2486.19 1943.1C2491.14 1940.2 2496.73 1938.75 2502.97 1938.75C2509.21 1938.75 2514.79 1940.2 2519.71 1943.1C2524.65 1946 2528.55 1950.19 2531.4 1955.67C2534.28 1961.12 2535.72 1967.68 2535.72 1975.36ZM2522.74 1975.36C2522.74 1969.96 2521.89 1965.4 2520.19 1961.69C2518.52 1957.95 2516.2 1955.13 2513.23 1953.23C2510.26 1951.3 2506.84 1950.34 2502.97 1950.34C2499.09 1950.34 2495.67 1951.3 2492.7 1953.23C2489.73 1955.13 2487.4 1957.95 2485.71 1961.69C2484.04 1965.4 2483.2 1969.96 2483.2 1975.36C2483.2 1980.77 2484.04 1985.34 2485.71 1989.08C2487.4 1992.79 2489.73 1995.61 2492.7 1997.53C2495.67 1999.43 2499.09 2000.39 2502.97 2000.39C2506.84 2000.39 2510.26 1999.43 2513.23 1997.53C2516.2 1995.61 2518.52 1992.79 2520.19 1989.08C2521.89 1985.34 2522.74 1980.77 2522.74 1975.36ZM2559.96 1979.68V2011H2547.37V1957.55H2559.41V1966.63H2560.03C2561.26 1963.64 2563.22 1961.26 2565.91 1959.49C2568.63 1957.73 2571.98 1956.85 2575.97 1956.85C2579.66 1956.85 2582.87 1957.64 2585.61 1959.22C2588.37 1960.79 2590.51 1963.08 2592.02 1966.07C2593.55 1969.06 2594.3 1972.7 2594.28 1976.96V2011H2581.68V1978.91C2581.68 1975.34 2580.75 1972.54 2578.9 1970.53C2577.06 1968.51 2574.52 1967.5 2571.27 1967.5C2569.07 1967.5 2567.11 1967.99 2565.39 1968.96C2563.7 1969.91 2562.36 1971.29 2561.39 1973.1C2560.44 1974.91 2559.96 1977.1 2559.96 1979.68ZM2631.95 2011V1939.73H2644.55V1966.38H2645.07C2645.72 1965.09 2646.64 1963.71 2647.82 1962.24C2649 1960.76 2650.6 1959.49 2652.62 1958.45C2654.64 1957.38 2657.22 1956.85 2660.35 1956.85C2664.48 1956.85 2668.2 1957.91 2671.52 1960.02C2674.86 1962.1 2677.5 1965.2 2679.45 1969.31C2681.43 1973.39 2682.41 1978.4 2682.41 1984.34C2682.41 1990.21 2681.45 1995.2 2679.52 1999.31C2677.6 2003.41 2674.98 2006.55 2671.66 2008.7C2668.34 2010.86 2664.58 2011.94 2660.38 2011.94C2657.32 2011.94 2654.78 2011.43 2652.76 2010.41C2650.74 2009.39 2649.12 2008.16 2647.89 2006.72C2646.68 2005.26 2645.74 2003.88 2645.07 2002.58H2644.34V2011H2631.95ZM2644.3 1984.27C2644.3 1987.73 2644.79 1990.76 2645.77 1993.36C2646.76 1995.95 2648.19 1997.98 2650.05 1999.45C2651.93 2000.88 2654.2 2001.6 2656.87 2001.6C2659.65 2001.6 2661.98 2000.86 2663.86 1999.38C2665.74 1997.87 2667.16 1995.82 2668.11 1993.22C2669.08 1990.59 2669.57 1987.61 2669.57 1984.27C2669.57 1980.96 2669.09 1978.01 2668.14 1975.43C2667.19 1972.86 2665.78 1970.84 2663.9 1969.38C2662.02 1967.92 2659.67 1967.19 2656.87 1967.19C2654.18 1967.19 2651.89 1967.89 2650.01 1969.31C2648.13 1970.72 2646.71 1972.71 2645.73 1975.26C2644.78 1977.81 2644.3 1980.82 2644.3 1984.27ZM2716.44 2012.04C2711.22 2012.04 2706.69 2010.9 2702.87 2008.6C2699.04 2006.3 2696.07 2003.09 2693.96 1998.96C2691.87 1994.83 2690.82 1990 2690.82 1984.48C2690.82 1978.96 2691.87 1974.12 2693.96 1969.97C2696.07 1965.82 2699.04 1962.59 2702.87 1960.29C2706.69 1958 2711.22 1956.85 2716.44 1956.85C2721.66 1956.85 2726.18 1958 2730.01 1960.29C2733.84 1962.59 2736.8 1965.82 2738.88 1969.97C2741 1974.12 2742.05 1978.96 2742.05 1984.48C2742.05 1990 2741 1994.83 2738.88 1998.96C2736.8 2003.09 2733.84 2006.3 2730.01 2008.6C2726.18 2010.9 2721.66 2012.04 2716.44 2012.04ZM2716.51 2001.95C2719.34 2001.95 2721.7 2001.17 2723.61 1999.62C2725.51 1998.04 2726.92 1995.93 2727.85 1993.29C2728.8 1990.64 2729.28 1987.69 2729.28 1984.45C2729.28 1981.18 2728.8 1978.22 2727.85 1975.57C2726.92 1972.9 2725.51 1970.78 2723.61 1969.2C2721.7 1967.63 2719.34 1966.84 2716.51 1966.84C2713.61 1966.84 2711.19 1967.63 2709.27 1969.2C2707.37 1970.78 2705.94 1972.9 2704.99 1975.57C2704.06 1978.22 2703.6 1981.18 2703.6 1984.45C2703.6 1987.69 2704.06 1990.64 2704.99 1993.29C2705.94 1995.93 2707.37 1998.04 2709.27 1999.62C2711.19 2001.17 2713.61 2001.95 2716.51 2001.95ZM2768.13 2012.08C2764.74 2012.08 2761.69 2011.48 2758.97 2010.27C2756.28 2009.04 2754.15 2007.23 2752.57 2004.84C2751.02 2002.45 2750.24 1999.5 2750.24 1996C2750.24 1992.98 2750.8 1990.49 2751.91 1988.52C2753.02 1986.55 2754.54 1984.97 2756.47 1983.79C2758.39 1982.6 2760.56 1981.71 2762.98 1981.11C2765.41 1980.48 2767.93 1980.03 2770.53 1979.75C2773.66 1979.42 2776.2 1979.13 2778.15 1978.88C2780.1 1978.6 2781.51 1978.18 2782.4 1977.63C2783.3 1977.05 2783.75 1976.15 2783.75 1974.95V1974.74C2783.75 1972.12 2782.98 1970.09 2781.42 1968.65C2779.87 1967.21 2777.63 1966.49 2774.7 1966.49C2771.62 1966.49 2769.17 1967.16 2767.36 1968.51C2765.57 1969.85 2764.37 1971.44 2763.74 1973.28L2751.98 1971.61C2752.91 1968.36 2754.44 1965.64 2756.57 1963.46C2758.71 1961.26 2761.32 1959.61 2764.4 1958.52C2767.49 1957.41 2770.9 1956.85 2774.63 1956.85C2777.21 1956.85 2779.77 1957.15 2782.33 1957.75C2784.88 1958.36 2787.21 1959.36 2789.32 1960.75C2791.43 1962.12 2793.13 1963.98 2794.4 1966.35C2795.7 1968.72 2796.35 1971.67 2796.35 1975.22V2011H2784.24V2003.66H2783.82C2783.06 2005.14 2781.98 2006.53 2780.59 2007.83C2779.22 2009.11 2777.49 2010.14 2775.4 2010.93C2773.34 2011.7 2770.91 2012.08 2768.13 2012.08ZM2771.4 2002.82C2773.93 2002.82 2776.12 2002.32 2777.98 2001.33C2779.83 2000.3 2781.26 1998.96 2782.26 1997.29C2783.28 1995.62 2783.79 1993.8 2783.79 1991.82V1985.53C2783.39 1985.85 2782.72 1986.15 2781.77 1986.43C2780.84 1986.71 2779.8 1986.95 2778.64 1987.16C2777.48 1987.37 2776.33 1987.56 2775.19 1987.72C2774.05 1987.88 2773.07 1988.02 2772.23 1988.14C2770.35 1988.39 2768.67 1988.81 2767.19 1989.39C2765.7 1989.97 2764.53 1990.78 2763.67 1991.82C2762.81 1992.85 2762.38 1994.17 2762.38 1995.79C2762.38 1998.11 2763.23 1999.86 2764.92 2001.05C2766.62 2002.23 2768.78 2002.82 2771.4 2002.82ZM2809.02 2011V1957.55H2821.23V1966.45H2821.79C2822.76 1963.37 2824.43 1960.99 2826.8 1959.32C2829.19 1957.63 2831.92 1956.78 2834.98 1956.78C2835.68 1956.78 2836.45 1956.81 2837.31 1956.88C2838.19 1956.93 2838.92 1957.01 2839.5 1957.13V1968.72C2838.97 1968.53 2838.12 1968.37 2836.96 1968.23C2835.83 1968.07 2834.72 1967.99 2833.66 1967.99C2831.36 1967.99 2829.3 1968.48 2827.46 1969.48C2825.65 1970.46 2824.23 1971.81 2823.18 1973.55C2822.14 1975.29 2821.62 1977.3 2821.62 1979.57V2011H2809.02ZM2865.51 2011.94C2861.31 2011.94 2857.55 2010.86 2854.23 2008.7C2850.92 2006.55 2848.29 2003.41 2846.37 1999.31C2844.44 1995.2 2843.48 1990.21 2843.48 1984.34C2843.48 1978.4 2844.45 1973.39 2846.4 1969.31C2848.38 1965.2 2851.03 1962.1 2854.37 1960.02C2857.71 1957.91 2861.44 1956.85 2865.54 1956.85C2868.68 1956.85 2871.25 1957.38 2873.27 1958.45C2875.29 1959.49 2876.89 1960.76 2878.07 1962.24C2879.26 1963.71 2880.17 1965.09 2880.82 1966.38H2881.34V1939.73H2893.98V2011H2881.59V2002.58H2880.82C2880.17 2003.88 2879.23 2005.26 2878 2006.72C2876.77 2008.16 2875.15 2009.39 2873.13 2010.41C2871.11 2011.43 2868.57 2011.94 2865.51 2011.94ZM2869.02 2001.6C2871.69 2001.6 2873.97 2000.88 2875.84 1999.45C2877.72 1997.98 2879.15 1995.95 2880.13 1993.36C2881.1 1990.76 2881.59 1987.73 2881.59 1984.27C2881.59 1980.82 2881.1 1977.81 2880.13 1975.26C2879.17 1972.71 2877.76 1970.72 2875.88 1969.31C2874.02 1967.89 2871.74 1967.19 2869.02 1967.19C2866.22 1967.19 2863.87 1967.92 2861.99 1969.38C2860.11 1970.84 2858.7 1972.86 2857.75 1975.43C2856.8 1978.01 2856.32 1980.96 2856.32 1984.27C2856.32 1987.61 2856.8 1990.59 2857.75 1993.22C2858.72 1995.82 2860.15 1997.87 2862.03 1999.38C2863.93 2000.86 2866.26 2001.6 2869.02 2001.6ZM2939.54 2031.05C2937.82 2031.05 2936.23 2030.91 2934.77 2030.63C2933.33 2030.37 2932.18 2030.07 2931.33 2029.72L2934.25 2019.91C2936.08 2020.44 2937.72 2020.7 2939.16 2020.67C2940.6 2020.65 2941.86 2020.2 2942.95 2019.32C2944.06 2018.46 2945 2017.02 2945.77 2015L2946.85 2012.11L2927.46 1957.55H2940.83L2953.15 1997.91H2953.7L2966.06 1957.55H2979.46L2958.05 2017.47C2957.06 2020.3 2955.73 2022.73 2954.09 2024.75C2952.44 2026.79 2950.42 2028.34 2948.03 2029.41C2945.66 2030.5 2942.83 2031.05 2939.54 2031.05ZM3009.67 2012.04C3004.45 2012.04 2999.93 2010.9 2996.1 2008.6C2992.27 2006.3 2989.3 2003.09 2987.19 1998.96C2985.1 1994.83 2984.06 1990 2984.06 1984.48C2984.06 1978.96 2985.1 1974.12 2987.19 1969.97C2989.3 1965.82 2992.27 1962.59 2996.1 1960.29C2999.93 1958 3004.45 1956.85 3009.67 1956.85C3014.89 1956.85 3019.42 1958 3023.25 1960.29C3027.07 1962.59 3030.03 1965.82 3032.12 1969.97C3034.23 1974.12 3035.29 1978.96 3035.29 1984.48C3035.29 1990 3034.23 1994.83 3032.12 1998.96C3030.03 2003.09 3027.07 2006.3 3023.25 2008.6C3019.42 2010.9 3014.89 2012.04 3009.67 2012.04ZM3009.74 2001.95C3012.57 2001.95 3014.94 2001.17 3016.84 1999.62C3018.74 1998.04 3020.16 1995.93 3021.09 1993.29C3022.04 1990.64 3022.51 1987.69 3022.51 1984.45C3022.51 1981.18 3022.04 1978.22 3021.09 1975.57C3020.16 1972.9 3018.74 1970.78 3016.84 1969.2C3014.94 1967.63 3012.57 1966.84 3009.74 1966.84C3006.84 1966.84 3004.43 1967.63 3002.5 1969.2C3000.6 1970.78 2999.17 1972.9 2998.22 1975.57C2997.29 1978.22 2996.83 1981.18 2996.83 1984.45C2996.83 1987.69 2997.29 1990.64 2998.22 1993.29C2999.17 1995.93 3000.6 1998.04 3002.5 1999.62C3004.43 2001.17 3006.84 2001.95 3009.74 2001.95ZM3080.05 1988.52V1957.55H3092.65V2011H3080.43V2001.5H3079.88C3078.67 2004.49 3076.69 2006.94 3073.92 2008.84C3071.19 2010.74 3067.81 2011.7 3063.8 2011.7C3060.29 2011.7 3057.2 2010.92 3054.51 2009.36C3051.84 2007.79 3049.75 2005.5 3048.24 2002.51C3046.73 1999.49 3045.98 1995.85 3045.98 1991.58V1957.55H3058.58V1989.63C3058.58 1993.02 3059.5 1995.71 3061.36 1997.71C3063.22 1999.7 3065.65 2000.7 3068.67 2000.7C3070.53 2000.7 3072.32 2000.25 3074.06 1999.34C3075.8 1998.44 3077.23 1997.09 3078.34 1995.3C3079.48 1993.5 3080.05 1991.23 3080.05 1988.52ZM3105.6 2011V1957.55H3117.82V1966.45H3118.37C3119.35 1963.37 3121.02 1960.99 3123.39 1959.32C3125.77 1957.63 3128.5 1956.78 3131.56 1956.78C3132.26 1956.78 3133.04 1956.81 3133.9 1956.88C3134.78 1956.93 3135.51 1957.01 3136.09 1957.13V1968.72C3135.55 1968.53 3134.71 1968.37 3133.55 1968.23C3132.41 1968.07 3131.31 1967.99 3130.24 1967.99C3127.94 1967.99 3125.88 1968.48 3124.05 1969.48C3122.24 1970.46 3120.81 1971.81 3119.77 1973.55C3118.72 1975.29 3118.2 1977.3 3118.2 1979.57V2011H3105.6ZM2498.17 2076.55V2086.29H2467.44V2076.55H2498.17ZM2475.02 2063.74H2487.62V2113.92C2487.62 2115.62 2487.88 2116.91 2488.39 2117.82C2488.92 2118.7 2489.62 2119.3 2490.47 2119.63C2491.33 2119.95 2492.28 2120.12 2493.33 2120.12C2494.12 2120.12 2494.84 2120.06 2495.49 2119.94C2496.16 2119.83 2496.67 2119.72 2497.02 2119.63L2499.14 2129.48C2498.47 2129.71 2497.5 2129.97 2496.25 2130.24C2495.02 2130.52 2493.51 2130.68 2491.73 2130.73C2488.57 2130.82 2485.73 2130.35 2483.2 2129.3C2480.67 2128.24 2478.67 2126.59 2477.18 2124.36C2475.72 2122.13 2475 2119.35 2475.02 2116.01V2063.74ZM2531.79 2131.04C2526.43 2131.04 2521.8 2129.93 2517.91 2127.7C2514.03 2125.45 2511.05 2122.27 2508.96 2118.17C2506.87 2114.04 2505.83 2109.18 2505.83 2103.59C2505.83 2098.09 2506.87 2093.26 2508.96 2089.11C2511.07 2084.93 2514.02 2081.68 2517.8 2079.36C2521.58 2077.02 2526.03 2075.85 2531.13 2075.85C2534.43 2075.85 2537.53 2076.38 2540.46 2077.45C2543.4 2078.49 2546 2080.12 2548.25 2082.32C2550.53 2084.53 2552.31 2087.33 2553.61 2090.74C2554.91 2094.13 2555.56 2098.17 2555.56 2102.86V2106.72H2511.75V2098.23H2543.49C2543.46 2095.81 2542.94 2093.67 2541.92 2091.79C2540.9 2089.89 2539.47 2088.39 2537.64 2087.3C2535.83 2086.21 2533.72 2085.66 2531.3 2085.66C2528.73 2085.66 2526.47 2086.29 2524.52 2087.54C2522.57 2088.77 2521.05 2090.4 2519.96 2092.41C2518.89 2094.41 2518.35 2096.6 2518.32 2098.99V2106.4C2518.32 2109.51 2518.89 2112.18 2520.03 2114.41C2521.17 2116.61 2522.76 2118.31 2524.8 2119.49C2526.84 2120.65 2529.23 2121.23 2531.97 2121.23C2533.8 2121.23 2535.46 2120.97 2536.94 2120.46C2538.43 2119.93 2539.72 2119.15 2540.81 2118.13C2541.9 2117.11 2542.72 2115.85 2543.28 2114.34L2555.04 2115.66C2554.3 2118.77 2552.88 2121.49 2550.79 2123.81C2548.73 2126.1 2546.08 2127.89 2542.86 2129.16C2539.63 2130.42 2535.95 2131.04 2531.79 2131.04ZM2581.6 2131.08C2578.21 2131.08 2575.16 2130.48 2572.45 2129.27C2569.76 2128.04 2567.62 2126.23 2566.05 2123.84C2564.49 2121.45 2563.71 2118.5 2563.71 2115C2563.71 2111.98 2564.27 2109.49 2565.38 2107.52C2566.5 2105.55 2568.02 2103.97 2569.94 2102.79C2571.87 2101.6 2574.04 2100.71 2576.45 2100.11C2578.89 2099.48 2581.4 2099.03 2584 2098.75C2587.13 2098.42 2589.68 2098.13 2591.62 2097.88C2593.57 2097.6 2594.99 2097.18 2595.87 2096.63C2596.77 2096.05 2597.23 2095.15 2597.23 2093.95V2093.74C2597.23 2091.12 2596.45 2089.09 2594.9 2087.65C2593.34 2086.21 2591.1 2085.49 2588.18 2085.49C2585.09 2085.49 2582.65 2086.16 2580.84 2087.51C2579.05 2088.85 2577.84 2090.44 2577.22 2092.28L2565.45 2090.61C2566.38 2087.36 2567.91 2084.64 2570.05 2082.46C2572.18 2080.26 2574.79 2078.61 2577.88 2077.52C2580.96 2076.41 2584.37 2075.85 2588.11 2075.85C2590.68 2075.85 2593.25 2076.15 2595.8 2076.75C2598.35 2077.36 2600.68 2078.36 2602.8 2079.75C2604.91 2081.12 2606.6 2082.98 2607.88 2085.35C2609.18 2087.72 2609.82 2090.67 2609.82 2094.22V2130H2597.71V2122.66H2597.3C2596.53 2124.14 2595.45 2125.53 2594.06 2126.83C2592.69 2128.11 2590.96 2129.14 2588.87 2129.93C2586.81 2130.7 2584.39 2131.08 2581.6 2131.08ZM2584.87 2121.82C2587.4 2121.82 2589.59 2121.32 2591.45 2120.33C2593.31 2119.3 2594.73 2117.96 2595.73 2116.29C2596.75 2114.62 2597.26 2112.8 2597.26 2110.82V2104.53C2596.87 2104.85 2596.19 2105.15 2595.24 2105.43C2594.32 2105.71 2593.27 2105.95 2592.11 2106.16C2590.95 2106.37 2589.8 2106.56 2588.67 2106.72C2587.53 2106.88 2586.54 2107.02 2585.71 2107.14C2583.83 2107.39 2582.15 2107.81 2580.66 2108.39C2579.18 2108.97 2578.01 2109.78 2577.15 2110.82C2576.29 2111.85 2575.86 2113.17 2575.86 2114.79C2575.86 2117.11 2576.71 2118.86 2578.4 2120.05C2580.09 2121.23 2582.25 2121.82 2584.87 2121.82ZM2622.49 2130V2076.55H2634.53V2085.63H2635.16C2636.27 2082.57 2638.12 2080.18 2640.69 2078.46C2643.27 2076.72 2646.34 2075.85 2649.92 2075.85C2653.54 2075.85 2656.59 2076.73 2659.07 2078.49C2661.57 2080.23 2663.34 2082.61 2664.36 2085.63H2664.92C2666.1 2082.66 2668.09 2080.29 2670.9 2078.53C2673.73 2076.74 2677.08 2075.85 2680.96 2075.85C2685.88 2075.85 2689.89 2077.4 2693 2080.51C2696.11 2083.62 2697.66 2088.16 2697.66 2094.12V2130H2685.03V2096.07C2685.03 2092.75 2684.15 2090.33 2682.39 2088.8C2680.62 2087.24 2678.46 2086.46 2675.91 2086.46C2672.87 2086.46 2670.49 2087.42 2668.78 2089.32C2667.08 2091.2 2666.24 2093.64 2666.24 2096.66V2130H2653.88V2095.55C2653.88 2092.79 2653.05 2090.58 2651.38 2088.93C2649.73 2087.29 2647.57 2086.46 2644.9 2086.46C2643.09 2086.46 2641.45 2086.93 2639.96 2087.86C2638.48 2088.76 2637.29 2090.05 2636.41 2091.72C2635.53 2093.37 2635.09 2095.29 2635.09 2097.5V2130H2622.49Z" fill="white"/>
</svg>
