<svg width="30" height="30" viewBox="0 0 30 30" fill="none" xmlns="http://www.w3.org/2000/svg">
<rect x="0.504395" y="0.37207" width="29" height="29" rx="11" fill="#003A50"/>
<path d="M7.31281 12.3922C10.9948 5.17734 17.0592 6.6939 19.6312 8.35403L18.9544 9.29627L22.0678 8.89245L21.1202 6.06574L20.308 7.00796C11.428 2.37753 6.86158 8.66811 5.6884 12.3922C4.38887 20.4685 10.2909 23.7439 13.4043 24.3721C14.7038 24.049 14.2165 23.3401 13.8104 23.026C6.98793 21.4107 6.63598 15.2638 7.31281 12.3922Z" stroke="white"/>
<path d="M13.9458 9.16166V15.4881L19.6312 18.4494C20.8224 18.5571 20.4885 17.7764 20.1727 17.3726L15.1641 14.8151V9.16166C14.8392 8.40787 14.2165 8.84758 13.9458 9.16166Z" stroke="white"/>
<path d="M23.8276 11.1807C23.0695 10.427 22.6093 11.2256 22.4739 11.7192L22.88 12.6614C23.638 13.0921 24.0983 12.4819 24.2337 12.123L23.8276 11.1807Z" stroke="white"/>
<path d="M24.5044 14.2767C23.9629 13.4152 23.3763 14.0075 23.1507 14.4113V15.3535C23.6922 16.1073 24.2788 15.6676 24.5044 15.3535V14.2767Z" stroke="white"/>
<path d="M22.88 16.9688L22.4739 17.911C22.7988 18.9879 23.6019 18.7187 23.9629 18.4494L24.2337 17.5072C24.2337 16.7534 23.3312 16.8342 22.88 16.9688Z" stroke="white"/>
<path d="M21.6617 19.5263L20.9849 20.3339C20.9849 21.4108 21.8873 21.321 22.3385 21.1416L22.88 20.3339C22.9883 19.5801 22.1129 19.4814 21.6617 19.5263Z" stroke="white"/>
<path d="M19.7666 21.4108L18.819 22.0838C18.4941 23.0529 19.3153 23.2055 19.7666 23.1606L20.5788 22.6222C20.9036 21.9761 20.1727 21.5454 19.7666 21.4108Z" stroke="white"/>
<path d="M17.1946 22.6222L16.1117 22.8914C15.4619 23.8606 16.2019 24.1926 16.6531 24.2375L17.6007 23.9683C18.2504 23.3222 17.6007 22.8017 17.1946 22.6222Z" stroke="white"/>
</svg>
