<svg width="474" height="475" viewBox="0 0 474 475" fill="none" xmlns="http://www.w3.org/2000/svg">
<path d="M261.048 445.583L227.62 231.64L441.562 266.406L323.894 293.148L473.654 445.583L441.562 475L289.128 325.24L261.048 445.583Z" fill="#00AEEF"/>
<path d="M392.097 215.594C392.097 166.313 373.201 102.861 339.3 67.0924C305.398 31.324 259.072 9.91597 209.861 7.27657C160.65 4.63718 112.3 20.9673 74.7675 52.9045C37.2347 84.8416 13.3764 129.954 8.10514 178.953C2.83393 227.952 16.5512 277.107 46.4323 316.297C76.3135 355.486 120.084 381.726 168.73 389.614" stroke="#00AEEF" stroke-width="13"/>
<path d="M322.765 191.043C317.799 159.744 299.353 121.359 274.125 102.073C248.896 82.7878 217.19 73.8797 185.535 77.1834C153.879 80.4871 124.684 95.7511 103.962 119.832C83.2391 143.913 72.5664 174.979 74.1411 206.631C75.7159 238.283 89.4182 268.113 112.427 289.978C135.435 311.843 165.998 324.079 197.822 324.165" stroke="#00AEEF" stroke-width="13"/>
<path d="M251.361 197.007C249.251 183.707 241.413 167.396 230.693 159.202C219.973 151.007 206.5 147.221 193.049 148.625C179.598 150.029 167.192 156.515 158.387 166.748C149.581 176.98 145.046 190.181 145.715 203.63C146.384 217.08 152.207 229.756 161.984 239.047C171.761 248.337 184.747 253.537 198.27 253.574" stroke="#00AEEF" stroke-width="13"/>
</svg>
