<svg width="479" height="429" viewBox="0 0 479 429" fill="none" xmlns="http://www.w3.org/2000/svg">
<circle cx="246" cy="225" r="128" fill="#00AEEF"/>
<path d="M181 381V335L194.5 312L226.5 302L311.5 306L315 328V381C313.4 388.2 303 400 298 405C291.2 421.8 262.833 427.333 249.5 428C213.9 428.8 199.333 409.667 196.5 400C188.1 396.8 182.667 386 181 381Z" fill="#00AEEF"/>
<circle cx="244" cy="225" r="104" fill="#E5F2FC"/>
<path d="M205.5 329.5V319.5L222.5 294L287.5 308V326C286.7 333.6 284.833 334.167 284 333.5H211.5C205.5 333.1 205 330.667 205.5 329.5Z" fill="#E5F2FC"/>
<path d="M327 224.5C327 269.511 290.511 306 245.5 306C200.489 306 164 269.511 164 224.5C164 179.489 200.489 143 245.5 143C290.511 143 327 179.489 327 224.5Z" fill="#00AEEF"/>
<path d="M314 225C314 261.451 284.451 291 248 291C211.549 291 182 261.451 182 225C182 188.549 211.549 159 248 159C284.451 159 314 188.549 314 225Z" fill="#E5F2FC"/>
<path d="M293 224.5C293 250.734 271.734 272 245.5 272C219.266 272 198 250.734 198 224.5C198 198.266 219.266 177 245.5 177C271.734 177 293 198.266 293 224.5Z" fill="#00AEEF"/>
<path d="M274 224.5C274 239.136 262.136 251 247.5 251C232.864 251 221 239.136 221 224.5C221 209.864 232.864 198 247.5 198C262.136 198 274 209.864 274 224.5Z" fill="#E5F2FC"/>
<path d="M310.499 162.5L247.999 221.5C242.799 229.5 250.166 227.167 254.499 225L315.499 167.5L328.999 165.5L345.999 146.5H330.999V134L311.999 149.5L310.499 162.5Z" fill="black"/>
<rect x="4.3623" y="170.843" width="83.0611" height="25" rx="12.5" transform="rotate(8.92765 4.3623 170.843)" fill="#00AEEF"/>
<rect x="103.241" y="36.2684" width="79.0359" height="25" rx="12.5" transform="rotate(55.6505 103.241 36.2684)" fill="#00AEEF"/>
<rect x="255.998" width="79.0359" height="25" rx="12.5" transform="rotate(89.2208 255.998 0)" fill="#00AEEF"/>
<rect x="400.895" y="53.1965" width="79.0359" height="25" rx="12.5" transform="rotate(127.435 400.895 53.1965)" fill="#00AEEF"/>
<rect x="478.514" y="195.256" width="79.0359" height="25" rx="12.5" transform="rotate(170.031 478.514 195.256)" fill="#00AEEF"/>
<rect x="437.463" y="343.514" width="79.0359" height="25" rx="12.5" transform="rotate(-148.604 437.463 343.514)" fill="#00AEEF"/>
<rect x="31.6982" y="322.213" width="80.5884" height="25" rx="12.5" transform="rotate(-31.5184 31.6982 322.213)" fill="#00AEEF"/>
<rect x="208" y="354" width="80" height="22" rx="6" fill="#E5F2FC"/>
<rect x="223" y="385" width="49" height="22" rx="6" fill="#E5F2FC"/>
</svg>
