<svg width="54" height="55" viewBox="0 0 54 55" fill="none" xmlns="http://www.w3.org/2000/svg">
<path d="M30.309 50.872L26.584 27.032L50.424 30.906L37.312 33.886L54 50.872L50.424 54.15L33.438 37.462L30.309 50.872Z" fill="#00AEEF"/>
<path d="M44.912 25.244C44.912 19.7525 42.8064 12.6819 39.0287 8.69619C35.251 4.71046 30.0888 2.32493 24.6052 2.03082C19.1215 1.73671 13.7338 3.5564 9.55144 7.11521C5.36911 10.674 2.71053 15.701 2.12315 21.161C1.53577 26.6211 3.0643 32.0985 6.39401 36.4654C9.72371 40.8324 14.6011 43.7564 20.0218 44.6353" stroke="#00AEEF" stroke-width="4"/>
<path d="M37.1861 22.5082C36.6328 19.0205 34.5773 14.7432 31.7661 12.5942C28.9549 10.4451 25.4218 9.45251 21.8944 9.82064C18.367 10.1888 15.1137 11.8897 12.8046 14.5731C10.4954 17.2565 9.30615 20.7181 9.48163 24.2452C9.6571 27.7722 11.184 31.0962 13.7479 33.5327C16.3117 35.9691 19.7174 37.3326 23.2636 37.3422" stroke="#00AEEF" stroke-width="3"/>
<path d="M29.2295 23.1727C28.9944 21.6908 28.121 19.8732 26.9264 18.9601C25.7319 18.0469 24.2306 17.6251 22.7317 17.7815C21.2328 17.938 19.8505 18.6607 18.8693 19.8009C17.888 20.9412 17.3827 22.4121 17.4573 23.9108C17.5318 25.4096 18.1806 26.822 19.2701 27.8573C20.3595 28.8926 21.8067 29.472 23.3135 29.4761" stroke="#00AEEF" stroke-width="2"/>
</svg>
