<svg width="373" height="416" viewBox="0 0 373 416" fill="none" xmlns="http://www.w3.org/2000/svg">
<path d="M144 281L140 222C122 207.6 94.5 166.333 83 147.5C83.4 124.7 100.167 130 108.5 135.5C113.7 155.9 143.333 188 157.5 201.5H200C218.4 189.5 242.333 150.5 252 132.5C272.4 123.7 275.5 138.833 274.5 147.5C270.9 161.5 235.667 203 218.5 222L213.5 281L218.5 404C218.5 413.2 210.167 415.167 206 415C198.4 417.4 193.167 408.667 191.5 404L188 318C187.2 312.8 182 311.5 179.5 311.5C172.7 310.3 169.667 317 169 320.5L166 404C165.2 414 156.333 415.5 152 415C143.6 416.2 140.5 408.167 140 404L144 281Z" fill="#00AEEF"/>
<circle cx="178.5" cy="168.5" r="23.5" fill="#00AEEF"/>
<circle cx="35.5" cy="237.5" r="32.5" stroke="black" stroke-width="6"/>
<path d="M33.25 258L24.25 242.3V238.6H27.25C28.45 238.6 29.5 238.433 30.4 238.1C31.3333 237.733 32.1 237.217 32.7 236.55C33.3333 235.883 33.7667 235.083 34 234.15H24.25V230.45H33.95C33.75 229.583 33.4 228.817 32.9 228.15C32.4333 227.483 31.8 226.967 31 226.6C30.2333 226.2 29.3 226 28.2 226H24.25V222.3H46.8V226H38.95C39.5167 226.633 39.9833 227.317 40.35 228.05C40.75 228.783 41.0167 229.583 41.15 230.45H46.8V234.15H41.25C40.9167 236.617 39.9667 238.55 38.4 239.95C36.8333 241.317 34.8167 242.25 32.35 242.75L42.15 258H33.25Z" fill="black"/>
<rect x="10" y="180" width="10" height="23" rx="4" fill="black"/>
<rect x="31" y="164" width="10" height="25" rx="4" fill="black"/>
<rect x="51" y="180" width="10" height="25" rx="4" fill="black"/>
<circle cx="190.5" cy="73.5" r="32.5" stroke="black" stroke-width="6"/>
<path d="M188.25 94L179.25 78.3V74.6H182.25C183.45 74.6 184.5 74.4333 185.4 74.1C186.333 73.7333 187.1 73.2167 187.7 72.55C188.333 71.8833 188.767 71.0833 189 70.15H179.25V66.45H188.95C188.75 65.5833 188.4 64.8167 187.9 64.15C187.433 63.4833 186.8 62.9667 186 62.6C185.233 62.2 184.3 62 183.2 62H179.25V58.3H201.8V62H193.95C194.517 62.6333 194.983 63.3167 195.35 64.05C195.75 64.7833 196.017 65.5833 196.15 66.45H201.8V70.15H196.25C195.917 72.6167 194.967 74.55 193.4 75.95C191.833 77.3167 189.817 78.25 187.35 78.75L197.15 94H188.25Z" fill="black"/>
<rect x="165" y="16" width="10" height="23" rx="4" fill="black"/>
<rect x="186" width="10" height="25" rx="4" fill="black"/>
<rect x="206" y="16" width="10" height="25" rx="4" fill="black"/>
<circle cx="337.5" cy="182.5" r="32.5" stroke="black" stroke-width="6"/>
<path d="M335.25 203L326.25 187.3V183.6H329.25C330.45 183.6 331.5 183.433 332.4 183.1C333.333 182.733 334.1 182.217 334.7 181.55C335.333 180.883 335.767 180.083 336 179.15H326.25V175.45H335.95C335.75 174.583 335.4 173.817 334.9 173.15C334.433 172.483 333.8 171.967 333 171.6C332.233 171.2 331.3 171 330.2 171H326.25V167.3H348.8V171H340.95C341.517 171.633 341.983 172.317 342.35 173.05C342.75 173.783 343.017 174.583 343.15 175.45H348.8V179.15H343.25C342.917 181.617 341.967 183.55 340.4 184.95C338.833 186.317 336.817 187.25 334.35 187.75L344.15 203H335.25Z" fill="black"/>
<rect x="312" y="125" width="10" height="23" rx="4" fill="black"/>
<rect x="333" y="109" width="10" height="25" rx="4" fill="black"/>
<rect x="353" y="125" width="10" height="25" rx="4" fill="black"/>
</svg>
