<svg width="57" height="55" viewBox="0 0 57 55" fill="none" xmlns="http://www.w3.org/2000/svg">
<path d="M48.136 23.0802C49.33 27.6738 49.0869 32.5215 47.4394 36.9719C45.7919 41.4224 42.8189 45.2624 38.9199 47.976C35.0209 50.6897 30.3827 52.1469 25.6285 52.1519C20.8742 52.1568 16.2318 50.7094 12.3249 48.004C8.41794 45.2985 5.43375 41.4648 3.77324 37.0178C2.11274 32.5708 1.85548 27.7236 3.03603 23.1276C4.21658 18.5315 6.77837 14.4068 10.3772 11.3075C13.9761 8.2083 18.4395 6.28308 23.1679 5.79055" stroke="white" stroke-width="4"/>
<path d="M25.1703 31.3497L15.9146 22.094C13.4465 21.059 13.0948 23.1224 13.2275 24.2835L23.6774 38.0177C25.0309 40.3266 26.4309 38.9798 26.9617 38.0177C30.6241 28.9412 47.3307 18.3122 55.2262 14.1322C55.7039 13.0972 55.0271 12.7721 54.629 12.7389C45.5525 14.4109 31.208 25.8427 25.1703 31.3497Z" stroke="white" stroke-width="2"/>
<path d="M19.7951 13.6346V0L26.7617 6.9666L19.7951 13.6346Z" fill="white"/>
<path d="M35.4263 8.63531C34.7763 8.31128 34.1285 8.03012 33.5002 7.78869L34.027 7.17563C35.1836 7.68553 36.2694 8.31793 37.2709 9.02012C38.6986 10.0211 39.9071 11.1314 40.8505 12.1508L40.4921 12.3403C38.9658 10.6891 37.1358 9.48751 35.4263 8.63531Z" stroke="white" stroke-width="5"/>
</svg>
