<svg width="52" height="53" viewBox="0 0 52 53" fill="none" xmlns="http://www.w3.org/2000/svg">
<path d="M28.0166 19.6153V10.8051H29.956L30.5655 14.2959L34.278 15.7366L37.2702 13.8526L40.8719 17.6206L38.9325 20.5019C39.4644 21.2112 40.1146 23.1616 40.3732 24.0482L43.9194 24.9348V30.1434L40.3732 30.8637C40.4618 31.2183 39.4497 33.3387 38.9325 34.3546L40.9273 37.3467L37.1594 41.1701L34.1118 39.1753L30.7317 40.616L29.8452 44.0514H28.0166V35.2411C33.9123 33.867 35.0538 29.6816 34.8875 27.7607C35.3751 22.3083 30.5101 20.0586 28.0166 19.6153Z" stroke="white"/>
<path d="M31.6039 46.3507H20.7988L21.0205 48.0684H31.3823L31.6039 46.3507Z" fill="white"/>
<path d="M31.1052 50.0078H21.2421C21.7297 52.1799 23.7356 52.9076 24.6776 53L25.1209 52.3905H27.0602L27.6143 53C29.8308 52.9113 30.8651 50.9683 31.1052 50.0078Z" fill="white"/>
<path d="M37.569 47.7639L35.3525 43.8852C35.4855 42.777 36.2576 43.0171 36.627 43.2757L38.9542 47.2098C38.9099 48.6726 38.0122 48.1887 37.569 47.7639Z" fill="white"/>
<path d="M46.8972 38.928L43.0629 36.6356C42.635 35.6047 43.4256 35.4352 43.8743 35.4793L47.8324 37.7655C48.5115 39.062 47.4919 39.0807 46.8972 38.928Z" fill="white"/>
<path d="M50.6135 26.7994L46.1475 26.6902C45.2678 26.0032 45.8727 25.4666 46.285 25.2842L50.8558 25.3273C52.0848 26.1218 51.2064 26.6398 50.6135 26.7994Z" fill="white"/>
<path d="M47.5955 14.2445L43.7148 16.4576C42.6067 16.3237 42.8475 15.5518 43.1064 15.1827L47.0425 12.8588C48.5053 12.9044 48.0207 13.8016 47.5955 14.2445Z" fill="white"/>
<path d="M38.7874 4.84972L36.5481 8.71528C35.5232 9.15728 35.3427 8.36914 35.3806 7.91982L37.6122 3.93061C38.8991 3.23373 38.9319 4.25298 38.7874 4.84972Z" fill="white"/>
<path d="M14.1456 3.92862L16.4642 7.7472C16.3606 8.85855 15.5825 8.63901 15.2063 8.39031L12.7755 4.51928C12.781 3.05578 13.6912 3.51572 14.1456 3.92862Z" fill="white"/>
<path d="M26.7625 1.11205L26.5276 5.57322C25.8161 6.43323 25.2968 5.81355 25.1261 5.39621L25.2977 0.828473C26.1265 -0.377734 26.6195 0.514938 26.7625 1.11205Z" fill="white"/>
<path d="M4.73072 13.0538L8.65084 15.1962C9.11822 16.2098 8.33482 16.4098 7.88469 16.3831L3.84115 14.2516C3.11245 12.9824 4.13057 12.9242 4.73072 13.0538Z" fill="white"/>
<path d="M1.05816 25.3025L5.52547 25.2862C6.42412 25.9482 5.83462 26.5015 5.42754 26.6955L0.857386 26.7809C-0.393513 26.0213 0.470027 25.4788 1.05816 25.3025Z" fill="white"/>
<path d="M4.30887 37.8L8.07242 35.3932C9.18588 35.4708 8.98451 36.2539 8.74465 36.6357L4.93128 39.156C3.46804 39.1846 3.90666 38.2639 4.30887 37.8Z" fill="white"/>
<path d="M12.858 46.7609L15.1938 42.9529C16.2295 42.5369 16.3901 43.3293 16.3409 43.7775L14.0097 47.7093C12.7057 48.3736 12.6985 47.3539 12.858 46.7609Z" fill="white"/>
<path d="M25.0454 44.1068H20.0584C20.0584 41.8904 18.0267 38.4919 17.0108 37.0697C12.7109 32.1935 11.5252 27.539 11.4698 25.8213C11.2481 14.5175 20.4278 11.0267 25.0454 10.6942V44.1068Z" stroke="white"/>
</svg>
