<svg width="464" height="473" viewBox="0 0 464 473" fill="none" xmlns="http://www.w3.org/2000/svg">
<path d="M238.711 176.049V96.976H256.117L261.588 128.307L294.908 141.237L321.762 124.328L354.088 158.145L336.682 184.006C341.456 190.371 347.291 207.877 349.612 215.834L381.44 223.791V270.538L349.612 277.003C350.408 280.186 341.323 299.217 336.682 308.334L354.585 335.189L320.768 369.503L293.416 351.6L263.08 364.53L255.123 395.364H238.711V316.291C291.625 303.958 301.87 266.394 300.378 249.154C304.754 200.218 261.09 180.027 238.711 176.049Z" stroke="#00AEEF" stroke-width="8"/>
<path d="M280.485 413.267H183.509L185.498 428.684H278.496L280.485 413.267Z" fill="#00AEEF"/>
<path d="M276.009 446.09H187.488C191.864 465.584 209.867 472.116 218.321 472.945L222.299 467.474H239.705L244.679 472.945C264.571 472.149 273.854 454.71 276.009 446.09Z" fill="#00AEEF"/>
<path d="M337.179 428.684L317.286 393.872C318.48 383.925 325.409 386.08 328.725 388.401L349.612 423.71C349.214 436.84 341.157 432.496 337.179 428.684Z" fill="#00AEEF"/>
<path d="M420.907 349.38L386.493 328.806C382.653 319.554 389.749 318.032 393.776 318.428L429.3 338.947C435.395 350.583 426.244 350.751 420.907 349.38Z" fill="#00AEEF"/>
<path d="M454.259 240.526L414.176 239.546C406.281 233.38 411.709 228.564 415.41 226.927L456.433 227.313C467.464 234.444 459.579 239.093 454.259 240.526Z" fill="#00AEEF"/>
<path d="M427.174 127.846L392.345 147.708C382.399 146.506 384.56 139.579 386.884 136.265L422.211 115.408C435.34 115.818 430.99 123.87 427.174 127.846Z" fill="#00AEEF"/>
<path d="M348.113 43.5263L328.015 78.2199C318.816 82.1869 317.197 75.1133 317.537 71.0807L337.565 35.2772C349.115 29.0227 349.41 38.1706 348.113 43.5263Z" fill="#00AEEF"/>
<path d="M126.959 35.2596L147.768 69.5315C146.839 79.506 139.855 77.5355 136.479 75.3035L114.663 40.5608C114.712 27.4258 122.881 31.5537 126.959 35.2596Z" fill="#00AEEF"/>
<path d="M240.192 9.98087L238.084 50.0201C231.699 57.7387 227.038 52.177 225.505 48.4314L227.046 7.43575C234.484 -3.39002 238.909 4.62176 240.192 9.98087Z" fill="#00AEEF"/>
<path d="M42.4567 117.159L77.64 136.387C81.8348 145.484 74.8037 147.279 70.7638 147.04L34.4728 127.909C27.9326 116.518 37.0704 115.996 42.4567 117.159Z" fill="#00AEEF"/>
<path d="M9.49587 227.091L49.5902 226.945C57.6557 232.886 52.3649 237.853 48.7113 239.593L7.69392 240.36C-3.53295 233.542 4.21735 228.673 9.49587 227.091Z" fill="#00AEEF"/>
<path d="M38.6722 339.257L72.4502 317.655C82.4436 318.352 80.6363 325.38 78.4835 328.807L44.2584 351.427C31.1258 351.683 35.0624 343.42 38.6722 339.257Z" fill="#00AEEF"/>
<path d="M115.402 419.682L136.367 385.505C145.662 381.77 147.103 388.882 146.662 392.905L125.739 428.193C114.035 434.155 113.971 425.003 115.402 419.682Z" fill="#00AEEF"/>
<path d="M224.786 395.861H180.028C180.028 375.969 161.793 345.467 152.676 332.702C114.084 288.939 103.442 247.165 102.945 231.748C100.955 130.296 183.344 98.9653 224.786 95.9814V395.861Z" fill="#00AEEF"/>
</svg>
