<svg width="192" height="22" viewBox="0 0 192 22" fill="none" xmlns="http://www.w3.org/2000/svg">
<path fill-rule="evenodd" clip-rule="evenodd" d="M4.85069 15.2153C8.92531 15.4216 19.5448 14.7173 48.3715 12.788C93.3852 9.77247 129.144 7.8534 139.127 7.94572C139.921 7.96415 76.8679 12.8246 70.3613 12.8824C60.216 12.9469 12.0181 16.7882 2.36353 18.1793C-0.381828 18.562 0.701096 19.1678 2.5098 19.1894C5.33543 19.2385 12.8721 18.6971 33.5377 17.2306C48.0707 16.2092 163.748 8.83119 176.456 8.95513C183.591 9.02428 187.938 9.23609 189.9 8.98002C191.544 8.77008 191.548 8.47834 190.062 7.77871C189.064 7.31286 190.125 6.92426 190.805 6.7319C191.847 6.41751 191.345 5.6261 189.968 5.06474C188.106 4.29378 185.004 4.53092 186.545 5.32385C186.88 5.49525 186.988 5.97361 185.848 5.95468C182.526 5.89111 159.055 5.5097 152.7 5.60569C84.839 6.56963 19.0571 13.7791 5.02518 13.8431C0.0493894 13.8445 2.41578 15.0909 4.85069 15.2153Z" fill="white"/>
</svg>
