<svg width="31" height="17" viewBox="0 0 31 17" fill="none" xmlns="http://www.w3.org/2000/svg">
<path d="M27.858 0.00377753C26.5539 0.00377753 25.4972 1.06144 25.4972 2.36463C25.4972 2.63282 25.5519 2.88496 25.6332 3.12482L19.8783 8.07977C19.4751 7.75775 18.9708 7.55755 18.4146 7.55755C17.7725 7.55755 17.1926 7.81535 16.7677 8.23086L12.2594 5.97389C12.1716 4.75003 11.1621 3.78019 9.91556 3.78019C8.61238 3.78019 7.55472 4.83785 7.55472 6.14104C7.55472 6.498 7.63971 6.8323 7.78136 7.13543L3.18526 12.4351C2.92745 12.3387 2.65265 12.2783 2.36085 12.2783C1.05672 12.2783 0 13.335 0 14.6392C0 15.9433 1.05672 17 2.36085 17C3.66498 17 4.7217 15.9433 4.7217 14.6392C4.7217 14.3256 4.65748 14.0263 4.54605 13.7524L9.21675 8.38385C9.43962 8.45278 9.67004 8.50095 9.91556 8.50095C10.6021 8.50095 11.2159 8.20253 11.6475 7.7332L16.0566 9.94389C16.0727 11.2348 17.1209 12.2774 18.4146 12.2774C19.7188 12.2774 20.7755 11.2206 20.7755 9.91651C20.7755 9.87496 20.7651 9.8353 20.7632 9.79375L26.9042 4.51772C27.196 4.6471 27.5171 4.7217 27.858 4.7217C29.1621 4.7217 30.2189 3.66498 30.2189 2.36085C30.2189 1.05672 29.1621 0 27.858 0V0.00377753Z" fill="#00AEEF"/>
</svg>
