<svg width="17" height="17" viewBox="0 0 17 17" fill="none" xmlns="http://www.w3.org/2000/svg">
<g clip-path="url(#clip0_457_3336)">
<path d="M0.53125 17C0.448087 16.9995 0.366202 16.9795 0.292188 16.9415C0.204577 16.8974 0.130901 16.8299 0.0793279 16.7464C0.0277545 16.6629 0.000297344 16.5668 0 16.4687C0 14.4819 0.950938 12.2665 2.49156 12.1444C2.88589 12.1362 3.27408 12.2428 3.6089 12.4513C3.94373 12.6597 4.21076 12.961 4.3775 13.3184C4.56237 13.676 4.63297 14.0818 4.57977 14.4808C4.52656 14.8799 4.35211 15.253 4.08 15.5497C3.82652 15.8432 3.5147 16.0808 3.16441 16.2472C2.81411 16.4137 2.43299 16.5054 2.04531 16.5165C1.61686 16.5272 1.20036 16.6599 0.844688 16.899C0.753536 16.965 0.643783 17.0004 0.53125 17ZM2.61375 13.2015H2.57656C1.93906 13.2812 1.33344 14.3437 1.13156 15.5975C1.39296 15.5297 1.65948 15.4835 1.92844 15.4594C2.18246 15.4669 2.43502 15.4185 2.66823 15.3175C2.90143 15.2165 3.10954 15.0654 3.27781 14.875C3.41454 14.7381 3.50339 14.5607 3.53115 14.3693C3.55892 14.1778 3.52409 13.9825 3.43187 13.8125C3.35778 13.6501 3.244 13.5091 3.10101 13.4023C2.95803 13.2955 2.79045 13.2265 2.61375 13.2015Z" fill="#00AEEF"/>
<path d="M6.00813 13.4566C5.86877 13.456 5.73521 13.4007 5.63626 13.3026L4.15407 11.7991C4.05593 11.7002 4.0006 11.5666 4.00001 11.4272C3.9996 11.3573 4.01301 11.288 4.03944 11.2233C4.06588 11.1586 4.10483 11.0997 4.15407 11.0501L15.0288 0.154117C15.1283 0.0551716 15.2629 -0.000366211 15.4033 -0.000366211C15.5436 -0.000366211 15.6783 0.0551716 15.7778 0.154117L17.2813 1.65755C17.3311 1.70694 17.3706 1.7657 17.3975 1.83044C17.4245 1.89517 17.4384 1.96461 17.4384 2.03474C17.4384 2.10487 17.4245 2.17431 17.3975 2.23905C17.3706 2.30379 17.3311 2.36254 17.2813 2.41193L6.38532 13.2813C6.33748 13.3344 6.27941 13.3773 6.2146 13.4074C6.14979 13.4375 6.07956 13.4543 6.00813 13.4566ZM5.25907 11.4272L6.00813 12.1763L16.155 2.03474L15.4006 1.28037L5.25907 11.4272Z" fill="#00AEEF"/>
</g>
<defs>
<clipPath id="clip0_457_3336">
<rect width="17" height="17" fill="white"/>
</clipPath>
</defs>
</svg>
