<svg width="13" height="19" viewBox="0 0 13 19" fill="none" xmlns="http://www.w3.org/2000/svg">
<path d="M9.5 1H3.83333C2.26853 1 1 2.26853 1 3.83333V15.1667C1 16.7315 2.26853 18 3.83333 18H9.5C11.0648 18 12.3333 16.7315 12.3333 15.1667V3.83333C12.3333 2.26853 11.0648 1 9.5 1Z" stroke="#00AEEF" stroke-linecap="round" stroke-linejoin="round"/>
<path d="M6.66667 16.1111C6.41621 16.1111 6.17594 16.0115 5.99886 15.8345C5.82177 15.6574 5.72223 15.4171 5.72223 15.1666C5.72223 14.9798 5.77757 14.7973 5.88137 14.6419C5.98516 14.4866 6.13268 14.3656 6.30523 14.2941C6.47778 14.2226 6.66771 14.2039 6.85093 14.2403C7.03416 14.2768 7.20246 14.3667 7.33449 14.4988C7.46662 14.6309 7.55653 14.7992 7.59298 14.9824C7.62944 15.1656 7.61074 15.3555 7.53925 15.5281C7.46775 15.7006 7.34667 15.8481 7.19141 15.9519C7.03605 16.0557 6.85348 16.1111 6.66667 16.1111Z" fill="black"/>
</svg>
