<svg width="17" height="18" viewBox="0 0 17 18" fill="none" xmlns="http://www.w3.org/2000/svg">
<path opacity="0.5" d="M5.18325 13.9912C5.87028 13.9912 6.42722 14.6648 6.42722 15.4956C6.42722 16.3264 5.87028 17 5.18325 17C4.49621 17 3.93927 16.3264 3.93927 15.4956C3.93927 14.6648 4.49621 13.9912 5.18325 13.9912Z" stroke="#1C274C"/>
<path opacity="0.5" d="M12.6473 13.9913C13.3343 13.9913 13.8913 14.6648 13.8913 15.4957C13.8913 16.3266 13.3343 17.0001 12.6473 17.0001C11.9603 17.0001 11.4033 16.3266 11.4033 15.4957C11.4033 14.6648 11.9603 13.9913 12.6473 13.9913Z" stroke="#002A3A"/>
<path d="M0.828456 0.0427869C0.504384 -0.0950062 0.149312 0.111006 0.0353801 0.502913C-0.0785598 0.894829 0.0917903 1.32423 0.415854 1.46202L0.828456 0.0427869ZM16.0954 7.65534L16.7045 7.80724L16.7053 7.80262L16.0954 7.65534ZM3.69733 7.53223V4.80261H2.45335V7.53223H3.69733ZM1.04508 0.134886L0.828456 0.0427869L0.415854 1.46202L0.63248 1.55413L1.04508 0.134886ZM8.03417 14.0413H12.432V12.5369H8.03417V14.0413ZM3.69733 4.80261C3.69733 4.09337 3.69817 3.50154 3.65512 3.02061C3.61056 2.52277 3.51402 2.06872 3.28017 1.65487L2.2531 2.50365C2.32795 2.63613 2.38576 2.81808 2.41837 3.1825C2.45251 3.56383 2.45335 4.06049 2.45335 4.80261H3.69733ZM0.63248 1.55413C1.18614 1.78954 1.55 1.94554 1.81775 2.10442C2.06921 2.25363 2.18007 2.37442 2.2531 2.50365L3.28017 1.65487C3.0445 1.23779 2.73114 0.970671 2.36572 0.753837C2.01656 0.546651 1.57085 0.35844 1.04508 0.134886L0.63248 1.55413ZM2.45335 7.53223C2.45335 8.98899 2.46466 10.0395 2.57831 10.842C2.69966 11.6988 2.94194 12.3123 3.39493 12.8901L4.29767 11.8551C4.03216 11.5164 3.88894 11.1847 3.80443 10.5881C3.71225 9.93707 3.69733 9.0256 3.69733 7.53223H2.45335ZM8.03417 12.5369C6.85919 12.5369 6.04392 12.5351 5.42967 12.4298C4.83687 12.3281 4.52369 12.1433 4.29767 11.8551L3.39493 12.8901C3.88743 13.5183 4.51175 13.7918 5.25502 13.9192C5.97684 14.0431 6.89623 14.0413 8.03417 14.0413V12.5369ZM3.07534 4.63375H13.1356V3.12935H3.07534V4.63375ZM15.4862 7.5035L15.0718 9.93536L16.2901 10.2391L16.7045 7.80724L15.4862 7.5035ZM13.1356 4.63375C13.8458 4.63375 14.4708 4.63476 14.9641 4.70144C15.2093 4.73458 15.3927 4.78061 15.5216 4.83539C15.6554 4.89227 15.6767 4.93591 15.666 4.91898L16.652 4.00169C16.4571 3.69537 16.1831 3.52195 15.934 3.41606C15.6798 3.30806 15.3924 3.24556 15.1024 3.20636C14.5253 3.12835 13.8227 3.12935 13.1356 3.12935V4.63375ZM16.7053 7.80262C16.8457 6.95221 16.9648 6.23869 16.994 5.66716C17.024 5.07924 16.9687 4.49953 16.652 4.00169L15.666 4.91898C15.7175 4.99991 15.7743 5.14562 15.7524 5.57448C15.7297 6.01972 15.633 6.61433 15.4854 7.50811L16.7053 7.80262ZM12.432 14.0413C13.0637 14.0413 13.5938 14.0426 14.0211 13.9793C14.4654 13.9136 14.8706 13.7699 15.2243 13.4213L14.4384 12.255C14.3346 12.3573 14.1874 12.4391 13.87 12.4861C13.5356 12.5356 13.0948 12.5369 12.432 12.5369V14.0413ZM15.0718 9.93536C14.9379 10.7205 14.8478 11.2424 14.7403 11.6284C14.6382 11.9948 14.5422 12.1527 14.4384 12.255L15.2243 13.4213C15.578 13.0726 15.7762 12.6217 15.9192 12.1088C16.0567 11.6154 16.1626 10.9872 16.2901 10.2391L15.0718 9.93536Z" fill="#00AEEF"/>
</svg>
