<svg width="19" height="17" viewBox="0 0 19 17" fill="none" xmlns="http://www.w3.org/2000/svg">
<path fill-rule="evenodd" clip-rule="evenodd" d="M0 2.83333C0 1.26853 1.26853 0 2.83333 0H16.0556C17.6204 0 18.8889 1.26853 18.8889 2.83333V11.3333C18.8889 12.8982 17.6204 14.1667 16.0556 14.1667H10.3889V15.1111H12.2778C12.7994 15.1111 13.2222 15.5339 13.2222 16.0556C13.2222 16.5772 12.7994 17 12.2778 17H6.61111C6.08951 17 5.66667 16.5772 5.66667 16.0556C5.66667 15.5339 6.08951 15.1111 6.61111 15.1111H8.5V14.1667H2.83333C1.26853 14.1667 0 12.8982 0 11.3333V2.83333ZM2.83333 1.88889C2.31174 1.88889 1.88889 2.31174 1.88889 2.83333V11.3333C1.88889 11.8549 2.31174 12.2778 2.83333 12.2778H16.0556C16.5772 12.2778 17 11.8549 17 11.3333V2.83333C17 2.31174 16.5772 1.88889 16.0556 1.88889H2.83333Z" fill="#00AEEF"/>
</svg>
