<svg width="33" height="32" viewBox="0 0 33 32" fill="none" xmlns="http://www.w3.org/2000/svg">
<ellipse cx="16.6356" cy="16" rx="16.0074" ry="16" fill="#00AEEF"/>
<path d="M9.61517 14.4552H19.9967L17.7104 11.9556C17.0012 11.1176 17.4149 10.2415 17.7104 9.90821C18.2516 9.24163 19.2113 9.56699 19.6234 9.81299L24.196 14.6457C25.3904 15.7503 24.6936 16.8517 24.196 17.2644L19.81 22.0971C18.9889 22.8017 18.1614 22.3907 17.8504 22.0971C16.9545 21.2972 17.4771 20.2402 17.8504 19.8117L19.9967 17.5262H9.61517C8.75669 17.3168 8.46428 16.5026 8.42538 16.1217C8.3134 15.1504 9.17192 14.606 9.61517 14.4552Z" fill="white"/>
</svg>
