<svg width="102" height="71" viewBox="0 0 102 71" fill="none" xmlns="http://www.w3.org/2000/svg">
<path d="M47.4908 67.5563C47.3878 67.9706 47.2041 68.3605 46.9501 68.7037C46.6962 69.0469 46.377 69.3366 46.0109 69.5563C45.6448 69.7759 45.239 69.9212 44.8166 69.9837C44.3943 70.0463 43.9638 70.0249 43.5497 69.9208L31.3055 66.86C30.3121 66.6101 29.3913 66.1304 28.6173 65.4595L19.456 57.496C18.8055 56.9306 18.4062 56.1298 18.346 55.27C18.2858 54.4101 18.5696 53.5616 19.1351 52.911C19.7005 52.2605 20.5012 51.8612 21.3611 51.801C22.2209 51.7408 23.0695 52.0246 23.7201 52.5901L32.8821 60.554L45.1263 63.6152C45.5404 63.7186 45.93 63.9027 46.2729 64.1567C46.6159 64.4108 46.9054 64.7299 47.125 65.0959C47.3445 65.4619 47.4899 65.8675 47.5526 66.2897C47.6154 66.7118 47.5944 67.1422 47.4908 67.5563ZM101.36 28.8625C101.097 29.6849 100.671 30.4461 100.108 31.101C99.5454 31.7559 98.8568 32.2911 98.0832 32.6749L88.6306 37.4012L82.5584 44.5047C82.5372 44.5295 82.514 44.5524 82.4922 44.5765C82.4722 44.5985 82.4523 44.6203 82.4319 44.6416C82.4164 44.6578 82.4021 44.6751 82.3863 44.691L67.4375 59.6403C66.212 60.8583 64.5542 61.5418 62.8264 61.5414C62.2998 61.5415 61.7753 61.4771 61.2644 61.3494L37.7194 55.4632C36.8357 55.2435 36.0084 54.8396 35.2918 54.2777L13.3428 37.1145L3.59281 32.2395C2.82081 31.8534 2.13344 31.3174 1.5708 30.6628C1.00816 30.0082 0.581512 29.2481 0.315762 28.4269C0.0500115 27.6057 -0.049524 26.7397 0.0229632 25.8796C0.0954503 25.0195 0.338509 24.1824 0.737956 23.4172L10.7288 4.28401C11.5237 2.77945 12.8744 1.64448 14.4934 1.1206C16.1125 0.596726 17.872 0.725287 19.3977 1.47894L28.4875 6.02384L48.2605 0.259416C49.7499 -0.174257 51.3453 -0.0614858 52.759 0.577392L66.164 6.64298H72.8211L82.2787 1.91437C83.8043 1.16015 85.564 1.0313 87.1831 1.55528C88.8023 2.07925 90.1528 3.21464 90.9473 4.71963L100.938 23.8525C101.34 24.6168 101.585 25.4541 101.657 26.3147C101.73 27.1753 101.629 28.0417 101.36 28.8625ZM75.1005 42.7843L62.2428 33.4332L58.963 35.893C56.1448 37.9898 52.7257 39.1222 49.213 39.1222C45.7003 39.1222 42.2812 37.9898 39.463 35.893L37.2608 34.2414C36.5158 33.6826 35.8996 32.9703 35.4539 32.1526C35.0081 31.335 34.7433 30.4311 34.6773 29.5022C34.6112 28.5734 34.7456 27.6411 35.0712 26.7686C35.3968 25.8962 35.9061 25.1039 36.5645 24.4454L52.463 8.54686C52.6953 8.31805 52.9443 8.10683 53.2079 7.91494L50.0799 6.49954L30.2859 12.2701L19.2213 33.4598L39.296 49.1576L62.841 55.0438L75.1005 42.7843ZM82.6906 34.3466L71.6185 13.143H65.4721L65.461 13.1438C65.4559 13.1438 65.4509 13.143 65.446 13.143H57.0591L41.161 29.0415L43.3629 30.693C45.0539 31.9511 47.1054 32.6305 49.213 32.6305C51.3207 32.6305 53.3722 31.9511 55.0632 30.693L60.2631 26.793C60.819 26.3759 61.4941 26.1481 62.1891 26.143C62.8841 26.1378 63.5624 26.3557 64.1245 26.7646L79.5697 37.9976L82.6906 34.3466Z" fill="#00AEEF"/>
</svg>
