<svg width="104" height="104" viewBox="0 0 104 104" fill="none" xmlns="http://www.w3.org/2000/svg">
<path d="M48.6529 87.2633C48.5499 87.6776 48.3662 88.0676 48.1122 88.4108C47.8583 88.754 47.5391 89.0437 47.173 89.2633C46.8069 89.483 46.4011 89.6282 45.9787 89.6908C45.5564 89.7533 45.1259 89.7319 44.7118 89.6278L32.4676 86.567C31.4742 86.3172 30.5534 85.8375 29.7794 85.1666L20.6181 77.203C19.9676 76.6376 19.5683 75.8369 19.5081 74.977C19.4479 74.1172 19.7317 73.2686 20.2972 72.6181C20.8626 71.9675 21.6633 71.5682 22.5232 71.508C23.3831 71.4478 24.2316 71.7317 24.8822 72.2971L34.0442 80.261L46.2884 83.3222C46.7025 83.4257 47.0921 83.6097 47.4351 83.8638C47.778 84.1178 48.0675 84.437 48.2871 84.8029C48.5066 85.1689 48.652 85.5746 48.7147 85.9967C48.7775 86.4189 48.7565 86.8493 48.6529 87.2633ZM102.522 48.5696C102.259 49.392 101.833 50.1532 101.27 50.808C100.707 51.4629 100.019 51.9981 99.2453 52.3819L89.7927 57.1083L83.7206 64.2118C83.6993 64.2365 83.6761 64.2594 83.6543 64.2835C83.6343 64.3055 83.6144 64.3273 83.594 64.3487C83.5785 64.3648 83.5642 64.3822 83.5484 64.398L68.5996 79.3474C67.3741 80.5653 65.7163 81.2488 63.9885 81.2485C63.4619 81.2486 62.9374 81.1841 62.4265 81.0565L38.8815 75.1702C37.9978 74.9506 37.1705 74.5466 36.4539 73.9848L14.5049 56.8216L4.75492 51.9465C3.98292 51.5604 3.29555 51.0244 2.73291 50.3698C2.17027 49.7152 1.74362 48.9552 1.47787 48.1339C1.21212 47.3127 1.11259 46.4467 1.18507 45.5866C1.25756 44.7265 1.50062 43.8894 1.90007 43.1243L11.8909 23.991C12.6858 22.4865 14.0365 21.3515 15.6556 20.8276C17.2746 20.3038 19.0341 20.4323 20.5598 21.186L29.6496 25.7309L49.4226 19.9664C50.912 19.5328 52.5074 19.6455 53.9211 20.2844L67.3261 26.35H73.9832L83.4409 21.6214C84.9664 20.8672 86.7261 20.7383 88.3452 21.2623C89.9644 21.7863 91.315 22.9217 92.1094 24.4267L102.1 43.5595C102.502 44.3238 102.747 45.1611 102.819 46.0217C102.892 46.8823 102.791 47.7487 102.522 48.5696ZM76.2627 62.4913L63.4049 53.1403L60.1251 55.6C57.3069 57.6968 53.8878 58.8293 50.3751 58.8293C46.8624 58.8293 43.4433 57.6968 40.6251 55.6L38.4229 53.9484C37.6779 53.3896 37.0617 52.6773 36.616 51.8597C36.1702 51.042 35.9054 50.1382 35.8394 49.2093C35.7734 48.2804 35.9077 47.3481 36.2333 46.4757C36.5589 45.6032 37.0682 44.8109 37.7266 44.1524L53.6251 28.2539C53.8574 28.0251 54.1064 27.8139 54.37 27.622L51.242 26.2066L31.448 31.9771L20.3834 53.1668L40.4581 68.8646L64.0031 74.7509L76.2627 62.4913ZM83.8527 54.0536L72.7806 32.85H66.6342L66.6231 32.8508C66.618 32.8508 66.613 32.85 66.6081 32.85H58.2212L42.3231 48.7485L44.525 50.4001C46.216 51.6581 48.2675 52.3375 50.3751 52.3375C52.4828 52.3375 54.5343 51.6581 56.2253 50.4001L61.4252 46.5C61.9812 46.0829 62.6562 45.8551 63.3512 45.85C64.0462 45.8449 64.7245 46.0628 65.2866 46.4717L80.7318 57.7046L83.8527 54.0536Z" fill="#00AEEF"/>
</svg>
