<svg width="50" height="48" viewBox="0 0 50 48" fill="none" xmlns="http://www.w3.org/2000/svg">
<g clip-path="url(#clip0_457_967)">
<path d="M21.1072 4.34978V12.2123C21.1072 13.2787 20.2079 14.1427 19.0985 14.1427C15.1402 14.1427 12.987 18.0448 12.6886 25.7464L19.0985 25.7464C20.2079 25.7464 21.1072 26.6112 21.1072 27.6771V44.2785C21.1072 45.3443 20.2079 46.2085 19.0985 46.2085H2.00836C0.898503 46.2085 0 45.3437 0 44.2785L0 27.6771C0 23.9852 0.386758 20.5972 1.14918 17.6061C1.93112 14.5393 3.13142 11.8578 4.71567 9.63586C6.34584 7.3524 8.38495 5.56055 10.7768 4.31225C13.1849 3.0564 15.9852 2.41943 19.0992 2.41943C20.2079 2.41943 21.1072 3.28344 21.1072 4.34978ZM47.0139 14.1428C48.1227 14.1428 49.0228 13.278 49.0228 12.2125V4.34991C49.0228 3.28357 48.1229 2.41957 47.0139 2.41957C43.9011 2.41957 41.1004 3.05667 38.6932 4.31239C36.3009 5.56068 34.2607 7.35254 32.6302 9.63599C31.0465 11.8579 29.8462 14.5395 29.0642 17.6071C28.3022 20.599 27.9154 23.987 27.9154 27.6772V44.2787C27.9154 45.3445 28.815 46.2086 29.9242 46.2086H47.0137C48.1226 46.2086 49.0218 45.3438 49.0218 44.2787L49.0218 27.6771C49.0218 26.6113 48.1227 25.7464 47.0137 25.7464L40.6953 25.7464C40.9892 18.045 43.1109 14.1428 47.0139 14.1428Z" fill="#00AEEF" fill-opacity="0.28"/>
</g>
<defs>
<clipPath id="clip0_457_967">
<rect width="49.0228" height="47.1185" fill="white" transform="translate(0 0.754883)"/>
</clipPath>
</defs>
</svg>
