<svg width="50" height="49" viewBox="0 0 50 49" fill="none" xmlns="http://www.w3.org/2000/svg">
<g clip-path="url(#clip0_457_970)">
<path d="M27.9156 44.5135V36.6509C27.9156 35.5846 28.8149 34.7206 29.9244 34.7206C33.8827 34.7206 36.0358 30.8185 36.3342 23.1169H29.9244C28.8149 23.1169 27.9156 22.2521 27.9156 21.1862L27.9156 4.58474C27.9156 3.51894 28.8149 2.6548 29.9244 2.6548H47.0145C48.1243 2.6548 49.0228 3.51961 49.0228 4.58474V21.1862C49.0228 24.8781 48.6361 28.2661 47.8736 31.2571C47.0917 34.324 45.8914 37.0055 44.3072 39.2274C42.677 41.5109 40.6379 43.3027 38.246 44.551C35.8379 45.8069 33.0377 46.4438 29.9237 46.4438C28.8149 46.4438 27.9156 45.5798 27.9156 44.5135ZM2.00896 34.7205C0.900089 34.7205 4.19617e-05 35.5853 4.19617e-05 36.6508V44.5134C4.19617e-05 45.5797 0.899952 46.4437 2.00896 46.4437C5.12171 46.4437 7.92241 45.8066 10.3296 44.5509C12.7219 43.3026 14.7622 41.5107 16.3926 39.2273C17.9763 37.0054 19.1766 34.3237 19.9587 31.2562C20.7207 28.2642 21.1074 24.8762 21.1074 21.186L21.1074 4.5846C21.1074 3.5188 20.2078 2.65466 19.0986 2.65466H2.00911C0.900234 2.65466 0.00102615 3.51948 0.00102615 4.5846V21.1862C0.00102615 22.252 0.900093 23.1169 2.00911 23.1169H8.32756C8.03363 30.8183 5.91194 34.7205 2.00896 34.7205Z" fill="#00AEEF" fill-opacity="0.28"/>
</g>
<defs>
<clipPath id="clip0_457_970">
<rect width="49.0228" height="47.1185" fill="white" transform="matrix(-1 0 0 -1 49.0228 48.1084)"/>
</clipPath>
</defs>
</svg>
