<svg width="88" height="87" viewBox="0 0 88 87" fill="none" xmlns="http://www.w3.org/2000/svg">
<path fill-rule="evenodd" clip-rule="evenodd" d="M21.2925 0C16.8159 0 12.7235 2.52851 10.7214 6.53134L1.24779 25.4731C-0.722341 29.4122 -0.337482 34.1198 2.24632 37.6869L34.4275 82.1144C39.146 88.6285 48.854 88.6285 53.5724 82.1144L85.7538 37.6869C88.3374 34.1198 88.7223 29.4122 86.7525 25.4731L77.2786 6.53134C75.2764 2.52851 71.1844 0 66.7074 0H21.2925ZM17.7688 10.054C18.4362 8.71969 19.8003 7.87687 21.2925 7.87687H30.898L25.27 27.569H9.00871L17.7688 10.054ZM33.4645 27.569L39.0925 7.87687H48.9076L54.5357 27.569H33.4645ZM54.4242 35.4459H33.5757L44 69.3149L54.4242 35.4459ZM51.5995 71.4085L62.6682 35.4459H77.6489L51.5995 71.4085ZM62.73 27.569L57.1019 7.87687H66.7074C68.1998 7.87687 69.564 8.71969 70.2314 10.054L78.9915 27.569H62.73ZM10.3512 35.4459H25.332L36.4005 71.4085L10.3512 35.4459Z" fill="#00AEEF"/>
</svg>
