<svg width="62" height="56" viewBox="0 0 62 56" fill="none" xmlns="http://www.w3.org/2000/svg">
<path d="M37 22H31H25C21.7 22 19 24.7 19 28V37C19 38.1 19.5 39.1 20.2 39.8C20.9 40.5 21.9 41 23 41V50C23 53.3 25.7 56 29 56H31H33C36.3 56 39 53.3 39 50V41C40.1 41 41.1 40.6 41.8 39.8C42.5 39.1 43 38.1 43 37V28C43 24.7 40.3 22 37 22Z" fill="#00AEEF"/>
<path d="M31 18C34.866 18 38 14.866 38 11C38 7.13401 34.866 4 31 4C27.134 4 24 7.13401 24 11C24 14.866 27.134 18 31 18Z" fill="#00AEEF"/>
<path d="M16.6 44.7C16.4 44.5 16.1 44.3 15.9 44.1C14 42.1 12.9 39.6 12.9 37V28C12.9 24.8 14.2 21.8 16.3 19.7C16.9 19.1 16.4 18 15.6 18C13.9 18 12 18 12 18H6C2.7 18 0 20.7 0 24V33C0 34.1 0.500001 35.1 1.2 35.8C1.9 36.5 2.9 37 4 37V46C4 49.3 6.7 52 10 52H12H14C14.9 52 15.7 51.8 16.4 51.5C16.8 51.3 17 51 17 50.6C17 49.4 17 46.6 17 45.5C17 45.2 16.9 44.9 16.6 44.7Z" fill="#00AEEF"/>
<path d="M12 14C15.866 14 19 10.866 19 7C19 3.13401 15.866 0 12 0C8.13401 0 5 3.13401 5 7C5 10.866 8.13401 14 12 14Z" fill="#00AEEF"/>
<path d="M56 18H50C50 18 48.1 18 46.4 18C45.5 18 45.1 19 45.7 19.7C47.8 21.9 49.1 24.8 49.1 28V37C49.1 39.6 48.1 42.1 46.1 44.1C45.9 44.3 45.7 44.5 45.4 44.7C45.2 44.9 45 45.2 45 45.5C45 46.6 45 49.3 45 50.6C45 51 45.2 51.4 45.6 51.5C46.3 51.8 47.1 52 48 52H50H52C55.3 52 58 49.3 58 46V37C59.1 37 60.1 36.6 60.8 35.8C61.5 35.1 62 34.1 62 33V24C62 20.7 59.3 18 56 18Z" fill="#00AEEF"/>
<path d="M50 14C53.866 14 57 10.866 57 7C57 3.13401 53.866 0 50 0C46.134 0 43 3.13401 43 7C43 10.866 46.134 14 50 14Z" fill="#00AEEF"/>
</svg>
