<svg width="436" height="386" viewBox="0 0 436 386" fill="none" xmlns="http://www.w3.org/2000/svg">
<circle cx="229.438" cy="189.438" r="189.438" fill="#006EC8"/>
<circle cx="229.114" cy="189.763" r="155.32" fill="#00AEEF"/>
<rect x="336.61" y="193.699" width="79.7875" height="67.7248" rx="9.5" transform="rotate(18.1579 336.61 193.699)" stroke="white"/>
<rect x="273.81" y="33.1712" width="65" height="126.456" rx="9.5" transform="rotate(24.9852 273.81 33.1712)" stroke="#DDDDDD"/>
<path d="M308 11.7007L220.5 190.201L203.5 251.201L268 290.701L305 300.701C319.4 303.501 325 295.201 326 290.701L433.5 45.2007C439.1 34.4007 432.167 28.7007 428 27.2007L330.5 1.70073C317.7 -1.49927 310.167 7.03406 308 11.7007Z" fill="black"/>
<path d="M304 10.7007L216.5 189.201L199.5 250.201L264 289.701L301 299.701C315.4 302.501 321 294.201 322 289.701L429.5 44.2007C435.1 33.4007 428.167 27.7007 424 26.2007L326.5 0.700727C313.7 -2.49927 306.167 6.03406 304 10.7007Z" fill="#5A5A5A"/>
<path d="M202.5 229.701L260 112.201L381.5 142.701L324 275.701C317.2 290.901 306.833 291.701 302.5 290.201L260 278.201L222.5 255.201L202.5 229.701Z" fill="#F2F3F8"/>
<path d="M325 4.70047L342 9.20047C339.2 12.8005 340.167 16.3673 341 17.7007L393 31.2007C397 32.0007 400 26.8673 401 24.2007L419.5 28.7007C427.1 30.7007 427 38.534 426 42.2007L380 145.701L259.5 111.701L310.5 9.20047C313.7 3.20047 321.5 3.70047 325 4.70047Z" fill="#00AEEF"/>
<path d="M350.66 166.976L260.196 143.707C251.955 141.587 246.909 146.634 245.417 149.422L237.355 164.526C233.414 174.65 238.998 179.631 242.282 180.855L328.268 202.491C340.091 206.737 346.033 202.083 347.525 199.226L356.93 180.855C360.513 172.038 354.243 167.928 350.66 166.976Z" fill="#534F5E"/>
<path d="M401.5 188.701L300.5 160.201C291.3 157.605 285.667 163.786 284 167.201L275 185.701C270.6 198.101 276.834 204.201 280.5 205.701L376.5 232.201C389.7 237.401 396.334 231.701 398 228.201L408.5 205.701C412.5 194.901 405.5 189.867 401.5 188.701Z" fill="#00AEEF"/>
<path d="M308.499 58.2006C299.699 45.0006 312 39.2007 319.499 39.7006L400 61.7006C409.5 72.7007 398 82.7007 389 80.2006L308.499 58.2006Z" fill="white"/>
<path d="M310.738 71.5554L308.551 75.9677L373.74 96.7142L375.947 91.8023L310.738 71.5554Z" fill="white"/>
<path d="M306.926 78.9026L304.74 83.3149L369.929 104.061L372.136 99.1495L306.926 78.9026Z" fill="white"/>
<circle cx="296.145" cy="73.4465" r="6" transform="rotate(2.39868 296.145 73.4465)" fill="white"/>
<path d="M289.5 168.201L278.5 190.201C276.1 195.001 279.166 198.534 281 199.701L298.5 204.201C307.3 207.001 310.5 203.034 311 200.701L321 179.201C323.4 173.601 320 171.201 318 170.701L300.5 165.201C294.9 164.001 290.833 166.701 289.5 168.201Z" fill="white"/>
<rect x="325.245" y="209.201" width="50" height="17.0724" rx="8" transform="rotate(16.1838 325.245 209.201)" fill="#FFFDFF"/>
<circle cx="307.5" cy="45.7007" r="3.5" fill="#00597A"/>
<circle cx="307.5" cy="45.7007" r="1.5" fill="white"/>
<circle cx="239.5" cy="158.701" r="3.5" fill="#00597A"/>
<circle cx="239.5" cy="158.701" r="1.5" fill="white"/>
<path d="M326.5 20.7007L315 17.7007V19.7007L326 22.2007L326.5 20.7007Z" fill="white"/>
<path d="M325.5 24.2007L314 21.2007V23.2007L325 25.7007L325.5 24.2007Z" fill="white"/>
<path d="M324.5 27.7007L313 24.7007V26.7007L324 29.2007L324.5 27.7007Z" fill="white"/>
<circle cx="402.5" cy="214.701" r="3.5" fill="#00597A"/>
<circle cx="402.5" cy="214.701" r="1.5" fill="white"/>
<path d="M14.5002 104.5C8.50019 90.5 17.0002 83.3333 22.0002 81.5L134 191L281 328C283.8 333.2 276.833 340.833 273 344L165 382C148.2 390 138.333 380.333 135.5 374.5L14.5002 104.5Z" fill="#292526"/>
<path d="M16.9999 99.4999C11.7999 88.6999 19.1666 82.3332 23.4999 80.4999L136 55.9999C146.4 53.5999 153.667 60.9999 156 64.9999L279.5 323C282.7 333 278.167 338.167 275.5 339.5L161 380C145.4 384.8 137.833 373 136 366.5L16.9999 99.4999Z" fill="#4E4E50"/>
<path d="M28.5 83.4999L50 79.4999C53.2 87.0998 57 88.3333 58.5 88L115 75C118.6 74.2 118.833 71.3333 118.5 70L116 64.5L133 60.4999C142.6 58.0999 150 65.1665 152.5 68.9999L272.5 321C275.7 329.8 270.167 334.333 267 335.5L162.5 372.5C148.9 375.7 141.5 365.167 139.5 359.5L22.5 99.4999C18.9 91.0999 25 85.3332 28.5 83.4999Z" fill="#00AEEF"/>
<path d="M205.5 180L74.5 214L140 360C146.4 375.6 158 375.167 163 373L264 337C274 333.8 274.167 324.667 273 320.5L205.5 180Z" fill="#534F5E" stroke="black"/>
<rect x="2.43919" y="116.96" width="65" height="151.932" rx="9.5" transform="rotate(-25.7824 2.43919 116.96)" stroke="#DDDDDD"/>
<rect x="55.2135" y="318.557" width="65" height="50.5783" rx="9.5" transform="rotate(-21.2326 55.2135 318.557)" stroke="#DDDDDD"/>
<path d="M61.6771 132.43C47.5677 125.177 55.4941 114.126 62.2898 110.916L143.327 90.9826C156.978 95.9728 151.794 110.304 142.714 112.497L61.6771 132.43Z" fill="white"/>
<path d="M111.677 244.43C97.5677 237.177 105.494 226.126 112.29 222.916L193.327 202.983C206.978 207.973 201.794 222.304 192.714 224.497L111.677 244.43Z" fill="white"/>
<path d="M89.2638 149.776L89.9374 154.655L155.507 135.146L154.57 129.843L89.2638 149.776Z" fill="white"/>
<path d="M90.2448 157.994L90.9183 162.872L156.488 143.364L155.551 138.061L90.2448 157.994Z" fill="white"/>
<circle cx="78.2619" cy="159.546" r="6" transform="rotate(-31.824 78.2619 159.546)" fill="white"/>
<path d="M208.5 252.5L79.5001 291.5C61.9001 296.821 63.8334 309.717 67.0001 315.5C73.8001 328.7 86.1668 327.667 91.5001 325.5L223.5 284C241.1 262 220.833 253.833 208.5 252.5Z" fill="#00AEEF"/>
<path d="M227.381 290.092L99.6801 333.156C82.2574 339.032 84.598 351.86 87.9462 357.54C95.1607 370.518 107.488 369.094 112.751 366.759L243.37 321.101C260.265 298.555 239.75 291.034 227.381 290.092Z" fill="white"/>
<circle cx="14.5" cy="148.5" r="14.5" fill="#D9D9D9"/>
<circle cx="31.5" cy="184.5" r="14.5" fill="#D9D9D9"/>
<circle cx="43.5" cy="216.5" r="14.5" fill="#D9D9D9"/>
<path d="M11.5 156L8.5 150L12.5 145.5L19 147L22 153L11.5 156Z" fill="#00AEEF"/>
<path d="M6.5 149.5L5 148.5L11 141H12.5L21.5 144L20 146L12 144L6.5 149.5Z" fill="#00AEEF"/>
<circle cx="27.5" cy="182.5" r="5.5" stroke="#00AEEF" stroke-width="2"/>
<rect x="31.9639" y="184" width="9.81828" height="2.5176" rx="1" transform="rotate(22.5082 31.9639 184)" fill="#00AEEF"/>
<path d="M40.0002 210.5C32.5 219 40.5002 223.167 46.0002 224.5C48.8003 223.3 49.5002 218 49.5001 215.5C48.3001 210.3 43.0001 209.5 40.0002 210.5Z" fill="#00AEEF"/>
<circle cx="43" cy="216" r="3" fill="white"/>
<circle cx="54.5" cy="122.5" r="3.5" fill="#00597A"/>
<circle cx="54.5" cy="122.5" r="1.5" fill="white"/>
<circle cx="103.5" cy="234.5" r="3.5" fill="#00597A"/>
<circle cx="103.5" cy="234.5" r="1.5" fill="white"/>
<circle cx="68.5" cy="313.5" r="3.5" fill="#00597A"/>
<circle cx="68.5" cy="313.5" r="1.5" fill="white"/>
<circle cx="89.5" cy="359.5" r="3.5" fill="#00597A"/>
<circle cx="89.5" cy="359.5" r="1.5" fill="white"/>
</svg>
