<svg width="211" height="24" viewBox="0 0 211 24" fill="none" xmlns="http://www.w3.org/2000/svg">
<path fill-rule="evenodd" clip-rule="evenodd" d="M5.34793 16.312C9.82789 16.543 21.5038 15.7541 53.1981 13.5933C102.69 10.2158 142.006 8.0663 152.982 8.1697C153.854 8.19034 84.5291 13.6343 77.3753 13.699C66.2208 13.7713 13.2284 18.0737 2.61336 19.6318C-0.405094 20.0604 0.785555 20.739 2.77418 20.7632C5.8809 20.8181 14.1673 20.2117 36.8886 18.5692C52.8673 17.4252 180.052 9.16147 194.024 9.30029C201.869 9.37775 206.648 9.61499 208.806 9.32817C210.613 9.09304 210.617 8.76626 208.984 7.98265C207.886 7.46087 209.053 7.02562 209.8 6.81017C210.946 6.45803 210.394 5.57162 208.88 4.94287C206.833 4.07936 203.422 4.34497 205.117 5.2331C205.484 5.42507 205.603 5.96085 204.35 5.93965C200.698 5.86845 174.892 5.44125 167.905 5.54877C93.2932 6.62842 20.9675 14.7034 5.53979 14.7751C0.0690193 14.7766 2.6708 16.1727 5.34793 16.312Z" fill="black"/>
</svg>
