<svg width="89" height="57" viewBox="0 0 89 57" fill="none" xmlns="http://www.w3.org/2000/svg">
<path d="M25.6674 52.5929C23.7262 53.6152 24.8586 55.5748 25.6674 56.4268H76.3211C97.4319 44.1582 85.3194 31.9324 76.6243 27.353C78.0802 17.1293 72.7823 9.4615 69.9514 6.90557C57.3335 -6.12969 43.0575 4.03014 37.4967 10.7395H36.2836L34.7669 9.78087C15.3547 1.09061 11.1082 17.8747 11.4115 27.353C6.07309 27.6086 1.90762 34.0624 0.492183 37.2573C-2.17706 49.7813 6.65955 55.2553 11.4115 56.4268H21.1176V52.5929H13.8381C4.99464 52.0817 3.48041 44.0731 3.82874 40.1327C4.55669 32.9761 11.8161 30.3349 15.3548 29.909V28.631C12.9283 20.9632 16.9725 15.4253 19.2979 13.6149C25.1216 7.48065 33.0482 12.3369 36.2836 15.5318C37.2542 16.2986 38.1035 15.6383 38.4068 15.2123L42.3499 9.78087C59.0928 -2.7432 69.9515 9.88737 73.288 17.7682V29.909C76.6245 29.5895 83.6007 32.7844 84.2073 41.0912C84.6926 47.7366 79.1521 51.5279 76.3211 52.5929H25.6674Z" fill="#00AEEF"/>
<path d="M65.7049 19.7202C65.2196 11.7968 58.4253 9.17701 55.0889 8.85751V5.6626C66.4935 5.91819 68.9402 15.1409 68.738 19.7202H65.7049Z" fill="#1A637E"/>
</svg>
