<svg width="44" height="57" viewBox="0 0 44 57" fill="none" xmlns="http://www.w3.org/2000/svg">
<path d="M17.7066 1.86275V0.186279C12.2115 0.217325 0.979162 3.7255 0.010535 17.5098C-0.0826023 19.3415 0.401712 23.9735 3.08406 27.848C5.19518 30.4248 9.32428 36.6961 8.95173 41.1667H17.7066V39.7696H10.7213C10.6282 37.7516 9.28702 32.3 4.66741 26.6373C2.9215 24.4951 0.160555 18.5902 3.08406 12.1079C4.35694 8.69282 9.06347 1.86275 17.7066 1.86275Z" fill="#00AEEF"/>
<path d="M21.8972 2.42157V0H24.2256C25.9394 0.298039 26.9266 2.04902 27.206 2.88726L27.4854 6.14706C27.56 6.96667 27.889 6.9232 28.0443 6.79902L31.3041 4.56373C31.9747 3.89314 34.3155 4.28431 35.4021 4.56373L38.7551 8.00981C39.4256 8.97843 39.0345 10.6487 38.7551 11.3627L36.0541 14.8088L36.2404 15.1814L40.1521 15.5539C41.5678 15.9265 42.7289 17.634 43.1325 18.4412V21.4216C43.2815 24.402 40.9593 25.6438 39.7796 25.8922L36.0541 26.451L38.6619 30.3628C39.109 31.5549 38.8482 32.9706 38.6619 33.5294L34.9364 37.1618C34.1168 37.4598 32.2975 37.286 31.4904 37.1618L28.4168 34.8333C27.9698 34.3118 27.6717 34.616 27.5786 34.8333L27.206 38.5588C26.9825 39.9 25.126 41.0425 24.2256 41.4461H21.7109V38.8382H23.76C24.5796 38.8382 24.7845 38.2794 24.7845 38L25.5296 33.25C25.9766 31.6108 27.827 31.884 28.6962 32.2255L31.8629 34.4608C32.757 35.2804 33.6636 35.0507 34.0051 34.8333C34.5639 34.3056 35.7933 33.1196 36.2404 32.598C36.6874 32.0765 36.4266 31.0768 36.2404 30.6422L33.8188 27.4755C32.4031 25.6873 33.974 24.433 34.9364 24.0294L39.7796 23.4706C40.3756 23.4706 40.5868 22.9739 40.6178 22.7255V18.6275C40.5433 18.1059 39.5312 17.7892 39.0345 17.6961L34.9364 17.4167C32.9992 17.0441 33.1979 15.2124 33.5394 14.3431L36.5198 10.6176C36.8178 10.1706 36.5198 9.43791 36.3335 9.12745L34.0982 6.79902C33.5021 6.12843 32.4838 6.51961 32.0492 6.79902L28.6031 9.40686C26.7404 10.301 25.6537 8.84804 25.3433 8.00981L24.6913 3.53922C24.6913 2.79412 24.1325 2.48366 23.8531 2.42157H21.8972Z" fill="#00AEEF"/>
<rect x="10.2559" y="42.9363" width="19" height="3.16667" fill="#00AEEF"/>
<rect x="10.2559" y="47.407" width="19" height="3.16667" fill="#00AEEF"/>
<path d="M27.3924 51.9707H11.9316L14.8189 54.9511C16.6071 56.3668 18.9169 56.907 19.8483 57.0001C21.0405 57.0001 23.3254 55.8825 24.3189 55.3236L27.3924 51.9707Z" fill="#00AEEF"/>
<path d="M28.0444 20.7697C27.7463 14.3619 22.332 12.8841 19.662 12.9462V14.9952C24.8032 15.8148 25.6539 19.1864 25.4365 20.7697C25.8836 24.6442 21.7731 26.358 19.662 26.7305V28.5933C26.0699 28.5933 27.9202 23.3776 28.0444 20.7697Z" fill="#00AEEF"/>
</svg>
