<svg width="74" height="55" viewBox="0 0 74 55" fill="none" xmlns="http://www.w3.org/2000/svg">
<path d="M41.0495 8.62973C39.5964 9.21097 36.9324 12.4441 35.7821 13.988H34.4198L30.333 13.2615L29.0615 16.5309L32.4218 18.5289C33.003 18.8195 33.2694 19.6187 33.33 19.982C32.8941 21.6531 33.1483 25.0981 33.33 26.6117C33.4753 27.6289 32.7851 28.2465 32.4218 28.4281L29.0615 30.5169L30.333 33.968L33.8749 32.7874C34.8921 32.3515 35.5702 32.969 35.7821 33.3323C36.3633 34.3495 39.0515 36.7228 40.323 37.7824C41.6308 38.6543 41.2917 39.5988 40.9587 39.962L40.323 43.6856L43.7741 45.0479L45.4996 41.7784C45.9356 40.9792 46.65 40.9005 46.9527 40.961H53.9457C54.6723 40.961 55.2172 41.5059 55.3988 41.7784L57.5785 45.0479L60.9387 43.6856L60.0305 39.962C59.6673 38.8722 60.4846 38.0548 60.9387 37.7824C62.2102 37.4191 64.6623 34.0588 65.1164 33.5139C65.4796 33.078 66.4181 33.0296 66.8419 33.0598L70.6563 34.0588L72.1094 30.4261L68.7491 28.3373C68.0226 28.0467 67.962 27.1264 68.0226 26.7026C68.5311 26.194 68.2345 22.6763 68.0226 20.981C67.7319 20.1092 68.3858 18.983 68.7491 18.5289L72.1094 16.4401L70.6563 12.989L66.8419 13.988C65.4796 14.5329 65.3888 13.988 65.1164 13.4431C64.8439 12.8982 60.6663 8.62973 60.0305 8.62973C59.522 8.62973 59.8186 7.35828 60.0305 6.72255L61.1204 3.36227L57.3968 2L55.308 5.26946C54.6541 6.06866 54.2485 6.14737 54.1274 6.08682C52.9649 5.57824 49.2837 5.87491 47.5884 6.08682C46.6439 6.4501 45.9234 5.69328 45.6813 5.26946L43.5924 2L40.1413 3.36227C40.4441 4.30073 41.0495 6.28662 41.0495 6.72255V8.62973Z" stroke="#00AEEF" stroke-width="3"/>
<path d="M23.2493 19.9819C25.7922 21.2171 24.3088 22.7368 23.2493 23.3422L21.1603 22.8881H17.9817C17.4003 22.9608 16.6496 22.1313 16.3469 21.7075L15.2571 19.437L13.2591 20.436L13.6224 22.434C13.913 23.4512 13.5013 24.1293 13.2591 24.3412L9.35393 27.429C8.99053 28.1556 8.17329 28.2767 7.8101 28.2464L5.2671 27.429L4.54064 29.427L6.62938 30.8801C7.21062 31.2434 7.17429 32.303 7.08347 32.7873C7.02292 33.8771 6.93816 36.1839 7.08347 36.6925C7.22878 37.2011 6.84129 38.1153 6.62938 38.5089L3.72326 39.5987L4.63138 41.7783L6.62938 41.3242L8.26411 41.7783L11.806 45.2294C12.5326 45.956 12.3509 46.9247 12.1693 47.3182L11.4427 49.6795L13.6224 50.5877L15.802 48.0448H21.5236C22.3954 48.0448 22.4318 48.4081 22.3409 48.5897L23.7032 51.3142L25.792 51.0418C25.792 50.2244 25.7194 48.4807 25.4288 48.0448C25.1381 47.6089 25.792 46.7128 26.1553 46.3192L30.1513 42.6865C32.5489 42.8318 32.6034 44.4423 32.3309 45.2294L28.8799 48.5897L29.1523 51.0418C29.2431 50.8299 29.4066 50.5877 29.3339 51.3142C29.2613 52.0408 29.0009 52.7673 28.8799 53.0398L23.7032 54.8562C22.8314 55.3647 21.8868 54.4021 21.5236 53.8572L20.4338 51.3142H16.801L14.9163 53.3703C14.9366 53.3899 14.9171 53.5149 14.803 53.8572C14.5851 54.511 13.6829 54.3718 13.2591 54.2204L8.26411 51.6775C7.53756 51.3142 7.96138 50.1942 8.26411 49.6795L8.7182 47.3182L6.62938 44.8661H3.72326C4.26815 44.9267 5.03099 45.0841 3.72326 45.2294C2.41552 45.3747 1.84633 44.6845 1.72519 44.3212L0.0905263 39.5987C-0.272747 38.7995 0.544633 38.0548 0.998732 37.7823L3.72326 36.2384V32.7873L0.998732 30.8801C0.49015 30.3716 0.786823 29.3362 0.998732 28.8821C1.63446 27.4896 2.96041 24.6318 3.17837 24.3412C3.39633 24.0506 4.17737 23.8569 4.54064 23.7963L7.8101 24.7045L10.2623 22.434L9.80817 19.437C9.4449 18.7105 9.95954 18.1656 10.2623 17.9839C11.6548 17.439 14.6034 16.2766 15.2573 15.9859C15.9112 15.6953 16.8012 16.107 17.1645 16.3492L18.7084 19.437L23.2493 19.9819Z" fill="#00AEEF"/>
<circle cx="50.5853" cy="23.524" r="6.80937" stroke="#00AEEF" stroke-width="4"/>
</svg>
