<svg width="56" height="54" viewBox="0 0 56 54" fill="none" xmlns="http://www.w3.org/2000/svg">
<path d="M2.32293 32.3782C1.7062 33.6116 0.52414 32.8921 0.0102011 32.3782V2.50545C-0.143981 1.42617 1.48778 0.385448 2.32293 0H52.2393C54.2437 0.308364 54.6163 1.79878 54.552 2.50545V6.16727C54.0895 7.55491 52.8175 6.74545 52.2393 6.16727V3.46908C52.2393 2.54399 51.7253 2.4412 51.4684 2.50545H3.28656L2.32293 2.8909V32.3782Z" fill="#00AEEF"/>
<path d="M0.9738 34.4982H26.6065C28.4567 35.5775 27.3774 36.4897 26.6065 36.8109H2.32293V39.8945C2.32293 40.9738 2.83684 41.6291 3.0938 41.8218H26.6065C28.1483 42.4385 27.249 43.4921 26.6065 43.9418H23.9083L23.5229 50.4945H27.5702C29.112 51.4196 28.2126 52.5503 27.5702 53H17.1629C15.6211 52.3833 16.5205 51.0727 17.1629 50.4945H20.2465C21.0174 50.4945 21.5956 49.4667 21.7883 48.9527V44.9055C21.7883 43.9804 21.5314 43.8776 21.4029 43.9418H2.70835C0.858163 43.7876 0.138673 42.4642 0.0102011 41.8218V35.6545C0.0102011 34.5753 0.6526 34.4339 0.9738 34.4982Z" fill="#00AEEF"/>
<rect x="29.7319" y="8.13647" width="24.2" height="44.2436" rx="6.5" stroke="#1A637E" stroke-width="3"/>
<rect x="36.2427" y="11.1782" width="11.1782" height="2.31273" rx="1.15636" fill="#00AEEF"/>
<rect x="39.7119" y="47.0256" width="4.24" height="2.31273" rx="1.15636" fill="#00AEEF"/>
</svg>
