<svg width="30" height="30" viewBox="0 0 30 30" fill="none" xmlns="http://www.w3.org/2000/svg">
<rect x="0.311035" y="0.445312" width="29" height="29" rx="11" fill="#003A50"/>
<path d="M9.82463 9.68044C8.66451 10.2672 8.47115 11.9787 8.51949 12.7611H19.9757C20.8264 13.1914 20.3302 13.7227 19.9757 13.9346H8.51949V20.536C8.75152 22.531 10.5497 23.095 11.4198 23.1276H19.444C21.3388 23.0494 22.0381 21.3998 22.1509 20.5849L22.0059 11.5875C21.8512 9.78802 20.0724 9.37075 19.2023 9.38705V10.0227C18.7769 10.766 18.2838 10.2672 18.0905 9.92493V6.9421C18.5159 6.04237 19.1056 6.56721 19.3473 6.9421V8.06678C21.9382 8.26237 23.0693 10.202 23.311 11.1474V20.3893C23.2337 23.1276 21.023 24.1708 19.9273 24.3501H11.2264C8.28747 24.2718 7.3916 21.7747 7.31104 20.536V11.4897C7.69774 9.76845 8.85786 8.78396 9.38959 8.50687C10.4724 8.81982 10.1308 9.41964 9.82463 9.68044Z" stroke="white" stroke-width="0.5"/>
<path d="M16.2053 9.24035H12.6283V10.0227C12.1642 10.8051 11.6293 10.3487 11.4198 10.0227V6.9421C11.8065 6.3162 12.3866 6.68131 12.6283 6.9421V8.06678H16.2053C17.0174 8.49708 16.5437 9.02845 16.2053 9.24035Z" stroke="white" stroke-width="0.5"/>
<path d="M12.0126 16.9211C12.0126 17.364 11.7342 17.6235 11.5007 17.6235C11.2671 17.6235 10.9888 17.364 10.9888 16.9211C10.9888 16.4783 11.2671 16.2188 11.5007 16.2188C11.7342 16.2188 12.0126 16.4783 12.0126 16.9211Z" stroke="white" stroke-width="0.5"/>
<circle cx="11.5007" cy="20.1594" r="0.511905" stroke="white" stroke-width="0.5"/>
<path d="M15.8231 16.9216C15.8231 17.3645 15.5448 17.624 15.3112 17.624C15.0777 17.624 14.7993 17.3645 14.7993 16.9216C14.7993 16.4788 15.0777 16.2192 15.3112 16.2192C15.5448 16.2192 15.8231 16.4788 15.8231 16.9216Z" stroke="white" stroke-width="0.5"/>
<circle cx="15.3112" cy="20.1594" r="0.511905" stroke="white" stroke-width="0.5"/>
<path d="M19.6317 16.9211C19.6317 17.364 19.3534 17.6235 19.1198 17.6235C18.8863 17.6235 18.6079 17.364 18.6079 16.9211C18.6079 16.4783 18.8863 16.2188 19.1198 16.2188C19.3534 16.2188 19.6317 16.4783 19.6317 16.9211Z" stroke="white" stroke-width="0.5"/>
<circle cx="19.1198" cy="20.1594" r="0.511905" stroke="white" stroke-width="0.5"/>
</svg>
